<?xml version="1.0" encoding="UTF-8" standalone="no"?>
<!DOCTYPE svg PUBLIC "-//W3C//DTD SVG 1.1//EN"
 "http://www.w3.org/Graphics/SVG/1.1/DTD/svg11.dtd">
<!-- Generated by graphviz version 7.1.0 (0)
 -->
<!-- Title: ninja Pages: 1 -->
<svg width="1301pt" height="676pt"
 viewBox="0.00 0.00 1301.48 675.50" xmlns="http://www.w3.org/2000/svg" xmlns:xlink="http://www.w3.org/1999/xlink">
<g id="graph0" class="graph" transform="scale(1 1) rotate(0) translate(4 671.5)">
<title>ninja</title>
<polygon fill="white" stroke="none" points="-4,4 -4,-671.5 1297.48,-671.5 1297.48,4 -4,4"/>
<!-- n1 -->
<g id="node1" class="node">
<title>n1</title>
<polygon fill="none" stroke="black" points="1284.48,-579 1153.48,-579 1153.48,-560 1284.48,-560 1284.48,-579"/>
<text text-anchor="middle" x="1218.98" y="-567" font-family="Times,serif" font-size="10.00">.build/linux/bin/hi&#45;repl</text>
</g>
<!-- n2 -->
<g id="node2" class="node">
<title>n2</title>
<ellipse fill="none" stroke="black" cx="1053.74" cy="-569.5" rx="40.11" ry="13.37"/>
<text text-anchor="middle" x="1053.74" y="-567" font-family="Times,serif" font-size="10.00">ld_linux</text>
</g>
<!-- n2&#45;&gt;n1 -->
<g id="edge1" class="edge">
<title>n2&#45;&gt;n1</title>
<path fill="none" stroke="black" d="M1094.26,-569.5C1108.59,-569.5 1125.32,-569.5 1141.75,-569.5"/>
<polygon fill="black" stroke="black" points="1141.53,-573 1151.53,-569.5 1141.53,-566 1141.53,-573"/>
</g>
<!-- n5 -->
<g id="node3" class="node">
<title>n5</title>
<polygon fill="none" stroke="black" points="946.5,-516 806.5,-516 806.5,-497 946.5,-497 946.5,-516"/>
<text text-anchor="middle" x="876.5" y="-504" font-family="Times,serif" font-size="10.00">.build/linux/bin/hi&#45;repl.o</text>
</g>
<!-- n5&#45;&gt;n2 -->
<g id="edge2" class="edge">
<title>n5&#45;&gt;n2</title>
<path fill="none" stroke="black" d="M944.31,-516.38C950.83,-518.57 957.17,-521.24 963,-524.5 973.15,-530.18 971.27,-537.12 981,-543.5 993.08,-551.41 1007.88,-557.3 1020.89,-561.46"/>
</g>
<!-- n7 -->
<g id="node4" class="node">
<title>n7</title>
<polygon fill="none" stroke="black" points="954,-553 799,-553 799,-534 954,-534 954,-553"/>
<text text-anchor="middle" x="876.5" y="-541" font-family="Times,serif" font-size="10.00">.build/linux/lib/hello/hello.a</text>
</g>
<!-- n7&#45;&gt;n2 -->
<g id="edge3" class="edge">
<title>n7&#45;&gt;n2</title>
<path fill="none" stroke="black" d="M921.52,-553.43C934.87,-556.54 949.56,-560.06 963,-563.5 971.04,-565.56 972.78,-567.32 981,-568.5 991.48,-570 1002.91,-570.62 1013.5,-570.77"/>
</g>
<!-- n63 -->
<g id="node23" class="node">
<title>n63</title>
<ellipse fill="none" stroke="black" cx="1053.74" cy="-470.5" rx="40.11" ry="13.37"/>
<text text-anchor="middle" x="1053.74" y="-468" font-family="Times,serif" font-size="10.00">ld_linux</text>
</g>
<!-- n7&#45;&gt;n63 -->
<g id="edge23" class="edge">
<title>n7&#45;&gt;n63</title>
<path fill="none" stroke="black" d="M945.87,-533.53C951.94,-531.12 957.76,-528.15 963,-524.5 975.13,-516.04 969.44,-505.73 981,-496.5 992.08,-487.66 1006.43,-481.67 1019.38,-477.68"/>
</g>
<!-- n9 -->
<g id="node5" class="node">
<title>n9</title>
<polygon fill="none" stroke="black" points="951,-479 802,-479 802,-460 951,-460 951,-479"/>
<text text-anchor="middle" x="876.5" y="-467" font-family="Times,serif" font-size="10.00">.build/linux/lib/utils/utils.a</text>
</g>
<!-- n9&#45;&gt;n2 -->
<g id="edge4" class="edge">
<title>n9&#45;&gt;n2</title>
<path fill="none" stroke="black" d="M942.73,-479.4C949.76,-481.58 956.66,-484.25 963,-487.5 996.61,-504.74 1027.1,-537.96 1042.39,-556.39"/>
</g>
<!-- n9&#45;&gt;n63 -->
<g id="edge24" class="edge">
<title>n9&#45;&gt;n63</title>
<path fill="none" stroke="black" d="M951.31,-469.92C972.64,-470.04 995.08,-470.17 1013.42,-470.28"/>
</g>
<!-- n11 -->
<g id="node6" class="node">
<title>n11</title>
<polygon fill="none" stroke="black" points="943.5,-592 809.5,-592 809.5,-573 943.5,-573 943.5,-592"/>
<text text-anchor="middle" x="876.5" y="-580" font-family="Times,serif" font-size="10.00">.build/arch/linux/arch.a</text>
</g>
<!-- n11&#45;&gt;n2 -->
<g id="edge5" class="edge">
<title>n11&#45;&gt;n2</title>
<path fill="none" stroke="black" d="M922.41,-592.49C940.92,-595.25 962.56,-596.71 982,-593.5 997.74,-590.9 1014.68,-585.26 1028.04,-580.1"/>
</g>
<!-- n11&#45;&gt;n63 -->
<g id="edge25" class="edge">
<title>n11&#45;&gt;n63</title>
<path fill="none" stroke="black" d="M936.64,-572.53C945.79,-569.71 954.89,-566.11 963,-561.5 998.31,-541.44 1028.99,-503.56 1043.62,-483.59"/>
</g>
<!-- n14 -->
<g id="node7" class="node">
<title>n14</title>
<polygon fill="none" stroke="black" points="642.5,-453 564.5,-453 564.5,-434 642.5,-434 642.5,-453"/>
<text text-anchor="middle" x="603.5" y="-441" font-family="Times,serif" font-size="10.00">bin/hi&#45;repl.c</text>
</g>
<!-- n14&#45;&gt;n5 -->
<g id="edge6" class="edge">
<title>n14&#45;&gt;n5</title>
<path fill="none" stroke="black" d="M626.66,-453.47C647.31,-462.36 679.17,-475.1 708,-482.5 736.01,-489.69 767.24,-494.9 795.08,-498.59"/>
<polygon fill="black" stroke="black" points="794.52,-502.05 804.88,-499.84 795.4,-495.1 794.52,-502.05"/>
<text text-anchor="middle" x="740" y="-498.5" font-family="Times,serif" font-size="10.00"> cc_linux</text>
</g>
<!-- n82 -->
<g id="node28" class="node">
<title>n82</title>
<polygon fill="none" stroke="black" points="949.5,-217 803.5,-217 803.5,-198 949.5,-198 949.5,-217"/>
<text text-anchor="middle" x="876.5" y="-205" font-family="Times,serif" font-size="10.00">.build/macos/bin/hi&#45;repl.o</text>
</g>
<!-- n14&#45;&gt;n82 -->
<g id="edge32" class="edge">
<title>n14&#45;&gt;n82</title>
<path fill="none" stroke="black" d="M642.71,-440.45C658.26,-437.88 675.86,-433.15 690,-424.5 738.74,-394.69 747.93,-377.31 772,-325.5 791.03,-284.55 758.54,-257.9 790,-225.5 791.19,-224.28 792.44,-223.12 793.74,-222.04"/>
<polygon fill="black" stroke="black" points="795.39,-225.15 801.77,-216.69 791.5,-219.33 795.39,-225.15"/>
<text text-anchor="middle" x="740" y="-416.5" font-family="Times,serif" font-size="10.00"> cc_macos</text>
</g>
<!-- n154 -->
<g id="node48" class="node">
<title>n154</title>
<polygon fill="none" stroke="black" points="955.5,-442 797.5,-442 797.5,-423 955.5,-423 955.5,-442"/>
<text text-anchor="middle" x="876.5" y="-430" font-family="Times,serif" font-size="10.00">.build/windows/bin/hi&#45;repl.o</text>
</g>
<!-- n14&#45;&gt;n154 -->
<g id="edge58" class="edge">
<title>n14&#45;&gt;n154</title>
<path fill="none" stroke="black" d="M642.75,-441.95C679.7,-440.45 737.02,-438.12 785.53,-436.15"/>
<polygon fill="black" stroke="black" points="785.65,-439.65 795.5,-435.75 785.37,-432.66 785.65,-439.65"/>
<text text-anchor="middle" x="740" y="-442.5" font-family="Times,serif" font-size="10.00"> cc_windows</text>
</g>
<!-- n18 -->
<g id="node8" class="node">
<title>n18</title>
<polygon fill="none" stroke="black" points="681,-524 526,-524 526,-505 681,-505 681,-524"/>
<text text-anchor="middle" x="603.5" y="-512" font-family="Times,serif" font-size="10.00">.build/linux/lib/hello/hello.o</text>
</g>
<!-- n18&#45;&gt;n7 -->
<g id="edge7" class="edge">
<title>n18&#45;&gt;n7</title>
<path fill="none" stroke="black" d="M681.43,-522.73C714.47,-526.27 753.26,-530.42 787.44,-534.08"/>
<polygon fill="black" stroke="black" points="787.02,-537.55 797.34,-535.14 787.77,-530.59 787.02,-537.55"/>
<text text-anchor="middle" x="740" y="-535.5" font-family="Times,serif" font-size="10.00"> ar_linux</text>
</g>
<!-- n21 -->
<g id="node9" class="node">
<title>n21</title>
<polygon fill="none" stroke="black" points="376,-299 283,-299 283,-280 376,-280 376,-299"/>
<text text-anchor="middle" x="329.5" y="-287" font-family="Times,serif" font-size="10.00">lib/hello/hello.c</text>
</g>
<!-- n21&#45;&gt;n18 -->
<g id="edge8" class="edge">
<title>n21&#45;&gt;n18</title>
<path fill="none" stroke="black" d="M376.28,-292.22C390.28,-294.77 405.1,-299.36 417,-307.5 484.35,-353.58 458.69,-404.4 517,-461.5 532.71,-476.88 553.64,-489.95 570.86,-499.26"/>
<polygon fill="black" stroke="black" points="569.2,-502.34 579.68,-503.86 572.43,-496.13 569.2,-502.34"/>
<text text-anchor="middle" x="467" y="-441.5" font-family="Times,serif" font-size="10.00"> cc_linux</text>
</g>
<!-- n94 -->
<g id="node32" class="node">
<title>n94</title>
<polygon fill="none" stroke="black" points="684,-184 523,-184 523,-165 684,-165 684,-184"/>
<text text-anchor="middle" x="603.5" y="-172" font-family="Times,serif" font-size="10.00">.build/macos/lib/hello/hello.o</text>
</g>
<!-- n21&#45;&gt;n94 -->
<g id="edge34" class="edge">
<title>n21&#45;&gt;n94</title>
<path fill="none" stroke="black" d="M376.2,-283.41C389.75,-280.57 404.34,-276.45 417,-270.5 468.01,-246.53 465.88,-216.25 517,-192.5 520.55,-190.85 524.25,-189.35 528.03,-187.99"/>
<polygon fill="black" stroke="black" points="528.99,-191.36 537.43,-184.96 526.84,-184.7 528.99,-191.36"/>
<text text-anchor="middle" x="467" y="-263.5" font-family="Times,serif" font-size="10.00"> cc_macos</text>
</g>
<!-- n166 -->
<g id="node52" class="node">
<title>n166</title>
<polygon fill="none" stroke="black" points="690,-306 517,-306 517,-287 690,-287 690,-306"/>
<text text-anchor="middle" x="603.5" y="-294" font-family="Times,serif" font-size="10.00">.build/windows/lib/hello/hello.o</text>
</g>
<!-- n21&#45;&gt;n166 -->
<g id="edge60" class="edge">
<title>n21&#45;&gt;n166</title>
<path fill="none" stroke="black" d="M376.33,-290.68C411.5,-291.58 461.31,-292.87 505.24,-294"/>
<polygon fill="black" stroke="black" points="504.96,-297.49 515.05,-294.25 505.14,-290.49 504.96,-297.49"/>
<text text-anchor="middle" x="467" y="-297.5" font-family="Times,serif" font-size="10.00"> cc_windows</text>
</g>
<!-- n25 -->
<g id="node10" class="node">
<title>n25</title>
<ellipse fill="none" stroke="black" cx="603.5" cy="-357.5" rx="41.02" ry="13.37"/>
<text text-anchor="middle" x="603.5" y="-355" font-family="Times,serif" font-size="10.00">ar_linux</text>
</g>
<!-- n25&#45;&gt;n9 -->
<g id="edge9" class="edge">
<title>n25&#45;&gt;n9</title>
<path fill="none" stroke="black" d="M644.25,-359.53C660.42,-362.34 678.08,-368.29 690,-380.5 713.64,-404.72 682.35,-432.42 708,-454.5 735.83,-478.46 776.75,-482.49 811.18,-480.4"/>
<polygon fill="black" stroke="black" points="811.38,-483.9 821.07,-479.6 810.82,-476.92 811.38,-483.9"/>
</g>
<!-- n28 -->
<g id="node11" class="node">
<title>n28</title>
<polygon fill="none" stroke="black" points="399.5,-336 259.5,-336 259.5,-317 399.5,-317 399.5,-336"/>
<text text-anchor="middle" x="329.5" y="-324" font-family="Times,serif" font-size="10.00">.build/linux/lib/utils/fib.o</text>
</g>
<!-- n28&#45;&gt;n25 -->
<g id="edge10" class="edge">
<title>n28&#45;&gt;n25</title>
<path fill="none" stroke="black" d="M399.84,-334.4C452.1,-340.36 521.8,-348.3 564.34,-353.15"/>
</g>
<!-- n30 -->
<g id="node12" class="node">
<title>n30</title>
<polygon fill="none" stroke="black" points="404,-373 255,-373 255,-354 404,-354 404,-373"/>
<text text-anchor="middle" x="329.5" y="-361" font-family="Times,serif" font-size="10.00">.build/linux/lib/utils/utils.o</text>
</g>
<!-- n30&#45;&gt;n25 -->
<g id="edge11" class="edge">
<title>n30&#45;&gt;n25</title>
<path fill="none" stroke="black" d="M404.47,-361.87C455.28,-360.75 520.79,-359.3 562.24,-358.39"/>
</g>
<!-- n33 -->
<g id="node13" class="node">
<title>n33</title>
<polygon fill="none" stroke="black" points="110.5,-201 31.5,-201 31.5,-182 110.5,-182 110.5,-201"/>
<text text-anchor="middle" x="71" y="-189" font-family="Times,serif" font-size="10.00">lib/utils/fib.c</text>
</g>
<!-- n33&#45;&gt;n28 -->
<g id="edge12" class="edge">
<title>n33&#45;&gt;n28</title>
<path fill="none" stroke="black" d="M110.69,-197.67C153.03,-204.77 215.98,-216.48 224,-224.5 250.69,-251.19 215.34,-280.77 242,-307.5 244.21,-309.72 246.62,-311.71 249.18,-313.48"/>
<polygon fill="black" stroke="black" points="247.29,-316.43 257.72,-318.3 250.73,-310.33 247.29,-316.43"/>
<text text-anchor="middle" x="192" y="-227.5" font-family="Times,serif" font-size="10.00"> cc_linux</text>
</g>
<!-- n103 -->
<g id="node34" class="node">
<title>n103</title>
<polygon fill="none" stroke="black" points="403,-144 256,-144 256,-125 403,-125 403,-144"/>
<text text-anchor="middle" x="329.5" y="-132" font-family="Times,serif" font-size="10.00">.build/macos/lib/utils/fib.o</text>
</g>
<!-- n33&#45;&gt;n103 -->
<g id="edge38" class="edge">
<title>n33&#45;&gt;n103</title>
<path fill="none" stroke="black" d="M110.96,-182.84C153.99,-173.28 223.66,-157.8 272.53,-146.94"/>
<polygon fill="black" stroke="black" points="273.07,-150.4 282.08,-144.82 271.55,-143.57 273.07,-150.4"/>
<text text-anchor="middle" x="192" y="-174.5" font-family="Times,serif" font-size="10.00"> cc_macos</text>
</g>
<!-- n175 -->
<g id="node54" class="node">
<title>n175</title>
<polygon fill="none" stroke="black" points="409,-224 250,-224 250,-205 409,-205 409,-224"/>
<text text-anchor="middle" x="329.5" y="-212" font-family="Times,serif" font-size="10.00">.build/windows/lib/utils/fib.o</text>
</g>
<!-- n33&#45;&gt;n175 -->
<g id="edge64" class="edge">
<title>n33&#45;&gt;n175</title>
<path fill="none" stroke="black" d="M110.86,-189.62C141.64,-188.64 185.69,-188.38 224,-192.5 242.3,-194.47 262.12,-198.21 279.52,-202.07"/>
<polygon fill="black" stroke="black" points="278.57,-205.44 289.1,-204.26 280.13,-198.62 278.57,-205.44"/>
<text text-anchor="middle" x="192" y="-195.5" font-family="Times,serif" font-size="10.00"> cc_windows</text>
</g>
<!-- n37 -->
<g id="node14" class="node">
<title>n37</title>
<polygon fill="none" stroke="black" points="114.5,-303 27.5,-303 27.5,-284 114.5,-284 114.5,-303"/>
<text text-anchor="middle" x="71" y="-291" font-family="Times,serif" font-size="10.00">lib/utils/utils.c</text>
</g>
<!-- n37&#45;&gt;n30 -->
<g id="edge13" class="edge">
<title>n37&#45;&gt;n30</title>
<path fill="none" stroke="black" d="M102.52,-303.41C136.39,-314.24 192.79,-331.73 242,-344.5 250.78,-346.78 260.11,-349.02 269.27,-351.11"/>
<polygon fill="black" stroke="black" points="268.31,-354.48 278.83,-353.26 269.84,-347.65 268.31,-354.48"/>
<text text-anchor="middle" x="192" y="-343.5" font-family="Times,serif" font-size="10.00"> cc_linux</text>
</g>
<!-- n105 -->
<g id="node35" class="node">
<title>n105</title>
<polygon fill="none" stroke="black" points="407,-185 252,-185 252,-166 407,-166 407,-185"/>
<text text-anchor="middle" x="329.5" y="-173" font-family="Times,serif" font-size="10.00">.build/macos/lib/utils/utils.o</text>
</g>
<!-- n37&#45;&gt;n105 -->
<g id="edge39" class="edge">
<title>n37&#45;&gt;n105</title>
<path fill="none" stroke="black" d="M95.75,-283.59C113.38,-276.36 138.05,-266.46 160,-258.5 188.14,-248.3 201.92,-257.72 224,-237.5 238.98,-223.78 226.42,-208.53 242,-195.5 244.09,-193.75 246.31,-192.14 248.63,-190.67"/>
<polygon fill="black" stroke="black" points="250.11,-193.85 257.29,-186.07 246.82,-187.67 250.11,-193.85"/>
<text text-anchor="middle" x="192" y="-261.5" font-family="Times,serif" font-size="10.00"> cc_macos</text>
</g>
<!-- n177 -->
<g id="node55" class="node">
<title>n177</title>
<polygon fill="none" stroke="black" points="413,-262 246,-262 246,-243 413,-243 413,-262"/>
<text text-anchor="middle" x="329.5" y="-250" font-family="Times,serif" font-size="10.00">.build/windows/lib/utils/utils.o</text>
</g>
<!-- n37&#45;&gt;n177 -->
<g id="edge65" class="edge">
<title>n37&#45;&gt;n177</title>
<path fill="none" stroke="black" d="M114.98,-287.7C145.45,-283.49 187.29,-277.49 224,-271.5 237.15,-269.35 251.21,-266.9 264.6,-264.5"/>
<polygon fill="black" stroke="black" points="264.97,-267.99 274.18,-262.76 263.72,-261.1 264.97,-267.99"/>
<text text-anchor="middle" x="192" y="-284.5" font-family="Times,serif" font-size="10.00"> cc_windows</text>
</g>
<!-- n41 -->
<g id="node15" class="node">
<title>n41</title>
<ellipse fill="none" stroke="black" cx="603.5" cy="-582.5" rx="41.02" ry="13.37"/>
<text text-anchor="middle" x="603.5" y="-580" font-family="Times,serif" font-size="10.00">ar_linux</text>
</g>
<!-- n41&#45;&gt;n11 -->
<g id="edge14" class="edge">
<title>n41&#45;&gt;n11</title>
<path fill="none" stroke="black" d="M644.78,-582.5C685,-582.5 747.84,-582.5 797.79,-582.5"/>
<polygon fill="black" stroke="black" points="797.7,-586 807.7,-582.5 797.7,-579 797.7,-586"/>
</g>
<!-- n44 -->
<g id="node16" class="node">
<title>n44</title>
<polygon fill="none" stroke="black" points="394,-629 265,-629 265,-610 394,-610 394,-629"/>
<text text-anchor="middle" x="329.5" y="-617" font-family="Times,serif" font-size="10.00">.build/arch/linux/ask.o</text>
</g>
<!-- n44&#45;&gt;n41 -->
<g id="edge15" class="edge">
<title>n44&#45;&gt;n41</title>
<path fill="none" stroke="black" d="M394.27,-610.83C447.35,-603.61 521.09,-593.57 565.09,-587.59"/>
</g>
<!-- n46 -->
<g id="node17" class="node">
<title>n46</title>
<polygon fill="none" stroke="black" points="407.5,-592 251.5,-592 251.5,-573 407.5,-573 407.5,-592"/>
<text text-anchor="middle" x="329.5" y="-580" font-family="Times,serif" font-size="10.00">.build/arch/linux/get_arch.o</text>
</g>
<!-- n46&#45;&gt;n41 -->
<g id="edge16" class="edge">
<title>n46&#45;&gt;n41</title>
<path fill="none" stroke="black" d="M407.72,-582.5C457.98,-582.5 521.5,-582.5 562.07,-582.5"/>
</g>
<!-- n48 -->
<g id="node18" class="node">
<title>n48</title>
<polygon fill="none" stroke="black" points="393.5,-555 265.5,-555 265.5,-536 393.5,-536 393.5,-555"/>
<text text-anchor="middle" x="329.5" y="-543" font-family="Times,serif" font-size="10.00">.build/arch/linux/say.o</text>
</g>
<!-- n48&#45;&gt;n41 -->
<g id="edge17" class="edge">
<title>n48&#45;&gt;n41</title>
<path fill="none" stroke="black" d="M393.93,-554.13C446.99,-561.35 520.89,-571.4 564.99,-577.4"/>
</g>
<!-- n51 -->
<g id="node19" class="node">
<title>n51</title>
<polygon fill="none" stroke="black" points="119,-629 23,-629 23,-610 119,-610 119,-629"/>
<text text-anchor="middle" x="71" y="-617" font-family="Times,serif" font-size="10.00">arch/linux/ask.c</text>
</g>
<!-- n51&#45;&gt;n44 -->
<g id="edge18" class="edge">
<title>n51&#45;&gt;n44</title>
<path fill="none" stroke="black" d="M119.34,-619.5C156.82,-619.5 209.86,-619.5 253.16,-619.5"/>
<polygon fill="black" stroke="black" points="253,-623 263,-619.5 253,-616 253,-623"/>
<text text-anchor="middle" x="192" y="-622.5" font-family="Times,serif" font-size="10.00"> cc_linux</text>
</g>
<!-- n55 -->
<g id="node20" class="node">
<title>n55</title>
<polygon fill="none" stroke="black" points="132.5,-592 9.5,-592 9.5,-573 132.5,-573 132.5,-592"/>
<text text-anchor="middle" x="71" y="-580" font-family="Times,serif" font-size="10.00">arch/linux/get_arch.c</text>
</g>
<!-- n55&#45;&gt;n46 -->
<g id="edge19" class="edge">
<title>n55&#45;&gt;n46</title>
<path fill="none" stroke="black" d="M132.79,-582.5C164.74,-582.5 204.49,-582.5 239.81,-582.5"/>
<polygon fill="black" stroke="black" points="239.6,-586 249.6,-582.5 239.6,-579 239.6,-586"/>
<text text-anchor="middle" x="192" y="-585.5" font-family="Times,serif" font-size="10.00"> cc_linux</text>
</g>
<!-- n59 -->
<g id="node21" class="node">
<title>n59</title>
<polygon fill="none" stroke="black" points="118.5,-555 23.5,-555 23.5,-536 118.5,-536 118.5,-555"/>
<text text-anchor="middle" x="71" y="-543" font-family="Times,serif" font-size="10.00">arch/linux/say.c</text>
</g>
<!-- n59&#45;&gt;n48 -->
<g id="edge20" class="edge">
<title>n59&#45;&gt;n48</title>
<path fill="none" stroke="black" d="M118.75,-545.5C156.42,-545.5 210.11,-545.5 253.74,-545.5"/>
<polygon fill="black" stroke="black" points="253.66,-549 263.66,-545.5 253.66,-542 253.66,-549"/>
<text text-anchor="middle" x="192" y="-548.5" font-family="Times,serif" font-size="10.00"> cc_linux</text>
</g>
<!-- n62 -->
<g id="node22" class="node">
<title>n62</title>
<polygon fill="none" stroke="black" points="1272.48,-480 1165.48,-480 1165.48,-461 1272.48,-461 1272.48,-480"/>
<text text-anchor="middle" x="1218.98" y="-468" font-family="Times,serif" font-size="10.00">.build/linux/bin/hi</text>
</g>
<!-- n63&#45;&gt;n62 -->
<g id="edge21" class="edge">
<title>n63&#45;&gt;n62</title>
<path fill="none" stroke="black" d="M1094.26,-470.5C1112.17,-470.5 1133.8,-470.5 1153.94,-470.5"/>
<polygon fill="black" stroke="black" points="1153.74,-474 1163.74,-470.5 1153.74,-467 1153.74,-474"/>
</g>
<!-- n66 -->
<g id="node24" class="node">
<title>n66</title>
<polygon fill="none" stroke="black" points="934.5,-405 818.5,-405 818.5,-386 934.5,-386 934.5,-405"/>
<text text-anchor="middle" x="876.5" y="-393" font-family="Times,serif" font-size="10.00">.build/linux/bin/hi.o</text>
</g>
<!-- n66&#45;&gt;n63 -->
<g id="edge22" class="edge">
<title>n66&#45;&gt;n63</title>
<path fill="none" stroke="black" d="M934.92,-404.62C944.48,-406.98 954.15,-409.9 963,-413.5 990.86,-424.85 1019.63,-444.85 1036.85,-457.89"/>
</g>
<!-- n75 -->
<g id="node25" class="node">
<title>n75</title>
<polygon fill="none" stroke="black" points="630.5,-221 576.5,-221 576.5,-202 630.5,-202 630.5,-221"/>
<text text-anchor="middle" x="603.5" y="-209" font-family="Times,serif" font-size="10.00">bin/hi.c</text>
</g>
<!-- n75&#45;&gt;n66 -->
<g id="edge26" class="edge">
<title>n75&#45;&gt;n66</title>
<path fill="none" stroke="black" d="M630.73,-213.85C648.27,-216.24 671.45,-221.02 690,-230.5 699.53,-235.37 699.61,-239.86 708,-246.5 735.26,-268.09 752.85,-262.48 772,-291.5 793.27,-323.73 762.83,-349.06 790,-376.5 795.05,-381.61 801.16,-385.47 807.75,-388.39"/>
<polygon fill="black" stroke="black" points="806.4,-391.62 817,-391.71 808.77,-385.04 806.4,-391.62"/>
<text text-anchor="middle" x="740" y="-294.5" font-family="Times,serif" font-size="10.00"> cc_linux</text>
</g>
<!-- n139 -->
<g id="node45" class="node">
<title>n139</title>
<polygon fill="none" stroke="black" points="937.5,-143 815.5,-143 815.5,-124 937.5,-124 937.5,-143"/>
<text text-anchor="middle" x="876.5" y="-131" font-family="Times,serif" font-size="10.00">.build/macos/bin/hi.o</text>
</g>
<!-- n75&#45;&gt;n139 -->
<g id="edge52" class="edge">
<title>n75&#45;&gt;n139</title>
<path fill="none" stroke="black" d="M630.87,-211.34C649.16,-209.97 673.15,-205.51 690,-192.5 703.85,-181.81 693.75,-167.65 708,-157.5 735.38,-137.99 771.76,-131.13 803.61,-129.5"/>
<polygon fill="black" stroke="black" points="803.73,-133 813.61,-129.18 803.5,-126.01 803.73,-133"/>
<text text-anchor="middle" x="740" y="-160.5" font-family="Times,serif" font-size="10.00"> cc_macos</text>
</g>
<!-- n211 -->
<g id="node65" class="node">
<title>n211</title>
<polygon fill="none" stroke="black" points="943.5,-254 809.5,-254 809.5,-235 943.5,-235 943.5,-254"/>
<text text-anchor="middle" x="876.5" y="-242" font-family="Times,serif" font-size="10.00">.build/windows/bin/hi.o</text>
</g>
<!-- n75&#45;&gt;n211 -->
<g id="edge78" class="edge">
<title>n75&#45;&gt;n211</title>
<path fill="none" stroke="black" d="M630.98,-214.72C669.29,-219.39 741.75,-228.21 797.88,-235.05"/>
<polygon fill="black" stroke="black" points="797.38,-238.51 807.73,-236.25 798.23,-231.56 797.38,-238.51"/>
<text text-anchor="middle" x="740" y="-234.5" font-family="Times,serif" font-size="10.00"> cc_windows</text>
</g>
<!-- n78 -->
<g id="node26" class="node">
<title>n78</title>
<polygon fill="none" stroke="black" points="1287.48,-180 1150.48,-180 1150.48,-161 1287.48,-161 1287.48,-180"/>
<text text-anchor="middle" x="1218.98" y="-168" font-family="Times,serif" font-size="10.00">.build/macos/bin/hi&#45;repl</text>
</g>
<!-- n79 -->
<g id="node27" class="node">
<title>n79</title>
<ellipse fill="none" stroke="black" cx="1053.74" cy="-170.5" rx="45.01" ry="13.37"/>
<text text-anchor="middle" x="1053.74" y="-168" font-family="Times,serif" font-size="10.00">ld_macos</text>
</g>
<!-- n79&#45;&gt;n78 -->
<g id="edge27" class="edge">
<title>n79&#45;&gt;n78</title>
<path fill="none" stroke="black" d="M1098.92,-170.5C1111.23,-170.5 1125.01,-170.5 1138.69,-170.5"/>
<polygon fill="black" stroke="black" points="1138.62,-174 1148.62,-170.5 1138.62,-167 1138.62,-174"/>
</g>
<!-- n82&#45;&gt;n79 -->
<g id="edge28" class="edge">
<title>n82&#45;&gt;n79</title>
<path fill="none" stroke="black" d="M924.46,-197.58C953.25,-191.51 989.57,-183.84 1016.21,-178.21"/>
</g>
<!-- n84 -->
<g id="node29" class="node">
<title>n84</title>
<polygon fill="none" stroke="black" points="957,-180 796,-180 796,-161 957,-161 957,-180"/>
<text text-anchor="middle" x="876.5" y="-168" font-family="Times,serif" font-size="10.00">.build/macos/lib/hello/hello.a</text>
</g>
<!-- n84&#45;&gt;n79 -->
<g id="edge29" class="edge">
<title>n84&#45;&gt;n79</title>
<path fill="none" stroke="black" d="M957.43,-170.5C974.94,-170.5 992.87,-170.5 1008.38,-170.5"/>
</g>
<!-- n136 -->
<g id="node44" class="node">
<title>n136</title>
<ellipse fill="none" stroke="black" cx="1053.74" cy="-70.5" rx="45.01" ry="13.37"/>
<text text-anchor="middle" x="1053.74" y="-68" font-family="Times,serif" font-size="10.00">ld_macos</text>
</g>
<!-- n84&#45;&gt;n136 -->
<g id="edge49" class="edge">
<title>n84&#45;&gt;n136</title>
<path fill="none" stroke="black" d="M940.01,-160.58C947.98,-158.18 955.84,-155.2 963,-151.5 996.2,-134.37 1026.62,-101.9 1042.07,-83.7"/>
</g>
<!-- n86 -->
<g id="node30" class="node">
<title>n86</title>
<polygon fill="none" stroke="black" points="954,-106 799,-106 799,-87 954,-87 954,-106"/>
<text text-anchor="middle" x="876.5" y="-94" font-family="Times,serif" font-size="10.00">.build/macos/lib/utils/utils.a</text>
</g>
<!-- n86&#45;&gt;n79 -->
<g id="edge30" class="edge">
<title>n86&#45;&gt;n79</title>
<path fill="none" stroke="black" d="M948.07,-106.41C953.35,-108.61 958.4,-111.28 963,-114.5 975.42,-123.21 969.28,-133.87 981,-143.5 991.49,-152.12 1005.01,-158.15 1017.48,-162.3"/>
</g>
<!-- n86&#45;&gt;n136 -->
<g id="edge50" class="edge">
<title>n86&#45;&gt;n136</title>
<path fill="none" stroke="black" d="M910.25,-86.61C930.44,-81.01 956.97,-74.53 981,-71.5 989.9,-70.38 999.47,-69.81 1008.62,-69.57"/>
</g>
<!-- n88 -->
<g id="node31" class="node">
<title>n88</title>
<polygon fill="none" stroke="black" points="947,-56 806,-56 806,-37 947,-37 947,-56"/>
<text text-anchor="middle" x="876.5" y="-44" font-family="Times,serif" font-size="10.00">.build/arch/macos/arch.a</text>
</g>
<!-- n88&#45;&gt;n79 -->
<g id="edge31" class="edge">
<title>n88&#45;&gt;n79</title>
<path fill="none" stroke="black" d="M916.27,-56.44C931.57,-61.38 948.83,-68.3 963,-77.5 997.26,-99.73 1028.16,-137.35 1043.17,-157.25"/>
</g>
<!-- n88&#45;&gt;n136 -->
<g id="edge51" class="edge">
<title>n88&#45;&gt;n136</title>
<path fill="none" stroke="black" d="M947.46,-43.34C959.05,-43.72 970.9,-44.67 982,-46.5 997.23,-49.01 1013.58,-54.38 1026.73,-59.4"/>
</g>
<!-- n94&#45;&gt;n84 -->
<g id="edge33" class="edge">
<title>n94&#45;&gt;n84</title>
<path fill="none" stroke="black" d="M684.34,-173.32C715.77,-172.86 752.03,-172.32 784.46,-171.84"/>
<polygon fill="black" stroke="black" points="784.3,-175.35 794.25,-171.7 784.2,-168.35 784.3,-175.35"/>
<text text-anchor="middle" x="740" y="-176.5" font-family="Times,serif" font-size="10.00"> ar_macos</text>
</g>
<!-- n100 -->
<g id="node33" class="node">
<title>n100</title>
<ellipse fill="none" stroke="black" cx="603.5" cy="-133.5" rx="45.92" ry="13.37"/>
<text text-anchor="middle" x="603.5" y="-131" font-family="Times,serif" font-size="10.00">ar_macos</text>
</g>
<!-- n100&#45;&gt;n86 -->
<g id="edge35" class="edge">
<title>n100&#45;&gt;n86</title>
<path fill="none" stroke="black" d="M642.24,-125.87C661.81,-122.1 686.12,-117.68 708,-114.5 733.72,-110.76 761.76,-107.45 787.42,-104.72"/>
<polygon fill="black" stroke="black" points="787.55,-108.23 797.13,-103.7 786.82,-101.26 787.55,-108.23"/>
</g>
<!-- n103&#45;&gt;n100 -->
<g id="edge36" class="edge">
<title>n103&#45;&gt;n100</title>
<path fill="none" stroke="black" d="M403.39,-134.23C452.33,-134.05 515.28,-133.82 557.16,-133.67"/>
</g>
<!-- n105&#45;&gt;n100 -->
<g id="edge37" class="edge">
<title>n105&#45;&gt;n100</title>
<path fill="none" stroke="black" d="M394.96,-165.55C446.8,-157.54 518.03,-146.54 562.12,-139.73"/>
</g>
<!-- n114 -->
<g id="node36" class="node">
<title>n114</title>
<ellipse fill="none" stroke="black" cx="603.5" cy="-46.5" rx="45.92" ry="13.37"/>
<text text-anchor="middle" x="603.5" y="-44" font-family="Times,serif" font-size="10.00">ar_macos</text>
</g>
<!-- n114&#45;&gt;n88 -->
<g id="edge40" class="edge">
<title>n114&#45;&gt;n88</title>
<path fill="none" stroke="black" d="M649.86,-46.5C689.11,-46.5 746.84,-46.5 794.08,-46.5"/>
<polygon fill="black" stroke="black" points="794.02,-50 804.02,-46.5 794.02,-43 794.02,-50"/>
</g>
<!-- n117 -->
<g id="node37" class="node">
<title>n117</title>
<polygon fill="none" stroke="black" points="397.5,-93 261.5,-93 261.5,-74 397.5,-74 397.5,-93"/>
<text text-anchor="middle" x="329.5" y="-81" font-family="Times,serif" font-size="10.00">.build/arch/macos/ask.o</text>
</g>
<!-- n117&#45;&gt;n114 -->
<g id="edge41" class="edge">
<title>n117&#45;&gt;n114</title>
<path fill="none" stroke="black" d="M397.74,-74.35C449.02,-67.38 518.01,-57.99 561.37,-52.1"/>
</g>
<!-- n119 -->
<g id="node38" class="node">
<title>n119</title>
<polygon fill="none" stroke="black" points="411,-56 248,-56 248,-37 411,-37 411,-56"/>
<text text-anchor="middle" x="329.5" y="-44" font-family="Times,serif" font-size="10.00">.build/arch/macos/get_arch.o</text>
</g>
<!-- n119&#45;&gt;n114 -->
<g id="edge42" class="edge">
<title>n119&#45;&gt;n114</title>
<path fill="none" stroke="black" d="M411.37,-46.5C459.13,-46.5 517.82,-46.5 557.46,-46.5"/>
</g>
<!-- n121 -->
<g id="node39" class="node">
<title>n121</title>
<polygon fill="none" stroke="black" points="396.5,-19 262.5,-19 262.5,0 396.5,0 396.5,-19"/>
<text text-anchor="middle" x="329.5" y="-7" font-family="Times,serif" font-size="10.00">.build/arch/macos/say.o</text>
</g>
<!-- n121&#45;&gt;n114 -->
<g id="edge43" class="edge">
<title>n121&#45;&gt;n114</title>
<path fill="none" stroke="black" d="M396.69,-18.5C448.11,-25.5 517.8,-34.98 561.45,-40.92"/>
</g>
<!-- n124 -->
<g id="node40" class="node">
<title>n124</title>
<polygon fill="none" stroke="black" points="122.5,-93 19.5,-93 19.5,-74 122.5,-74 122.5,-93"/>
<text text-anchor="middle" x="71" y="-81" font-family="Times,serif" font-size="10.00">arch/macos/ask.c</text>
</g>
<!-- n124&#45;&gt;n117 -->
<g id="edge44" class="edge">
<title>n124&#45;&gt;n117</title>
<path fill="none" stroke="black" d="M122.98,-83.5C159.17,-83.5 208.45,-83.5 249.68,-83.5"/>
<polygon fill="black" stroke="black" points="249.57,-87 259.57,-83.5 249.57,-80 249.57,-87"/>
<text text-anchor="middle" x="192" y="-86.5" font-family="Times,serif" font-size="10.00"> cc_macos</text>
</g>
<!-- n128 -->
<g id="node41" class="node">
<title>n128</title>
<polygon fill="none" stroke="black" points="136,-56 6,-56 6,-37 136,-37 136,-56"/>
<text text-anchor="middle" x="71" y="-44" font-family="Times,serif" font-size="10.00">arch/macos/get_arch.c</text>
</g>
<!-- n128&#45;&gt;n119 -->
<g id="edge45" class="edge">
<title>n128&#45;&gt;n119</title>
<path fill="none" stroke="black" d="M136.39,-46.5C166.66,-46.5 203.29,-46.5 236.42,-46.5"/>
<polygon fill="black" stroke="black" points="236,-50 246,-46.5 236,-43 236,-50"/>
<text text-anchor="middle" x="192" y="-49.5" font-family="Times,serif" font-size="10.00"> cc_macos</text>
</g>
<!-- n132 -->
<g id="node42" class="node">
<title>n132</title>
<polygon fill="none" stroke="black" points="121.5,-19 20.5,-19 20.5,0 121.5,0 121.5,-19"/>
<text text-anchor="middle" x="71" y="-7" font-family="Times,serif" font-size="10.00">arch/macos/say.c</text>
</g>
<!-- n132&#45;&gt;n121 -->
<g id="edge46" class="edge">
<title>n132&#45;&gt;n121</title>
<path fill="none" stroke="black" d="M121.76,-9.5C158.46,-9.5 209.09,-9.5 251.06,-9.5"/>
<polygon fill="black" stroke="black" points="250.86,-13 260.86,-9.5 250.86,-6 250.86,-13"/>
<text text-anchor="middle" x="192" y="-12.5" font-family="Times,serif" font-size="10.00"> cc_macos</text>
</g>
<!-- n135 -->
<g id="node43" class="node">
<title>n135</title>
<polygon fill="none" stroke="black" points="1275.48,-80 1162.48,-80 1162.48,-61 1275.48,-61 1275.48,-80"/>
<text text-anchor="middle" x="1218.98" y="-68" font-family="Times,serif" font-size="10.00">.build/macos/bin/hi</text>
</g>
<!-- n136&#45;&gt;n135 -->
<g id="edge47" class="edge">
<title>n136&#45;&gt;n135</title>
<path fill="none" stroke="black" d="M1098.92,-70.5C1114.87,-70.5 1133.26,-70.5 1150.75,-70.5"/>
<polygon fill="black" stroke="black" points="1150.56,-74 1160.56,-70.5 1150.56,-67 1150.56,-74"/>
</g>
<!-- n139&#45;&gt;n136 -->
<g id="edge48" class="edge">
<title>n139&#45;&gt;n136</title>
<path fill="none" stroke="black" d="M937.95,-124.6C946.65,-122.04 955.27,-118.74 963,-114.5 972.92,-109.06 971.45,-102.57 981,-96.5 992.62,-89.11 1006.64,-83.43 1019.19,-79.29"/>
</g>
<!-- n150 -->
<g id="node46" class="node">
<title>n150</title>
<polygon fill="none" stroke="black" points="1293.48,-367 1144.48,-367 1144.48,-348 1293.48,-348 1293.48,-367"/>
<text text-anchor="middle" x="1218.98" y="-355" font-family="Times,serif" font-size="10.00">.build/windows/bin/hi&#45;repl</text>
</g>
<!-- n151 -->
<g id="node47" class="node">
<title>n151</title>
<ellipse fill="none" stroke="black" cx="1053.74" cy="-357.5" rx="53.98" ry="13.37"/>
<text text-anchor="middle" x="1053.74" y="-355" font-family="Times,serif" font-size="10.00">ld_windows</text>
</g>
<!-- n151&#45;&gt;n150 -->
<g id="edge53" class="edge">
<title>n151&#45;&gt;n150</title>
<path fill="none" stroke="black" d="M1108.19,-357.5C1116.12,-357.5 1124.45,-357.5 1132.83,-357.5"/>
<polygon fill="black" stroke="black" points="1132.74,-361 1142.74,-357.5 1132.74,-354 1132.74,-361"/>
</g>
<!-- n154&#45;&gt;n151 -->
<g id="edge54" class="edge">
<title>n154&#45;&gt;n151</title>
<path fill="none" stroke="black" d="M934.9,-422.57C944.45,-420.12 954.13,-417.13 963,-413.5 990.2,-402.38 1018.45,-383.28 1035.82,-370.53"/>
</g>
<!-- n156 -->
<g id="node49" class="node">
<title>n156</title>
<polygon fill="none" stroke="black" points="963,-329 790,-329 790,-310 963,-310 963,-329"/>
<text text-anchor="middle" x="876.5" y="-317" font-family="Times,serif" font-size="10.00">.build/windows/lib/hello/hello.a</text>
</g>
<!-- n156&#45;&gt;n151 -->
<g id="edge55" class="edge">
<title>n156&#45;&gt;n151</title>
<path fill="none" stroke="black" d="M923.54,-329.48C951.02,-335.44 985.61,-342.94 1012.08,-348.68"/>
</g>
<!-- n208 -->
<g id="node64" class="node">
<title>n208</title>
<ellipse fill="none" stroke="black" cx="1053.74" cy="-282.5" rx="53.98" ry="13.37"/>
<text text-anchor="middle" x="1053.74" y="-280" font-family="Times,serif" font-size="10.00">ld_windows</text>
</g>
<!-- n156&#45;&gt;n208 -->
<g id="edge75" class="edge">
<title>n156&#45;&gt;n208</title>
<path fill="none" stroke="black" d="M924.46,-309.58C951.63,-303.85 985.5,-296.7 1011.62,-291.18"/>
</g>
<!-- n158 -->
<g id="node50" class="node">
<title>n158</title>
<polygon fill="none" stroke="black" points="960,-291 793,-291 793,-272 960,-272 960,-291"/>
<text text-anchor="middle" x="876.5" y="-279" font-family="Times,serif" font-size="10.00">.build/windows/lib/utils/utils.a</text>
</g>
<!-- n158&#45;&gt;n151 -->
<g id="edge56" class="edge">
<title>n158&#45;&gt;n151</title>
<path fill="none" stroke="black" d="M935.38,-291.49C944.78,-293.92 954.29,-296.9 963,-300.5 990.46,-311.86 1018.87,-331.48 1036.18,-344.47"/>
</g>
<!-- n158&#45;&gt;n208 -->
<g id="edge76" class="edge">
<title>n158&#45;&gt;n208</title>
<path fill="none" stroke="black" d="M946.61,-271.51C958.41,-270.77 970.55,-270.62 982,-271.5 990.8,-272.18 1000.16,-273.33 1009.09,-274.63"/>
</g>
<!-- n160 -->
<g id="node51" class="node">
<title>n160</title>
<polygon fill="none" stroke="black" points="953,-368 800,-368 800,-349 953,-349 953,-368"/>
<text text-anchor="middle" x="876.5" y="-356" font-family="Times,serif" font-size="10.00">.build/arch/windows/arch.a</text>
</g>
<!-- n160&#45;&gt;n151 -->
<g id="edge57" class="edge">
<title>n160&#45;&gt;n151</title>
<path fill="none" stroke="black" d="M946.61,-368.49C958.41,-369.23 970.55,-369.38 982,-368.5 990.8,-367.82 1000.16,-366.67 1009.09,-365.37"/>
</g>
<!-- n160&#45;&gt;n208 -->
<g id="edge77" class="edge">
<title>n160&#45;&gt;n208</title>
<path fill="none" stroke="black" d="M928.97,-348.59C940.39,-345.64 952.28,-341.97 963,-337.5 989.81,-326.31 1017.94,-307.8 1035.4,-295.39"/>
</g>
<!-- n166&#45;&gt;n156 -->
<g id="edge59" class="edge">
<title>n166&#45;&gt;n156</title>
<path fill="none" stroke="black" d="M690.25,-303.78C718.31,-306.16 749.68,-308.82 778.51,-311.27"/>
<polygon fill="black" stroke="black" points="778.08,-314.74 788.34,-312.1 778.67,-307.77 778.08,-314.74"/>
<text text-anchor="middle" x="740" y="-313.5" font-family="Times,serif" font-size="10.00"> ar_windows</text>
</g>
<!-- n172 -->
<g id="node53" class="node">
<title>n172</title>
<ellipse fill="none" stroke="black" cx="603.5" cy="-252.5" rx="54.39" ry="13.37"/>
<text text-anchor="middle" x="603.5" y="-250" font-family="Times,serif" font-size="10.00">ar_windows</text>
</g>
<!-- n172&#45;&gt;n158 -->
<g id="edge61" class="edge">
<title>n172&#45;&gt;n158</title>
<path fill="none" stroke="black" d="M656.27,-256.01C689.41,-258.46 733.29,-262.08 772,-266.5 780.98,-267.52 790.38,-268.72 799.69,-269.98"/>
<polygon fill="black" stroke="black" points="799.1,-273.43 809.48,-271.33 800.05,-266.49 799.1,-273.43"/>
</g>
<!-- n175&#45;&gt;n172 -->
<g id="edge62" class="edge">
<title>n175&#45;&gt;n172</title>
<path fill="none" stroke="black" d="M401.96,-224.48C450.44,-231.26 513.17,-240.02 555.45,-245.93"/>
</g>
<!-- n177&#45;&gt;n172 -->
<g id="edge63" class="edge">
<title>n177&#45;&gt;n172</title>
<path fill="none" stroke="black" d="M413.22,-252.5C457.29,-252.5 510.24,-252.5 548.91,-252.5"/>
</g>
<!-- n186 -->
<g id="node56" class="node">
<title>n186</title>
<ellipse fill="none" stroke="black" cx="603.5" cy="-402.5" rx="54.39" ry="13.37"/>
<text text-anchor="middle" x="603.5" y="-400" font-family="Times,serif" font-size="10.00">ar_windows</text>
</g>
<!-- n186&#45;&gt;n160 -->
<g id="edge66" class="edge">
<title>n186&#45;&gt;n160</title>
<path fill="none" stroke="black" d="M644.17,-393.3C663.38,-389.04 686.82,-384.14 708,-380.5 734.06,-376.03 762.54,-371.97 788.5,-368.6"/>
<polygon fill="black" stroke="black" points="788.87,-372.08 798.35,-367.34 787.98,-365.14 788.87,-372.08"/>
</g>
<!-- n189 -->
<g id="node57" class="node">
<title>n189</title>
<polygon fill="none" stroke="black" points="403.5,-410 255.5,-410 255.5,-391 403.5,-391 403.5,-410"/>
<text text-anchor="middle" x="329.5" y="-398" font-family="Times,serif" font-size="10.00">.build/arch/windows/ask.o</text>
</g>
<!-- n189&#45;&gt;n186 -->
<g id="edge67" class="edge">
<title>n189&#45;&gt;n186</title>
<path fill="none" stroke="black" d="M403.75,-401.04C449.54,-401.38 507.48,-401.8 548.97,-402.11"/>
</g>
<!-- n191 -->
<g id="node58" class="node">
<title>n191</title>
<polygon fill="none" stroke="black" points="417,-497 242,-497 242,-478 417,-478 417,-497"/>
<text text-anchor="middle" x="329.5" y="-485" font-family="Times,serif" font-size="10.00">.build/arch/windows/get_arch.o</text>
</g>
<!-- n191&#45;&gt;n186 -->
<g id="edge68" class="edge">
<title>n191&#45;&gt;n186</title>
<path fill="none" stroke="black" d="M417.15,-489.69C445.49,-486.57 475.66,-478.72 499,-461.5 513.72,-450.64 502.84,-436.07 517,-424.5 527.21,-416.16 540.21,-410.94 552.97,-407.69"/>
</g>
<!-- n193 -->
<g id="node59" class="node">
<title>n193</title>
<polygon fill="none" stroke="black" points="402.5,-460 256.5,-460 256.5,-441 402.5,-441 402.5,-460"/>
<text text-anchor="middle" x="329.5" y="-448" font-family="Times,serif" font-size="10.00">.build/arch/windows/say.o</text>
</g>
<!-- n193&#45;&gt;n186 -->
<g id="edge69" class="edge">
<title>n193&#45;&gt;n186</title>
<path fill="none" stroke="black" d="M402.77,-455.52C433.41,-455.21 468.92,-451.51 499,-439.5 508.67,-435.64 507.73,-429.25 517,-424.5 529.55,-418.07 544.12,-413.42 557.64,-410.1"/>
</g>
<!-- n196 -->
<g id="node60" class="node">
<title>n196</title>
<polygon fill="none" stroke="black" points="128.5,-410 13.5,-410 13.5,-391 128.5,-391 128.5,-410"/>
<text text-anchor="middle" x="71" y="-398" font-family="Times,serif" font-size="10.00">arch/windows/ask.c</text>
</g>
<!-- n196&#45;&gt;n189 -->
<g id="edge70" class="edge">
<title>n196&#45;&gt;n189</title>
<path fill="none" stroke="black" d="M128.93,-400.5C162.63,-400.5 205.98,-400.5 243.65,-400.5"/>
<polygon fill="black" stroke="black" points="243.63,-404 253.63,-400.5 243.63,-397 243.63,-404"/>
<text text-anchor="middle" x="192" y="-403.5" font-family="Times,serif" font-size="10.00"> cc_windows</text>
</g>
<!-- n200 -->
<g id="node61" class="node">
<title>n200</title>
<polygon fill="none" stroke="black" points="142,-497 0,-497 0,-478 142,-478 142,-497"/>
<text text-anchor="middle" x="71" y="-485" font-family="Times,serif" font-size="10.00">arch/windows/get_arch.c</text>
</g>
<!-- n200&#45;&gt;n191 -->
<g id="edge71" class="edge">
<title>n200&#45;&gt;n191</title>
<path fill="none" stroke="black" d="M142.43,-487.5C169.65,-487.5 201.27,-487.5 230.63,-487.5"/>
<polygon fill="black" stroke="black" points="230.25,-491 240.25,-487.5 230.25,-484 230.25,-491"/>
<text text-anchor="middle" x="192" y="-490.5" font-family="Times,serif" font-size="10.00"> cc_windows</text>
</g>
<!-- n204 -->
<g id="node62" class="node">
<title>n204</title>
<polygon fill="none" stroke="black" points="127.5,-460 14.5,-460 14.5,-441 127.5,-441 127.5,-460"/>
<text text-anchor="middle" x="71" y="-448" font-family="Times,serif" font-size="10.00">arch/windows/say.c</text>
</g>
<!-- n204&#45;&gt;n193 -->
<g id="edge72" class="edge">
<title>n204&#45;&gt;n193</title>
<path fill="none" stroke="black" d="M127.97,-450.5C162.18,-450.5 206.58,-450.5 244.91,-450.5"/>
<polygon fill="black" stroke="black" points="244.55,-454 254.55,-450.5 244.55,-447 244.55,-454"/>
<text text-anchor="middle" x="192" y="-453.5" font-family="Times,serif" font-size="10.00"> cc_windows</text>
</g>
<!-- n207 -->
<g id="node63" class="node">
<title>n207</title>
<polygon fill="none" stroke="black" points="1281.48,-292 1156.48,-292 1156.48,-273 1281.48,-273 1281.48,-292"/>
<text text-anchor="middle" x="1218.98" y="-280" font-family="Times,serif" font-size="10.00">.build/windows/bin/hi</text>
</g>
<!-- n208&#45;&gt;n207 -->
<g id="edge73" class="edge">
<title>n208&#45;&gt;n207</title>
<path fill="none" stroke="black" d="M1108.19,-282.5C1119.94,-282.5 1132.57,-282.5 1144.94,-282.5"/>
<polygon fill="black" stroke="black" points="1144.68,-286 1154.68,-282.5 1144.68,-279 1144.68,-286"/>
</g>
<!-- n211&#45;&gt;n208 -->
<g id="edge74" class="edge">
<title>n211&#45;&gt;n208</title>
<path fill="none" stroke="black" d="M925.45,-254.49C937.7,-257.07 950.84,-259.87 963,-262.5 979.22,-266.02 997.08,-269.98 1012.56,-273.44"/>
</g>
<!-- n222 -->
<g id="node66" class="node">
<title>n222</title>
<polygon fill="none" stroke="black" points="374,-666 285,-666 285,-647 374,-647 374,-666"/>
<text text-anchor="middle" x="329.5" y="-654" font-family="Times,serif" font-size="10.00">doc/graph.svg</text>
</g>
<!-- n223 -->
<g id="node67" class="node">
<title>n223</title>
<polygon fill="none" stroke="black" points="106.5,-666 35.5,-666 35.5,-647 106.5,-647 106.5,-666"/>
<text text-anchor="middle" x="71" y="-654" font-family="Times,serif" font-size="10.00">build.ninja</text>
</g>
<!-- n223&#45;&gt;n222 -->
<g id="edge79" class="edge">
<title>n223&#45;&gt;n222</title>
<path fill="none" stroke="black" d="M106.86,-656.5C149.68,-656.5 222.85,-656.5 273.34,-656.5"/>
<polygon fill="black" stroke="black" points="273.19,-660 283.19,-656.5 273.19,-653 273.19,-660"/>
<text text-anchor="middle" x="192" y="-659.5" font-family="Times,serif" font-size="10.00"> graph</text>
</g>
</g>
</svg>
