<?xml version="1.0" encoding="UTF-8" standalone="no"?>
<!DOCTYPE svg PUBLIC "-//W3C//DTD SVG 1.1//EN"
 "http://www.w3.org/Graphics/SVG/1.1/DTD/svg11.dtd">
<svg width="1786pt" height="1335pt"
 viewBox="0.00 0.00 1786.25 1334.75" xmlns="http://www.w3.org/2000/svg" xmlns:xlink="http://www.w3.org/1999/xlink">
<g id="graph0" class="graph" transform="scale(1 1) rotate(0) translate(4 1330.75)">
<polygon fill="white" stroke="none" points="-4,4 -4,-1330.75 1782.25,-1330.75 1782.25,4 -4,4"/>
<g id="node1" class="node">
<polygon fill="none" stroke="black" points="477.12,-215.75 263.12,-215.75 263.12,-195 477.12,-195 477.12,-215.75"/>
<text text-anchor="middle" x="370.12" y="-202.25" font-family="Times,serif" font-size="10.00">.build/clang&#45;tidy/arch/linux/ask.c.check</text>
</g>
<g id="node2" class="node">
<polygon fill="none" stroke="black" points="118.38,-196.75 22.88,-196.75 22.88,-176 118.38,-176 118.38,-196.75"/>
<text text-anchor="middle" x="70.62" y="-183.25" font-family="Times,serif" font-size="10.00">arch/linux/ask.c</text>
</g>
<g id="edge1" class="edge">
<path fill="none" stroke="black" d="M118.76,-189.39C154.56,-191.67 205.4,-194.92 251.92,-197.89"/>
<polygon fill="black" stroke="black" points="251.5,-201.43 261.7,-198.58 251.94,-194.45 251.5,-201.43"/>
<text text-anchor="middle" x="190.75" y="-199.62" font-family="Times,serif" font-size="10.00"> clang&#45;tidy</text>
</g>
<g id="node44" class="node">
<polygon fill="none" stroke="black" points="434.38,-176.75 305.88,-176.75 305.88,-156 434.38,-156 434.38,-176.75"/>
<text text-anchor="middle" x="370.12" y="-163.25" font-family="Times,serif" font-size="10.00">.build/arch/linux/ask.o</text>
</g>
<g id="edge36" class="edge">
<path fill="none" stroke="black" d="M118.85,-179.9C131.92,-178.29 146.11,-176.72 159.25,-175.62 204.2,-171.88 254.69,-169.6 294.89,-168.24"/>
<polygon fill="black" stroke="black" points="294.79,-171.71 304.67,-167.88 294.56,-164.71 294.79,-171.71"/>
<text text-anchor="middle" x="190.75" y="-179.62" font-family="Times,serif" font-size="10.00"> cc_linux</text>
</g>
<g id="node3" class="node">
<polygon fill="none" stroke="black" points="490.62,-98.75 249.62,-98.75 249.62,-78 490.62,-78 490.62,-98.75"/>
<text text-anchor="middle" x="370.12" y="-85.25" font-family="Times,serif" font-size="10.00">.build/clang&#45;tidy/arch/linux/get_arch.c.check</text>
</g>
<g id="node4" class="node">
<polygon fill="none" stroke="black" points="131.88,-117.75 9.38,-117.75 9.38,-97 131.88,-97 131.88,-117.75"/>
<text text-anchor="middle" x="70.62" y="-104.25" font-family="Times,serif" font-size="10.00">arch/linux/get_arch.c</text>
</g>
<g id="edge2" class="edge">
<path fill="none" stroke="black" d="M120.07,-96.52C132.75,-94.12 146.46,-91.91 159.25,-90.62 184.82,-88.06 212.24,-86.74 238.53,-86.17"/>
<polygon fill="black" stroke="black" points="238.4,-89.66 248.33,-85.98 238.27,-82.66 238.4,-89.66"/>
<text text-anchor="middle" x="190.75" y="-94.62" font-family="Times,serif" font-size="10.00"> clang&#45;tidy</text>
</g>
<g id="node45" class="node">
<polygon fill="none" stroke="black" points="447.88,-137.75 292.38,-137.75 292.38,-117 447.88,-117 447.88,-137.75"/>
<text text-anchor="middle" x="370.12" y="-124.25" font-family="Times,serif" font-size="10.00">.build/arch/linux/get_arch.o</text>
</g>
<g id="edge37" class="edge">
<path fill="none" stroke="black" d="M132.19,-111.45C175.07,-114.33 233.26,-118.24 281.23,-121.47"/>
<polygon fill="black" stroke="black" points="280.72,-125.01 290.93,-122.19 281.19,-118.02 280.72,-125.01"/>
<text text-anchor="middle" x="190.75" y="-120.62" font-family="Times,serif" font-size="10.00"> cc_linux</text>
</g>
<g id="node5" class="node">
<polygon fill="none" stroke="black" points="476.38,-20.75 263.88,-20.75 263.88,0 476.38,0 476.38,-20.75"/>
<text text-anchor="middle" x="370.12" y="-7.25" font-family="Times,serif" font-size="10.00">.build/clang&#45;tidy/arch/linux/say.c.check</text>
</g>
<g id="node6" class="node">
<polygon fill="none" stroke="black" points="117.62,-39.75 23.62,-39.75 23.62,-19 117.62,-19 117.62,-39.75"/>
<text text-anchor="middle" x="70.62" y="-26.25" font-family="Times,serif" font-size="10.00">arch/linux/say.c</text>
</g>
<g id="edge3" class="edge">
<path fill="none" stroke="black" d="M117.81,-19.62C131.13,-17.21 145.71,-14.94 159.25,-13.62 189.51,-10.69 222.33,-9.32 252.83,-8.81"/>
<polygon fill="black" stroke="black" points="252.56,-12.31 262.51,-8.67 252.47,-5.31 252.56,-12.31"/>
<text text-anchor="middle" x="190.75" y="-17.62" font-family="Times,serif" font-size="10.00"> clang&#45;tidy</text>
</g>
<g id="node46" class="node">
<polygon fill="none" stroke="black" points="433.62,-59.75 306.62,-59.75 306.62,-39 433.62,-39 433.62,-59.75"/>
<text text-anchor="middle" x="370.12" y="-46.25" font-family="Times,serif" font-size="10.00">.build/arch/linux/say.o</text>
</g>
<g id="edge38" class="edge">
<path fill="none" stroke="black" d="M118.11,-32.5C165.6,-35.69 240.06,-40.7 295.56,-44.43"/>
<polygon fill="black" stroke="black" points="295.18,-47.98 305.4,-45.16 295.65,-40.99 295.18,-47.98"/>
<text text-anchor="middle" x="190.75" y="-42.62" font-family="Times,serif" font-size="10.00"> cc_linux</text>
</g>
<g id="node7" class="node">
<polygon fill="none" stroke="black" points="480.5,-410.75 259.75,-410.75 259.75,-390 480.5,-390 480.5,-410.75"/>
<text text-anchor="middle" x="370.12" y="-397.25" font-family="Times,serif" font-size="10.00">.build/clang&#45;tidy/arch/macos/ask.c.check</text>
</g>
<g id="node8" class="node">
<polygon fill="none" stroke="black" points="121.75,-429.75 19.5,-429.75 19.5,-409 121.75,-409 121.75,-429.75"/>
<text text-anchor="middle" x="70.62" y="-416.25" font-family="Times,serif" font-size="10.00">arch/macos/ask.c</text>
</g>
<g id="edge4" class="edge">
<path fill="none" stroke="black" d="M121.94,-408.89C134.1,-406.75 147.1,-404.8 159.25,-403.62 188.16,-400.82 219.42,-399.45 248.75,-398.89"/>
<polygon fill="black" stroke="black" points="248.52,-402.38 258.47,-398.72 248.41,-395.38 248.52,-402.38"/>
<text text-anchor="middle" x="190.75" y="-407.62" font-family="Times,serif" font-size="10.00"> clang&#45;tidy</text>
</g>
<g id="node64" class="node">
<polygon fill="none" stroke="black" points="437.75,-449.75 302.5,-449.75 302.5,-429 437.75,-429 437.75,-449.75"/>
<text text-anchor="middle" x="370.12" y="-436.25" font-family="Times,serif" font-size="10.00">.build/arch/macos/ask.o</text>
</g>
<g id="edge64" class="edge">
<path fill="none" stroke="black" d="M122.09,-422.77C168.46,-425.89 237.9,-430.55 291.36,-434.15"/>
<polygon fill="black" stroke="black" points="290.96,-437.7 301.17,-434.87 291.43,-430.71 290.96,-437.7"/>
<text text-anchor="middle" x="190.75" y="-432.62" font-family="Times,serif" font-size="10.00"> cc_macos</text>
</g>
<g id="node9" class="node">
<polygon fill="none" stroke="black" points="494,-332.75 246.25,-332.75 246.25,-312 494,-312 494,-332.75"/>
<text text-anchor="middle" x="370.12" y="-319.25" font-family="Times,serif" font-size="10.00">.build/clang&#45;tidy/arch/macos/get_arch.c.check</text>
</g>
<g id="node10" class="node">
<polygon fill="none" stroke="black" points="135.25,-351.75 6,-351.75 6,-331 135.25,-331 135.25,-351.75"/>
<text text-anchor="middle" x="70.62" y="-338.25" font-family="Times,serif" font-size="10.00">arch/macos/get_arch.c</text>
</g>
<g id="edge5" class="edge">
<path fill="none" stroke="black" d="M123.79,-330.57C135.41,-328.56 147.71,-326.74 159.25,-325.62 183.69,-323.26 209.8,-321.91 235.01,-321.21"/>
<polygon fill="black" stroke="black" points="234.84,-324.69 244.75,-320.95 234.67,-317.69 234.84,-324.69"/>
<text text-anchor="middle" x="190.75" y="-329.62" font-family="Times,serif" font-size="10.00"> clang&#45;tidy</text>
</g>
<g id="node65" class="node">
<polygon fill="none" stroke="black" points="451.25,-371.75 289,-371.75 289,-351 451.25,-351 451.25,-371.75"/>
<text text-anchor="middle" x="370.12" y="-358.25" font-family="Times,serif" font-size="10.00">.build/arch/macos/get_arch.o</text>
</g>
<g id="edge65" class="edge">
<path fill="none" stroke="black" d="M135.45,-345.67C176.94,-348.45 231.69,-352.14 277.76,-355.23"/>
<polygon fill="black" stroke="black" points="277.45,-358.79 287.66,-355.97 277.92,-351.8 277.45,-358.79"/>
<text text-anchor="middle" x="190.75" y="-354.62" font-family="Times,serif" font-size="10.00"> cc_macos</text>
</g>
<g id="node11" class="node">
<polygon fill="none" stroke="black" points="479.75,-254.75 260.5,-254.75 260.5,-234 479.75,-234 479.75,-254.75"/>
<text text-anchor="middle" x="370.12" y="-241.25" font-family="Times,serif" font-size="10.00">.build/clang&#45;tidy/arch/macos/say.c.check</text>
</g>
<g id="node12" class="node">
<polygon fill="none" stroke="black" points="121,-273.75 20.25,-273.75 20.25,-253 121,-253 121,-273.75"/>
<text text-anchor="middle" x="70.62" y="-260.25" font-family="Times,serif" font-size="10.00">arch/macos/say.c</text>
</g>
<g id="edge6" class="edge">
<path fill="none" stroke="black" d="M121.48,-252.97C133.77,-250.8 146.94,-248.82 159.25,-247.62 188.32,-244.81 219.77,-243.43 249.24,-242.88"/>
<polygon fill="black" stroke="black" points="249.06,-246.37 259.01,-242.71 248.95,-239.37 249.06,-246.37"/>
<text text-anchor="middle" x="190.75" y="-251.62" font-family="Times,serif" font-size="10.00"> clang&#45;tidy</text>
</g>
<g id="node66" class="node">
<polygon fill="none" stroke="black" points="437,-293.75 303.25,-293.75 303.25,-273 437,-273 437,-293.75"/>
<text text-anchor="middle" x="370.12" y="-280.25" font-family="Times,serif" font-size="10.00">.build/arch/macos/say.o</text>
</g>
<g id="edge66" class="edge">
<path fill="none" stroke="black" d="M121.42,-266.72C168,-269.85 238.27,-274.58 292.09,-278.2"/>
<polygon fill="black" stroke="black" points="291.75,-281.75 301.96,-278.93 292.22,-274.76 291.75,-281.75"/>
<text text-anchor="middle" x="190.75" y="-276.62" font-family="Times,serif" font-size="10.00"> cc_macos</text>
</g>
<g id="node13" class="node">
<polygon fill="none" stroke="black" points="486.5,-1151.75 253.75,-1151.75 253.75,-1131 486.5,-1131 486.5,-1151.75"/>
<text text-anchor="middle" x="370.12" y="-1138.25" font-family="Times,serif" font-size="10.00">.build/clang&#45;tidy/arch/windows/ask.c.check</text>
</g>
<g id="node14" class="node">
<polygon fill="none" stroke="black" points="127.75,-1132.75 13.5,-1132.75 13.5,-1112 127.75,-1112 127.75,-1132.75"/>
<text text-anchor="middle" x="70.62" y="-1119.25" font-family="Times,serif" font-size="10.00">arch/windows/ask.c</text>
</g>
<g id="edge7" class="edge">
<path fill="none" stroke="black" d="M127.93,-1125.97C160.34,-1128.04 202.44,-1130.73 242.38,-1133.28"/>
<polygon fill="black" stroke="black" points="242.09,-1136.83 252.3,-1133.98 242.54,-1129.85 242.09,-1136.83"/>
<text text-anchor="middle" x="190.75" y="-1135.62" font-family="Times,serif" font-size="10.00"> clang&#45;tidy</text>
</g>
<g id="node83" class="node">
<polygon fill="none" stroke="black" points="443.75,-1112.75 296.5,-1112.75 296.5,-1092 443.75,-1092 443.75,-1112.75"/>
<text text-anchor="middle" x="370.12" y="-1099.25" font-family="Times,serif" font-size="10.00">.build/arch/windows/ask.o</text>
</g>
<g id="edge92" class="edge">
<path fill="none" stroke="black" d="M128.12,-1114.79C138.46,-1113.59 149.17,-1112.46 159.25,-1111.62 200.78,-1108.17 247.04,-1105.95 285.55,-1104.56"/>
<polygon fill="black" stroke="black" points="285.32,-1108.04 295.19,-1104.19 285.07,-1101.04 285.32,-1108.04"/>
<text text-anchor="middle" x="190.75" y="-1115.62" font-family="Times,serif" font-size="10.00"> cc_windows</text>
</g>
<g id="node15" class="node">
<polygon fill="none" stroke="black" points="500,-800.75 240.25,-800.75 240.25,-780 500,-780 500,-800.75"/>
<text text-anchor="middle" x="370.12" y="-787.25" font-family="Times,serif" font-size="10.00">.build/clang&#45;tidy/arch/windows/get_arch.c.check</text>
</g>
<g id="node16" class="node">
<polygon fill="none" stroke="black" points="141.25,-818.75 0,-818.75 0,-798 141.25,-798 141.25,-818.75"/>
<text text-anchor="middle" x="70.62" y="-805.25" font-family="Times,serif" font-size="10.00">arch/windows/get_arch.c</text>
</g>
<g id="edge8" class="edge">
<path fill="none" stroke="black" d="M128.5,-797.52C138.7,-795.94 149.26,-794.54 159.25,-793.62 181.83,-791.56 205.83,-790.31 229.23,-789.6"/>
<polygon fill="black" stroke="black" points="229.03,-793.08 238.93,-789.3 228.84,-786.08 229.03,-793.08"/>
<text text-anchor="middle" x="190.75" y="-797.62" font-family="Times,serif" font-size="10.00"> clang&#45;tidy</text>
</g>
<g id="node84" class="node">
<polygon fill="none" stroke="black" points="457.25,-839.75 283,-839.75 283,-819 457.25,-819 457.25,-839.75"/>
<text text-anchor="middle" x="370.12" y="-826.25" font-family="Times,serif" font-size="10.00">.build/arch/windows/get_arch.o</text>
</g>
<g id="edge93" class="edge">
<path fill="none" stroke="black" d="M141.38,-813.3C180.16,-816.04 229.04,-819.49 271.57,-822.49"/>
<polygon fill="black" stroke="black" points="271.3,-826.05 281.52,-823.26 271.79,-819.07 271.3,-826.05"/>
<text text-anchor="middle" x="190.75" y="-822.62" font-family="Times,serif" font-size="10.00"> cc_windows</text>
</g>
<g id="node17" class="node">
<polygon fill="none" stroke="black" points="485.75,-683.75 254.5,-683.75 254.5,-663 485.75,-663 485.75,-683.75"/>
<text text-anchor="middle" x="370.12" y="-670.25" font-family="Times,serif" font-size="10.00">.build/clang&#45;tidy/arch/windows/say.c.check</text>
</g>
<g id="node18" class="node">
<polygon fill="none" stroke="black" points="127,-740.75 14.25,-740.75 14.25,-720 127,-720 127,-740.75"/>
<text text-anchor="middle" x="70.62" y="-727.25" font-family="Times,serif" font-size="10.00">arch/windows/say.c</text>
</g>
<g id="edge9" class="edge">
<path fill="none" stroke="black" d="M84.22,-719.58C100.35,-706.51 129.77,-685.19 159.25,-676.62 185.93,-668.87 215.34,-665.45 243.49,-664.46"/>
<polygon fill="black" stroke="black" points="243.29,-667.94 253.2,-664.2 243.12,-660.95 243.29,-667.94"/>
<text text-anchor="middle" x="190.75" y="-680.62" font-family="Times,serif" font-size="10.00"> clang&#45;tidy</text>
</g>
<g id="node85" class="node">
<polygon fill="none" stroke="black" points="443,-761.75 297.25,-761.75 297.25,-741 443,-741 443,-761.75"/>
<text text-anchor="middle" x="370.12" y="-748.25" font-family="Times,serif" font-size="10.00">.build/arch/windows/say.o</text>
</g>
<g id="edge94" class="edge">
<path fill="none" stroke="black" d="M127.23,-734.3C171.89,-737.45 235.28,-741.93 285.97,-745.51"/>
<polygon fill="black" stroke="black" points="285.69,-749.06 295.91,-746.28 286.18,-742.08 285.69,-749.06"/>
<text text-anchor="middle" x="190.75" y="-744.62" font-family="Times,serif" font-size="10.00"> cc_windows</text>
</g>
<g id="node19" class="node">
<polygon fill="none" stroke="black" points="847.88,-1151.75 608.38,-1151.75 608.38,-1131 847.88,-1131 847.88,-1151.75"/>
<text text-anchor="middle" x="728.12" y="-1138.25" font-family="Times,serif" font-size="10.00">.build/clang&#45;tidy/linux/lib/hello/hello.c.check</text>
</g>
<g id="node20" class="node">
<polygon fill="none" stroke="black" points="416.38,-1190.75 323.88,-1190.75 323.88,-1170 416.38,-1170 416.38,-1190.75"/>
<text text-anchor="middle" x="370.12" y="-1177.25" font-family="Times,serif" font-size="10.00">lib/hello/hello.c</text>
</g>
<g id="edge10" class="edge">
<path fill="none" stroke="black" d="M416.76,-1175.08C445.75,-1171.74 484.07,-1167.36 518,-1163.62 548.76,-1160.23 582.07,-1156.65 612.88,-1153.37"/>
<polygon fill="black" stroke="black" points="613.09,-1156.76 622.66,-1152.23 612.35,-1149.8 613.09,-1156.76"/>
<text text-anchor="middle" x="549.5" y="-1167.62" font-family="Times,serif" font-size="10.00"> clang&#45;tidy</text>
</g>
<g id="node25" class="node">
<polygon fill="none" stroke="black" points="851.25,-1112.75 605,-1112.75 605,-1092 851.25,-1092 851.25,-1112.75"/>
<text text-anchor="middle" x="728.12" y="-1099.25" font-family="Times,serif" font-size="10.00">.build/clang&#45;tidy/macos/lib/hello/hello.c.check</text>
</g>
<g id="edge13" class="edge">
<path fill="none" stroke="black" d="M416.58,-1180.39C442.32,-1178.72 474.39,-1173.7 500,-1160.38 510.25,-1155.04 507.97,-1147.36 518,-1141.62 550.12,-1123.25 562.69,-1129.51 599,-1122.38 612.38,-1119.75 626.6,-1117.24 640.51,-1114.95"/>
<polygon fill="black" stroke="black" points="640.76,-1118.29 650.07,-1113.24 639.64,-1111.38 640.76,-1118.29"/>
<text text-anchor="middle" x="549.5" y="-1145.62" font-family="Times,serif" font-size="10.00"> clang&#45;tidy</text>
</g>
<g id="node28" class="node">
<polygon fill="none" stroke="black" points="857.25,-1229.75 599,-1229.75 599,-1209 857.25,-1209 857.25,-1229.75"/>
<text text-anchor="middle" x="728.12" y="-1216.25" font-family="Times,serif" font-size="10.00">.build/clang&#45;tidy/windows/lib/hello/hello.c.check</text>
</g>
<g id="edge16" class="edge">
<path fill="none" stroke="black" d="M416.76,-1185.78C445.75,-1189.18 484.07,-1193.63 518,-1197.38 548.19,-1200.71 580.84,-1204.2 611.17,-1207.39"/>
<polygon fill="black" stroke="black" points="610.48,-1210.95 620.79,-1208.51 611.21,-1203.98 610.48,-1210.95"/>
<text text-anchor="middle" x="549.5" y="-1207.62" font-family="Times,serif" font-size="10.00"> clang&#45;tidy</text>
</g>
<g id="node39" class="node">
<polygon fill="none" stroke="black" points="805.12,-936.75 651.12,-936.75 651.12,-916 805.12,-916 805.12,-936.75"/>
<text text-anchor="middle" x="728.12" y="-923.25" font-family="Times,serif" font-size="10.00">.build/linux/lib/hello/hello.o</text>
</g>
<g id="edge26" class="edge">
<path fill="none" stroke="black" d="M416.6,-1185.88C444.5,-1186.56 478.82,-1182.09 500,-1160.38 543.42,-1115.86 482.21,-1072.47 518,-1021.62 536.11,-995.9 558.47,-1011.32 581,-989.38 592.97,-977.72 585.71,-966.5 599,-956.38 611.11,-947.15 625.6,-940.7 640.4,-936.2"/>
<polygon fill="black" stroke="black" points="640.95,-939.4 649.67,-933.39 639.1,-932.65 640.95,-939.4"/>
<text text-anchor="middle" x="549.5" y="-1025.62" font-family="Times,serif" font-size="10.00"> cc_linux</text>
</g>
<g id="node59" class="node">
<polygon fill="none" stroke="black" points="808.5,-985.75 647.75,-985.75 647.75,-965 808.5,-965 808.5,-985.75"/>
<text text-anchor="middle" x="728.12" y="-972.25" font-family="Times,serif" font-size="10.00">.build/macos/lib/hello/hello.o</text>
</g>
<g id="edge54" class="edge">
<path fill="none" stroke="black" d="M416.69,-1184.31C443.75,-1184.2 477.13,-1179.44 500,-1160.38 518.7,-1144.78 505.63,-1129.6 518,-1108.62 539.31,-1072.5 557.78,-1073.3 581,-1038.38 591.35,-1022.81 584.24,-1011.84 599,-1000.38 610.05,-991.79 623.23,-985.89 636.86,-981.88"/>
<polygon fill="black" stroke="black" points="637.54,-985.06 646.35,-979.17 635.79,-978.28 637.54,-985.06"/>
<text text-anchor="middle" x="549.5" y="-1112.62" font-family="Times,serif" font-size="10.00"> cc_macos</text>
</g>
<g id="node78" class="node">
<polygon fill="none" stroke="black" points="814.5,-1190.75 641.75,-1190.75 641.75,-1170 814.5,-1170 814.5,-1190.75"/>
<text text-anchor="middle" x="728.12" y="-1177.25" font-family="Times,serif" font-size="10.00">.build/windows/lib/hello/hello.o</text>
</g>
<g id="edge82" class="edge">
<path fill="none" stroke="black" d="M416.57,-1180.38C470.22,-1180.38 560.92,-1180.38 630.49,-1180.38"/>
<polygon fill="black" stroke="black" points="630.47,-1183.88 640.47,-1180.38 630.47,-1176.88 630.47,-1183.88"/>
<text text-anchor="middle" x="549.5" y="-1183.62" font-family="Times,serif" font-size="10.00"> cc_windows</text>
</g>
<g id="node21" class="node">
<polygon fill="none" stroke="black" points="482.75,-1073.75 257.5,-1073.75 257.5,-1053 482.75,-1053 482.75,-1073.75"/>
<text text-anchor="middle" x="370.12" y="-1060.25" font-family="Times,serif" font-size="10.00">.build/clang&#45;tidy/linux/lib/utils/fib.c.check</text>
</g>
<g id="node22" class="node">
<polygon fill="none" stroke="black" points="109.75,-976.75 31.5,-976.75 31.5,-956 109.75,-956 109.75,-976.75"/>
<text text-anchor="middle" x="70.62" y="-963.25" font-family="Times,serif" font-size="10.00">lib/utils/fib.c</text>
</g>
<g id="edge11" class="edge">
<path fill="none" stroke="black" d="M85.07,-977.19C101.59,-989.99 130.95,-1011.09 159.25,-1023.38 188.37,-1036.01 221.47,-1044.67 252.64,-1050.6"/>
<polygon fill="black" stroke="black" points="251.67,-1054.16 262.13,-1052.5 252.92,-1047.27 251.67,-1054.16"/>
<text text-anchor="middle" x="190.75" y="-1047.62" font-family="Times,serif" font-size="10.00"> clang&#45;tidy</text>
</g>
<g id="node26" class="node">
<polygon fill="none" stroke="black" points="486.12,-1034.75 254.12,-1034.75 254.12,-1014 486.12,-1014 486.12,-1034.75"/>
<text text-anchor="middle" x="370.12" y="-1021.25" font-family="Times,serif" font-size="10.00">.build/clang&#45;tidy/macos/lib/utils/fib.c.check</text>
</g>
<g id="edge14" class="edge">
<path fill="none" stroke="black" d="M102.54,-977.16C119.18,-982.65 140.15,-989.05 159.25,-993.38 192.96,-1001.01 230.16,-1007.22 263.76,-1012.01"/>
<polygon fill="black" stroke="black" points="263.14,-1015.6 273.53,-1013.52 264.11,-1008.67 263.14,-1015.6"/>
<text text-anchor="middle" x="190.75" y="-1009.62" font-family="Times,serif" font-size="10.00"> clang&#45;tidy</text>
</g>
<g id="node29" class="node">
<polygon fill="none" stroke="black" points="492.12,-995.75 248.12,-995.75 248.12,-975 492.12,-975 492.12,-995.75"/>
<text text-anchor="middle" x="370.12" y="-982.25" font-family="Times,serif" font-size="10.00">.build/clang&#45;tidy/windows/lib/utils/fib.c.check</text>
</g>
<g id="edge17" class="edge">
<path fill="none" stroke="black" d="M110.21,-968.84C142.67,-970.91 191.04,-974 237.21,-976.95"/>
<polygon fill="black" stroke="black" points="236.75,-980.49 246.95,-977.64 237.2,-973.51 236.75,-980.49"/>
<text text-anchor="middle" x="190.75" y="-979.62" font-family="Times,serif" font-size="10.00"> clang&#45;tidy</text>
</g>
<g id="node41" class="node">
<polygon fill="none" stroke="black" points="440,-878.75 300.25,-878.75 300.25,-858 440,-858 440,-878.75"/>
<text text-anchor="middle" x="370.12" y="-865.25" font-family="Times,serif" font-size="10.00">.build/linux/lib/utils/fib.o</text>
</g>
<g id="edge30" class="edge">
<path fill="none" stroke="black" d="M84.07,-955.61C100.29,-942.15 130.04,-919.32 159.25,-906.62 200.16,-888.84 249.04,-879.32 289.33,-874.23"/>
<polygon fill="black" stroke="black" points="289.67,-877.6 299.18,-872.94 288.84,-870.65 289.67,-877.6"/>
<text text-anchor="middle" x="190.75" y="-910.62" font-family="Times,serif" font-size="10.00"> cc_linux</text>
</g>
<g id="node61" class="node">
<polygon fill="none" stroke="black" points="443.38,-917.75 296.88,-917.75 296.88,-897 443.38,-897 443.38,-917.75"/>
<text text-anchor="middle" x="370.12" y="-904.25" font-family="Times,serif" font-size="10.00">.build/macos/lib/utils/fib.o</text>
</g>
<g id="edge58" class="edge">
<path fill="none" stroke="black" d="M98.05,-955.52C115.22,-948.86 138.24,-940.67 159.25,-935.62 200.42,-925.74 247.03,-919.03 285.84,-914.64"/>
<polygon fill="black" stroke="black" points="286.02,-918.03 295.58,-913.46 285.25,-911.08 286.02,-918.03"/>
<text text-anchor="middle" x="190.75" y="-939.62" font-family="Times,serif" font-size="10.00"> cc_macos</text>
</g>
<g id="node80" class="node">
<polygon fill="none" stroke="black" points="449.38,-956.75 290.88,-956.75 290.88,-936 449.38,-936 449.38,-956.75"/>
<text text-anchor="middle" x="370.12" y="-943.25" font-family="Times,serif" font-size="10.00">.build/windows/lib/utils/fib.o</text>
</g>
<g id="edge86" class="edge">
<path fill="none" stroke="black" d="M109.95,-961.02C125.25,-959.05 143.06,-956.97 159.25,-955.62 198.78,-952.33 242.61,-950.17 279.94,-948.77"/>
<polygon fill="black" stroke="black" points="279.93,-952.24 289.8,-948.38 279.68,-945.24 279.93,-952.24"/>
<text text-anchor="middle" x="190.75" y="-959.62" font-family="Times,serif" font-size="10.00"> cc_windows</text>
</g>
<g id="node23" class="node">
<polygon fill="none" stroke="black" points="486.88,-605.75 253.38,-605.75 253.38,-585 486.88,-585 486.88,-605.75"/>
<text text-anchor="middle" x="370.12" y="-592.25" font-family="Times,serif" font-size="10.00">.build/clang&#45;tidy/linux/lib/utils/utils.c.check</text>
</g>
<g id="node24" class="node">
<polygon fill="none" stroke="black" points="113.88,-585.75 27.38,-585.75 27.38,-565 113.88,-565 113.88,-585.75"/>
<text text-anchor="middle" x="70.62" y="-572.25" font-family="Times,serif" font-size="10.00">lib/utils/utils.c</text>
</g>
<g id="edge12" class="edge">
<path fill="none" stroke="black" d="M114.25,-578.24C147.79,-580.5 196.35,-583.76 242.11,-586.84"/>
<polygon fill="black" stroke="black" points="241.84,-590.39 252.05,-587.57 242.31,-583.41 241.84,-590.39"/>
<text text-anchor="middle" x="190.75" y="-588.62" font-family="Times,serif" font-size="10.00"> clang&#45;tidy</text>
</g>
<g id="node27" class="node">
<polygon fill="none" stroke="black" points="490.25,-566.75 250,-566.75 250,-546 490.25,-546 490.25,-566.75"/>
<text text-anchor="middle" x="370.12" y="-553.25" font-family="Times,serif" font-size="10.00">.build/clang&#45;tidy/macos/lib/utils/utils.c.check</text>
</g>
<g id="edge15" class="edge">
<path fill="none" stroke="black" d="M114.25,-566.91C128.5,-564.43 144.51,-562.01 159.25,-560.62 184.92,-558.22 212.44,-556.82 238.81,-556.05"/>
<polygon fill="black" stroke="black" points="238.73,-559.53 248.64,-555.77 238.55,-552.53 238.73,-559.53"/>
<text text-anchor="middle" x="190.75" y="-564.62" font-family="Times,serif" font-size="10.00"> clang&#45;tidy</text>
</g>
<g id="node30" class="node">
<polygon fill="none" stroke="black" points="496.25,-644.75 244,-644.75 244,-624 496.25,-624 496.25,-644.75"/>
<text text-anchor="middle" x="370.12" y="-631.25" font-family="Times,serif" font-size="10.00">.build/clang&#45;tidy/windows/lib/utils/utils.c.check</text>
</g>
<g id="edge18" class="edge">
<path fill="none" stroke="black" d="M102.55,-586.13C119.19,-591.6 140.16,-598 159.25,-602.38 194.33,-610.41 233.19,-616.97 267.83,-622.01"/>
<polygon fill="black" stroke="black" points="267.05,-625.58 277.44,-623.53 268.04,-618.65 267.05,-625.58"/>
<text text-anchor="middle" x="190.75" y="-618.62" font-family="Times,serif" font-size="10.00"> clang&#45;tidy</text>
</g>
<g id="node42" class="node">
<polygon fill="none" stroke="black" points="444.12,-488.75 296.12,-488.75 296.12,-468 444.12,-468 444.12,-488.75"/>
<text text-anchor="middle" x="370.12" y="-475.25" font-family="Times,serif" font-size="10.00">.build/linux/lib/utils/utils.o</text>
</g>
<g id="edge31" class="edge">
<path fill="none" stroke="black" d="M83.05,-564.56C98.86,-550.26 128.89,-525.38 159.25,-512.62 198.76,-496.02 245.59,-487.43 284.98,-483.01"/>
<polygon fill="black" stroke="black" points="285.3,-486.39 294.89,-481.86 284.58,-479.43 285.3,-486.39"/>
<text text-anchor="middle" x="190.75" y="-516.62" font-family="Times,serif" font-size="10.00"> cc_linux</text>
</g>
<g id="node62" class="node">
<polygon fill="none" stroke="black" points="447.5,-527.75 292.75,-527.75 292.75,-507 447.5,-507 447.5,-527.75"/>
<text text-anchor="middle" x="370.12" y="-514.25" font-family="Times,serif" font-size="10.00">.build/macos/lib/utils/utils.o</text>
</g>
<g id="edge59" class="edge">
<path fill="none" stroke="black" d="M94.13,-564.51C111.52,-556.6 136.38,-546.32 159.25,-540.62 198.92,-530.75 243.85,-525.07 281.94,-521.8"/>
<polygon fill="black" stroke="black" points="281.81,-525.24 291.49,-520.94 281.24,-518.26 281.81,-525.24"/>
<text text-anchor="middle" x="190.75" y="-544.62" font-family="Times,serif" font-size="10.00"> cc_macos</text>
</g>
<g id="node81" class="node">
<polygon fill="none" stroke="black" points="453.5,-722.75 286.75,-722.75 286.75,-702 453.5,-702 453.5,-722.75"/>
<text text-anchor="middle" x="370.12" y="-709.25" font-family="Times,serif" font-size="10.00">.build/windows/lib/utils/utils.o</text>
</g>
<g id="edge87" class="edge">
<path fill="none" stroke="black" d="M76.28,-586.19C87.02,-609.65 115.95,-665.02 159.25,-689.38 194.15,-709 237.47,-716.07 275.68,-717.72"/>
<polygon fill="black" stroke="black" points="275.21,-721.23 285.31,-718.04 275.43,-714.24 275.21,-721.23"/>
<text text-anchor="middle" x="190.75" y="-714.62" font-family="Times,serif" font-size="10.00"> cc_windows</text>
</g>
<g id="node31" class="node">
<polygon fill="none" stroke="black" points="1190.12,-503.75 965.62,-503.75 965.62,-483 1190.12,-483 1190.12,-503.75"/>
<text text-anchor="middle" x="1077.88" y="-490.25" font-family="Times,serif" font-size="10.00">.build/clang&#45;tidy/linux/bin/hi&#45;repl.c.check</text>
</g>
<g id="node32" class="node">
<polygon fill="none" stroke="black" points="766.88,-418.75 689.38,-418.75 689.38,-398 766.88,-398 766.88,-418.75"/>
<text text-anchor="middle" x="728.12" y="-405.25" font-family="Times,serif" font-size="10.00">bin/hi&#45;repl.c</text>
</g>
<g id="edge19" class="edge">
<path fill="none" stroke="black" d="M767.13,-405.89C794.32,-405.94 830.66,-409.9 857.25,-427.38 869.93,-435.7 862.83,-447.67 875.25,-456.38 905.38,-477.48 920.1,-466.59 956.25,-473.38 969.63,-475.89 983.88,-478.4 997.73,-480.75"/>
<polygon fill="black" stroke="black" points="996.77,-484.3 1007.21,-482.51 997.93,-477.4 996.77,-484.3"/>
<text text-anchor="middle" x="906.75" y="-474.62" font-family="Times,serif" font-size="10.00"> clang&#45;tidy</text>
</g>
<g id="node38" class="node">
<polygon fill="none" stroke="black" points="1147.38,-347.75 1008.38,-347.75 1008.38,-327 1147.38,-327 1147.38,-347.75"/>
<text text-anchor="middle" x="1077.88" y="-334.25" font-family="Times,serif" font-size="10.00">.build/linux/bin/hi&#45;repl.o</text>
</g>
<g id="edge39" class="edge">
<path fill="none" stroke="black" d="M767.19,-398.93C796.63,-391.72 838.44,-381.69 875.25,-373.62 911.12,-365.77 920.13,-363.99 956.25,-357.38 969.81,-354.89 984.25,-352.38 998.26,-350.02"/>
<polygon fill="black" stroke="black" points="998.58,-353.34 1007.86,-348.24 997.42,-346.44 998.58,-353.34"/>
<text text-anchor="middle" x="906.75" y="-377.62" font-family="Times,serif" font-size="10.00"> cc_linux</text>
</g>
<g id="node52" class="node">
<polygon fill="none" stroke="black" points="1193.5,-425.75 962.25,-425.75 962.25,-405 1193.5,-405 1193.5,-425.75"/>
<text text-anchor="middle" x="1077.88" y="-412.25" font-family="Times,serif" font-size="10.00">.build/clang&#45;tidy/macos/bin/hi&#45;repl.c.check</text>
</g>
<g id="edge47" class="edge">
<path fill="none" stroke="black" d="M767.34,-409.14C811.37,-410.03 886.04,-411.53 951.01,-412.84"/>
<polygon fill="black" stroke="black" points="950.69,-416.36 960.76,-413.06 950.83,-409.36 950.69,-416.36"/>
<text text-anchor="middle" x="906.75" y="-416.62" font-family="Times,serif" font-size="10.00"> clang&#45;tidy</text>
</g>
<g id="node58" class="node">
<polygon fill="none" stroke="black" points="1150.75,-464.75 1005,-464.75 1005,-444 1150.75,-444 1150.75,-464.75"/>
<text text-anchor="middle" x="1077.88" y="-451.25" font-family="Times,serif" font-size="10.00">.build/macos/bin/hi&#45;repl.o</text>
</g>
<g id="edge67" class="edge">
<path fill="none" stroke="black" d="M767.28,-413.85C792.77,-417.55 827.04,-422.62 857.25,-427.38 865.26,-428.64 867.22,-429.23 875.25,-430.38 914.32,-435.95 957.77,-441.24 994.31,-445.43"/>
<polygon fill="black" stroke="black" points="993.58,-448.98 1003.92,-446.63 994.38,-442.03 993.58,-448.98"/>
<text text-anchor="middle" x="906.75" y="-442.62" font-family="Times,serif" font-size="10.00"> cc_macos</text>
</g>
<g id="node71" class="node">
<polygon fill="none" stroke="black" points="1199.5,-386.75 956.25,-386.75 956.25,-366 1199.5,-366 1199.5,-386.75"/>
<text text-anchor="middle" x="1077.88" y="-373.25" font-family="Times,serif" font-size="10.00">.build/clang&#45;tidy/windows/bin/hi&#45;repl.c.check</text>
</g>
<g id="edge75" class="edge">
<path fill="none" stroke="black" d="M767.34,-404.86C810.79,-400.86 884.06,-394.12 948.41,-388.2"/>
<polygon fill="black" stroke="black" points="948.43,-391.62 958.07,-387.22 947.79,-384.65 948.43,-391.62"/>
<text text-anchor="middle" x="906.75" y="-397.62" font-family="Times,serif" font-size="10.00"> clang&#45;tidy</text>
</g>
<g id="node77" class="node">
<polygon fill="none" stroke="black" points="1156.75,-812.75 999,-812.75 999,-792 1156.75,-792 1156.75,-812.75"/>
<text text-anchor="middle" x="1077.88" y="-799.25" font-family="Times,serif" font-size="10.00">.build/windows/bin/hi&#45;repl.o</text>
</g>
<g id="edge95" class="edge">
<path fill="none" stroke="black" d="M767.2,-403.9C795.33,-402.78 832.81,-406.13 857.25,-427.38 878.58,-445.92 863.95,-462.46 875.25,-488.38 897.19,-538.7 921.22,-542.43 938.25,-594.62 951.25,-634.47 927.65,-751.74 956.25,-782.38 964.96,-791.71 976.24,-797.76 988.4,-801.56"/>
<polygon fill="black" stroke="black" points="987.23,-805.13 997.78,-804.24 988.98,-798.35 987.23,-805.13"/>
<text text-anchor="middle" x="906.75" y="-598.62" font-family="Times,serif" font-size="10.00"> cc_windows</text>
</g>
<g id="node33" class="node">
<polygon fill="none" stroke="black" points="1758.38,-402.75 1628.38,-402.75 1628.38,-382 1758.38,-382 1758.38,-402.75"/>
<text text-anchor="middle" x="1693.38" y="-389.25" font-family="Times,serif" font-size="10.00">.build/linux/bin/hi&#45;repl</text>
</g>
<g id="node34" class="node">
<ellipse fill="none" stroke="black" cx="1421.25" cy="-392.38" rx="39.95" ry="14.67"/>
<text text-anchor="middle" x="1421.25" y="-389.25" font-family="Times,serif" font-size="10.00">ld_linux</text>
</g>
<g id="edge20" class="edge">
<path fill="none" stroke="black" d="M1461.53,-392.38C1502.15,-392.38 1566.6,-392.38 1617.08,-392.38"/>
<polygon fill="black" stroke="black" points="1616.95,-395.88 1626.95,-392.38 1616.95,-388.88 1616.95,-395.88"/>
</g>
<g id="node35" class="node">
<polygon fill="none" stroke="black" points="1154.88,-584.75 1000.88,-584.75 1000.88,-564 1154.88,-564 1154.88,-584.75"/>
<text text-anchor="middle" x="1077.88" y="-571.25" font-family="Times,serif" font-size="10.00">.build/linux/lib/hello/hello.a</text>
</g>
<g id="edge21" class="edge">
<path fill="none" stroke="black" d="M1152.37,-563.51C1168.11,-560.31 1184.51,-556.31 1199.5,-551.38 1252.18,-534.04 1266.5,-529.09 1312,-497.38 1351.3,-469.97 1389.73,-428.09 1408.45,-406.44"/>
</g>
<g id="node50" class="node">
<ellipse fill="none" stroke="black" cx="1421.25" cy="-554.38" rx="39.95" ry="14.67"/>
<text text-anchor="middle" x="1421.25" y="-551.25" font-family="Times,serif" font-size="10.00">ld_linux</text>
</g>
<g id="edge42" class="edge">
<path fill="none" stroke="black" d="M1155.32,-572.63C1200.86,-571.29 1259.78,-569.03 1312,-565.38 1335.56,-563.73 1361.92,-561.06 1382.73,-558.77"/>
</g>
<g id="node36" class="node">
<polygon fill="none" stroke="black" points="1151.88,-542.75 1003.88,-542.75 1003.88,-522 1151.88,-522 1151.88,-542.75"/>
<text text-anchor="middle" x="1077.88" y="-529.25" font-family="Times,serif" font-size="10.00">.build/linux/lib/utils/utils.a</text>
</g>
<g id="edge22" class="edge">
<path fill="none" stroke="black" d="M1152.25,-524.22C1168.08,-521.36 1184.54,-517.52 1199.5,-512.38 1279.32,-484.93 1364.6,-430.42 1401.47,-405.43"/>
</g>
<g id="edge43" class="edge">
<path fill="none" stroke="black" d="M1152.11,-537.09C1222.44,-541.63 1325.97,-548.3 1381.57,-551.88"/>
</g>
<g id="node37" class="node">
<polygon fill="none" stroke="black" points="1144.75,-308.75 1011,-308.75 1011,-288 1144.75,-288 1144.75,-308.75"/>
<text text-anchor="middle" x="1077.88" y="-295.25" font-family="Times,serif" font-size="10.00">.build/arch/linux/arch.a</text>
</g>
<g id="edge23" class="edge">
<path fill="none" stroke="black" d="M1145,-307.39C1162.81,-310.35 1181.99,-314.02 1199.5,-318.38 1270.69,-336.09 1351.9,-365.88 1393.13,-381.72"/>
</g>
<g id="edge44" class="edge">
<path fill="none" stroke="black" d="M1144.99,-298.64C1163.96,-301.42 1183.75,-307.18 1199.5,-318.38 1213.12,-328.05 1207.5,-338 1217.5,-351.38 1277.16,-431.16 1367.35,-510.18 1403.95,-540.94"/>
</g>
<g id="edge24" class="edge">
<path fill="none" stroke="black" d="M1146.32,-348.24C1217.63,-359.73 1327.46,-377.42 1383.94,-386.53"/>
</g>
<g id="edge25" class="edge">
<path fill="none" stroke="black" d="M805.35,-928.62C824.6,-925.42 843.64,-918.37 857.25,-904.38 876.93,-884.14 867.5,-805.77 875.25,-778.62 899.81,-692.61 885.61,-649.25 956.25,-594.38 966.14,-586.69 977.87,-581.49 990.08,-578.03"/>
<polygon fill="black" stroke="black" points="990.52,-581.28 999.41,-575.52 988.87,-574.48 990.52,-581.28"/>
<text text-anchor="middle" x="906.75" y="-782.62" font-family="Times,serif" font-size="10.00"> ar_linux</text>
</g>
<g id="node40" class="node">
<ellipse fill="none" stroke="black" cx="728.12" cy="-580.38" rx="40.48" ry="14.67"/>
<text text-anchor="middle" x="728.12" y="-577.25" font-family="Times,serif" font-size="10.00">ar_linux</text>
</g>
<g id="edge27" class="edge">
<path fill="none" stroke="black" d="M768.31,-583.24C811.12,-585.11 881.2,-584.5 938.25,-566.38 947.19,-563.54 947.5,-558.75 956.25,-555.38 967.9,-550.88 980.54,-547.23 993.1,-544.29"/>
<polygon fill="black" stroke="black" points="993.6,-547.54 1002.61,-541.97 992.09,-540.7 993.6,-547.54"/>
</g>
<g id="edge28" class="edge">
<path fill="none" stroke="black" d="M440.22,-869.88C461.12,-867.29 483.01,-861.19 500,-848.38 515.24,-836.88 508.63,-826.01 518,-809.38 549.59,-753.31 556.1,-737.33 599,-689.38 633.85,-650.41 682.61,-612.65 708.78,-593.45"/>
</g>
<g id="edge29" class="edge">
<path fill="none" stroke="black" d="M444.55,-487.27C462.8,-490.16 482.23,-493.83 500,-498.38 574.74,-517.48 659.37,-551.48 701.07,-569.1"/>
</g>
<g id="node43" class="node">
<ellipse fill="none" stroke="black" cx="728.12" cy="-149.38" rx="40.48" ry="14.67"/>
<text text-anchor="middle" x="728.12" y="-146.25" font-family="Times,serif" font-size="10.00">ar_linux</text>
</g>
<g id="edge32" class="edge">
<path fill="none" stroke="black" d="M755.26,-160.57C817.01,-187.03 971.96,-253.42 1041.79,-283.34"/>
<polygon fill="black" stroke="black" points="1040.28,-286.93 1050.85,-287.65 1043.03,-280.5 1040.28,-286.93"/>
</g>
<g id="edge33" class="edge">
<path fill="none" stroke="black" d="M434.77,-163.34C508.07,-159.84 626.23,-154.19 687.47,-151.27"/>
</g>
<g id="edge34" class="edge">
<path fill="none" stroke="black" d="M448.37,-132.15C522.2,-136.71 630.49,-143.4 687.95,-146.95"/>
</g>
<g id="edge35" class="edge">
<path fill="none" stroke="black" d="M433.86,-56.74C455.04,-59.85 478.7,-64.02 500,-69.38 574.4,-88.08 658.84,-121.07 700.7,-138.26"/>
</g>
<g id="node47" class="node">
<polygon fill="none" stroke="black" points="1178.12,-992.75 977.62,-992.75 977.62,-972 1178.12,-972 1178.12,-992.75"/>
<text text-anchor="middle" x="1077.88" y="-979.25" font-family="Times,serif" font-size="10.00">.build/clang&#45;tidy/linux/bin/hi.c.check</text>
</g>
<g id="node48" class="node">
<polygon fill="none" stroke="black" points="755.12,-1029.75 701.12,-1029.75 701.12,-1009 755.12,-1009 755.12,-1029.75"/>
<text text-anchor="middle" x="728.12" y="-1016.25" font-family="Times,serif" font-size="10.00">bin/hi.c</text>
</g>
<g id="edge40" class="edge">
<path fill="none" stroke="black" d="M755.52,-1016.51C784.78,-1013.34 833.39,-1008.09 875.25,-1003.62 904.79,-1000.48 936.76,-997.1 966.35,-993.98"/>
<polygon fill="black" stroke="black" points="966.56,-997.37 976.14,-992.84 965.82,-990.41 966.56,-997.37"/>
<text text-anchor="middle" x="906.75" y="-1007.62" font-family="Times,serif" font-size="10.00"> clang&#45;tidy</text>
</g>
<g id="node51" class="node">
<polygon fill="none" stroke="black" points="1135.38,-623.75 1020.38,-623.75 1020.38,-603 1135.38,-603 1135.38,-623.75"/>
<text text-anchor="middle" x="1077.88" y="-610.25" font-family="Times,serif" font-size="10.00">.build/linux/bin/hi.o</text>
</g>
<g id="edge46" class="edge">
<path fill="none" stroke="black" d="M755.51,-1021.18C783.8,-1021.67 828.51,-1018.12 857.25,-994.38 873.78,-980.72 863.08,-967.28 875.25,-949.62 896.89,-918.23 921.76,-925.76 938.25,-891.38 963.1,-839.55 917.58,-675.89 956.25,-633.38 969.63,-618.67 989.36,-612.04 1009.01,-609.56"/>
<polygon fill="black" stroke="black" points="1009.23,-612.96 1018.88,-608.58 1008.6,-605.99 1009.23,-612.96"/>
<text text-anchor="middle" x="906.75" y="-953.62" font-family="Times,serif" font-size="10.00"> cc_linux</text>
</g>
<g id="node67" class="node">
<polygon fill="none" stroke="black" points="1181.5,-953.75 974.25,-953.75 974.25,-933 1181.5,-933 1181.5,-953.75"/>
<text text-anchor="middle" x="1077.88" y="-940.25" font-family="Times,serif" font-size="10.00">.build/clang&#45;tidy/macos/bin/hi.c.check</text>
</g>
<g id="edge68" class="edge">
<path fill="none" stroke="black" d="M755.21,-1017.78C781.87,-1015.37 823.97,-1009.34 857.25,-994.38 866.43,-990.25 866.1,-984.83 875.25,-980.62 908.69,-965.24 920.08,-970.22 956.25,-963.38 969.63,-960.84 983.88,-958.32 997.72,-955.97"/>
<polygon fill="black" stroke="black" points="997.92,-959.32 1007.2,-954.21 996.76,-952.41 997.92,-959.32"/>
<text text-anchor="middle" x="906.75" y="-984.62" font-family="Times,serif" font-size="10.00"> clang&#45;tidy</text>
</g>
<g id="node70" class="node">
<polygon fill="none" stroke="black" points="1138.75,-1070.75 1017,-1070.75 1017,-1050 1138.75,-1050 1138.75,-1070.75"/>
<text text-anchor="middle" x="1077.88" y="-1057.25" font-family="Times,serif" font-size="10.00">.build/macos/bin/hi.o</text>
</g>
<g id="edge74" class="edge">
<path fill="none" stroke="black" d="M755.51,-1022.7C784.77,-1026.37 833.37,-1032.41 875.25,-1037.38 918.74,-1042.53 967.54,-1048.11 1006.23,-1052.47"/>
<polygon fill="black" stroke="black" points="1005.54,-1056.03 1015.87,-1053.67 1006.32,-1049.07 1005.54,-1056.03"/>
<text text-anchor="middle" x="906.75" y="-1048.62" font-family="Times,serif" font-size="10.00"> cc_macos</text>
</g>
<g id="node86" class="node">
<polygon fill="none" stroke="black" points="1187.5,-1031.75 968.25,-1031.75 968.25,-1011 1187.5,-1011 1187.5,-1031.75"/>
<text text-anchor="middle" x="1077.88" y="-1018.25" font-family="Times,serif" font-size="10.00">.build/clang&#45;tidy/windows/bin/hi.c.check</text>
</g>
<g id="edge96" class="edge">
<path fill="none" stroke="black" d="M755.55,-1019.53C798.23,-1019.77 884.88,-1020.27 957.46,-1020.69"/>
<polygon fill="black" stroke="black" points="957.04,-1024.19 967.06,-1020.75 957.08,-1017.19 957.04,-1024.19"/>
<text text-anchor="middle" x="906.75" y="-1024.62" font-family="Times,serif" font-size="10.00"> clang&#45;tidy</text>
</g>
<g id="node89" class="node">
<polygon fill="none" stroke="black" points="1144.75,-1109.75 1011,-1109.75 1011,-1089 1144.75,-1089 1144.75,-1109.75"/>
<text text-anchor="middle" x="1077.88" y="-1096.25" font-family="Times,serif" font-size="10.00">.build/windows/bin/hi.o</text>
</g>
<g id="edge102" class="edge">
<path fill="none" stroke="black" d="M755.62,-1027.86C784.76,-1037.03 833.06,-1051.76 875.25,-1062.38 910.92,-1071.35 920.1,-1072.59 956.25,-1079.38 970.44,-1082.04 985.6,-1084.7 1000.21,-1087.17"/>
<polygon fill="black" stroke="black" points="999.3,-1090.73 1009.74,-1088.93 1000.45,-1083.83 999.3,-1090.73"/>
<text text-anchor="middle" x="906.75" y="-1079.62" font-family="Times,serif" font-size="10.00"> cc_windows</text>
</g>
<g id="node49" class="node">
<polygon fill="none" stroke="black" points="1746.38,-564.75 1640.38,-564.75 1640.38,-544 1746.38,-544 1746.38,-564.75"/>
<text text-anchor="middle" x="1693.38" y="-551.25" font-family="Times,serif" font-size="10.00">.build/linux/bin/hi</text>
</g>
<g id="edge41" class="edge">
<path fill="none" stroke="black" d="M1461.53,-554.38C1505.52,-554.38 1577.43,-554.38 1629.31,-554.38"/>
<polygon fill="black" stroke="black" points="1629.06,-557.88 1639.06,-554.38 1629.06,-550.88 1629.06,-557.88"/>
</g>
<g id="edge45" class="edge">
<path fill="none" stroke="black" d="M1135.72,-607.76C1183.11,-602.61 1252.29,-594.02 1312,-582.38 1338.29,-577.25 1367.69,-569.51 1389.21,-563.47"/>
</g>
<g id="node53" class="node">
<polygon fill="none" stroke="black" points="1761.75,-684.75 1625,-684.75 1625,-664 1761.75,-664 1761.75,-684.75"/>
<text text-anchor="middle" x="1693.38" y="-671.25" font-family="Times,serif" font-size="10.00">.build/macos/bin/hi&#45;repl</text>
</g>
<g id="node54" class="node">
<ellipse fill="none" stroke="black" cx="1421.25" cy="-674.38" rx="44.72" ry="14.67"/>
<text text-anchor="middle" x="1421.25" y="-671.25" font-family="Times,serif" font-size="10.00">ld_macos</text>
</g>
<g id="edge48" class="edge">
<path fill="none" stroke="black" d="M1466.25,-674.38C1506.06,-674.38 1565.61,-674.38 1613.62,-674.38"/>
<polygon fill="black" stroke="black" points="1613.61,-677.88 1623.61,-674.38 1613.61,-670.88 1613.61,-677.88"/>
</g>
<g id="node55" class="node">
<polygon fill="none" stroke="black" points="1158.25,-773.75 997.5,-773.75 997.5,-753 1158.25,-753 1158.25,-773.75"/>
<text text-anchor="middle" x="1077.88" y="-760.25" font-family="Times,serif" font-size="10.00">.build/macos/lib/hello/hello.a</text>
</g>
<g id="edge49" class="edge">
<path fill="none" stroke="black" d="M1125.93,-752.56C1173.13,-741.56 1247.84,-723.69 1312,-706.38 1337.54,-699.48 1366.25,-690.96 1387.68,-684.44"/>
</g>
<g id="node69" class="node">
<ellipse fill="none" stroke="black" cx="1421.25" cy="-762.38" rx="44.72" ry="14.67"/>
<text text-anchor="middle" x="1421.25" y="-759.25" font-family="Times,serif" font-size="10.00">ld_macos</text>
</g>
<g id="edge70" class="edge">
<path fill="none" stroke="black" d="M1158.48,-763.14C1226.26,-762.94 1321.12,-762.67 1376.09,-762.5"/>
</g>
<g id="node56" class="node">
<polygon fill="none" stroke="black" points="1155.25,-723.75 1000.5,-723.75 1000.5,-703 1155.25,-703 1155.25,-723.75"/>
<text text-anchor="middle" x="1077.88" y="-710.25" font-family="Times,serif" font-size="10.00">.build/macos/lib/utils/utils.a</text>
</g>
<g id="edge50" class="edge">
<path fill="none" stroke="black" d="M1155.49,-704.62C1224.49,-696.74 1323.31,-685.45 1378.64,-679.13"/>
</g>
<g id="edge71" class="edge">
<path fill="none" stroke="black" d="M1154.64,-724.25C1224.17,-734.23 1324.53,-748.64 1379.84,-756.58"/>
</g>
<g id="node57" class="node">
<polygon fill="none" stroke="black" points="1148.12,-662.75 1007.62,-662.75 1007.62,-642 1148.12,-642 1148.12,-662.75"/>
<text text-anchor="middle" x="1077.88" y="-649.25" font-family="Times,serif" font-size="10.00">.build/arch/macos/arch.a</text>
</g>
<g id="edge51" class="edge">
<path fill="none" stroke="black" d="M1148.56,-654.68C1194.92,-656.45 1257.15,-659.3 1312,-663.38 1333.95,-665.01 1358.34,-667.43 1378.4,-669.59"/>
</g>
<g id="edge72" class="edge">
<path fill="none" stroke="black" d="M1112.54,-663.22C1178.48,-684.47 1323.82,-731.3 1388.33,-752.09"/>
</g>
<g id="edge52" class="edge">
<path fill="none" stroke="black" d="M1151.11,-459.49C1167.57,-462.5 1184.59,-467.17 1199.5,-474.38 1248.62,-498.12 1366.73,-618.59 1406.74,-660.21"/>
</g>
<g id="edge53" class="edge">
<path fill="none" stroke="black" d="M808.91,-970.35C826.67,-965.78 844.11,-958.08 857.25,-945.38 879.34,-924.01 860.95,-905.82 875.25,-878.62 901.11,-829.44 907.89,-810.75 956.25,-783.38 965.7,-778.03 976.19,-774.01 986.92,-771.02"/>
<polygon fill="black" stroke="black" points="987.41,-774.26 996.27,-768.45 985.72,-767.47 987.41,-774.26"/>
<text text-anchor="middle" x="906.75" y="-882.62" font-family="Times,serif" font-size="10.00"> ar_macos</text>
</g>
<g id="node60" class="node">
<ellipse fill="none" stroke="black" cx="728.12" cy="-713.38" rx="45.25" ry="14.67"/>
<text text-anchor="middle" x="728.12" y="-710.25" font-family="Times,serif" font-size="10.00">ar_macos</text>
</g>
<g id="edge55" class="edge">
<path fill="none" stroke="black" d="M773.88,-713.38C828.12,-713.38 920.76,-713.38 989.36,-713.38"/>
<polygon fill="black" stroke="black" points="989.16,-716.88 999.16,-713.38 989.16,-709.88 989.16,-716.88"/>
</g>
<g id="edge56" class="edge">
<path fill="none" stroke="black" d="M443.6,-903.7C462.63,-900.73 482.66,-895.72 500,-887.38 553.85,-861.45 551.75,-832.97 599,-796.38 634.41,-768.95 678.91,-741.56 705.06,-726.11"/>
</g>
<g id="edge57" class="edge">
<path fill="none" stroke="black" d="M447.87,-522.81C465.48,-525.81 483.78,-530.39 500,-537.38 547.65,-557.89 667.81,-661.26 711.19,-699.3"/>
</g>
<g id="node63" class="node">
<ellipse fill="none" stroke="black" cx="728.12" cy="-451.38" rx="45.25" ry="14.67"/>
<text text-anchor="middle" x="728.12" y="-448.25" font-family="Times,serif" font-size="10.00">ar_macos</text>
</g>
<g id="edge60" class="edge">
<path fill="none" stroke="black" d="M764.04,-460.61C817.39,-475.43 915.45,-505.67 938.25,-533.38 966.66,-567.91 924.38,-601 956.25,-632.38 967.25,-643.21 981.73,-649.5 996.83,-652.95"/>
<polygon fill="black" stroke="black" points="995.88,-656.52 1006.35,-654.91 997.16,-649.64 995.88,-656.52"/>
</g>
<g id="edge61" class="edge">
<path fill="none" stroke="black" d="M438.09,-441.63C509.69,-444.05 621.21,-447.8 682.69,-449.88"/>
</g>
<g id="edge62" class="edge">
<path fill="none" stroke="black" d="M451.66,-370.3C467.85,-373.09 484.62,-376.71 500,-381.38 546.43,-395.46 552.8,-412.57 599,-427.38 627.12,-436.39 659.87,-442.45 685.22,-446.22"/>
</g>
<g id="edge63" class="edge">
<path fill="none" stroke="black" d="M437.17,-285.6C458.13,-288.38 480.82,-293.64 500,-303.38 545.4,-326.42 552.64,-342.1 581,-384.38 592.54,-401.58 582.89,-414.35 599,-427.38 622.32,-446.22 655.82,-451.99 682.72,-453.17"/>
</g>
<g id="node68" class="node">
<polygon fill="none" stroke="black" points="1749.75,-772.75 1637,-772.75 1637,-752 1749.75,-752 1749.75,-772.75"/>
<text text-anchor="middle" x="1693.38" y="-759.25" font-family="Times,serif" font-size="10.00">.build/macos/bin/hi</text>
</g>
<g id="edge69" class="edge">
<path fill="none" stroke="black" d="M1466.25,-762.38C1509.48,-762.38 1575.99,-762.38 1625.71,-762.38"/>
<polygon fill="black" stroke="black" points="1625.69,-765.88 1635.69,-762.38 1625.69,-758.88 1625.69,-765.88"/>
</g>
<g id="edge73" class="edge">
<path fill="none" stroke="black" d="M1138.98,-1063.63C1160.53,-1061.68 1183.45,-1055.53 1199.5,-1040.38 1225.99,-1015.35 1199.81,-992.24 1217.5,-960.38 1251.59,-898.96 1279.71,-898.42 1330,-849.38 1356.49,-823.54 1387.59,-793.65 1405.51,-776.49"/>
</g>
<g id="node72" class="node">
<polygon fill="none" stroke="black" points="1778.25,-883.75 1608.5,-883.75 1608.5,-863 1778.25,-863 1778.25,-883.75"/>
<text text-anchor="middle" x="1693.38" y="-870.25" font-family="Times,serif" font-size="10.00">.build/windows/bin/hi&#45;repl.exe</text>
</g>
<g id="node73" class="node">
<ellipse fill="none" stroke="black" cx="1421.25" cy="-873.38" rx="53.21" ry="14.67"/>
<text text-anchor="middle" x="1421.25" y="-870.25" font-family="Times,serif" font-size="10.00">ld_windows</text>
</g>
<g id="edge76" class="edge">
<path fill="none" stroke="black" d="M1474.65,-873.38C1509.44,-873.38 1556.12,-873.38 1597.33,-873.38"/>
<polygon fill="black" stroke="black" points="1597.23,-876.88 1607.23,-873.38 1597.23,-869.88 1597.23,-876.88"/>
</g>
<g id="node74" class="node">
<polygon fill="none" stroke="black" points="1164.25,-1148.75 991.5,-1148.75 991.5,-1128 1164.25,-1128 1164.25,-1148.75"/>
<text text-anchor="middle" x="1077.88" y="-1135.25" font-family="Times,serif" font-size="10.00">.build/windows/lib/hello/hello.a</text>
</g>
<g id="edge77" class="edge">
<path fill="none" stroke="black" d="M1164.59,-1135.76C1177.3,-1132.23 1189.47,-1126.73 1199.5,-1118.38 1217.64,-1103.25 1204.65,-1088.19 1217.5,-1068.38 1269.57,-988.06 1360.76,-916.42 1400.64,-887.25"/>
</g>
<g id="node88" class="node">
<ellipse fill="none" stroke="black" cx="1421.25" cy="-991.38" rx="53.21" ry="14.67"/>
<text text-anchor="middle" x="1421.25" y="-988.25" font-family="Times,serif" font-size="10.00">ld_windows</text>
</g>
<g id="edge98" class="edge">
<path fill="none" stroke="black" d="M1159.89,-1127.51C1173.23,-1124.99 1186.84,-1121.96 1199.5,-1118.38 1251.47,-1103.64 1265,-1098.99 1312,-1072.38 1346.93,-1052.6 1383.49,-1023.1 1403.92,-1005.69"/>
</g>
<g id="node75" class="node">
<polygon fill="none" stroke="black" points="1161.25,-914.75 994.5,-914.75 994.5,-894 1161.25,-894 1161.25,-914.75"/>
<text text-anchor="middle" x="1077.88" y="-901.25" font-family="Times,serif" font-size="10.00">.build/windows/lib/utils/utils.a</text>
</g>
<g id="edge78" class="edge">
<path fill="none" stroke="black" d="M1161.51,-896.87C1226.63,-890.96 1315.29,-882.91 1370.1,-877.93"/>
</g>
<g id="edge99" class="edge">
<path fill="none" stroke="black" d="M1153.82,-915.24C1169.01,-917.88 1184.82,-920.95 1199.5,-924.38 1266.97,-940.14 1344.06,-965.19 1386.96,-979.78"/>
</g>
<g id="node76" class="node">
<polygon fill="none" stroke="black" points="1154.12,-851.75 1001.62,-851.75 1001.62,-831 1154.12,-831 1154.12,-851.75"/>
<text text-anchor="middle" x="1077.88" y="-838.25" font-family="Times,serif" font-size="10.00">.build/arch/windows/arch.a</text>
</g>
<g id="edge79" class="edge">
<path fill="none" stroke="black" d="M1154.47,-841.03C1200.22,-841.64 1259.65,-843.85 1312,-850.38 1335.16,-853.26 1360.72,-858.59 1381.19,-863.39"/>
</g>
<g id="edge100" class="edge">
<path fill="none" stroke="black" d="M1116.15,-852.25C1162.97,-866.48 1245.27,-893.41 1312,-925.38 1344.16,-940.78 1378.97,-963.12 1400.19,-977.44"/>
</g>
<g id="edge80" class="edge">
<path fill="none" stroke="black" d="M1157.14,-811.87C1202.66,-818.12 1260.94,-827.37 1312,-839.38 1337.7,-845.41 1366.15,-854.45 1387.44,-861.68"/>
</g>
<g id="edge81" class="edge">
<path fill="none" stroke="black" d="M814.64,-1170.05C864.77,-1163.99 928.24,-1156.33 980.19,-1150.05"/>
<polygon fill="black" stroke="black" points="980.58,-1153.41 990.09,-1148.74 979.74,-1146.46 980.58,-1153.41"/>
<text text-anchor="middle" x="906.75" y="-1165.62" font-family="Times,serif" font-size="10.00"> ar_windows</text>
</g>
<g id="node79" class="node">
<ellipse fill="none" stroke="black" cx="728.12" cy="-880.38" rx="53.74" ry="14.67"/>
<text text-anchor="middle" x="728.12" y="-877.25" font-family="Times,serif" font-size="10.00">ar_windows</text>
</g>
<g id="edge83" class="edge">
<path fill="none" stroke="black" d="M780.69,-883.75C823.02,-886.54 884.53,-890.64 938.25,-894.38 952.78,-895.39 968.16,-896.47 983.19,-897.55"/>
<polygon fill="black" stroke="black" points="982.82,-901.11 993.05,-898.33 983.32,-894.12 982.82,-901.11"/>
</g>
<g id="edge84" class="edge">
<path fill="none" stroke="black" d="M444.83,-935.53C462.9,-932.71 482.17,-929.56 500,-926.38 534.85,-920.14 629.13,-900.74 684.66,-889.22"/>
</g>
<g id="edge85" class="edge">
<path fill="none" stroke="black" d="M453.66,-716.53C469.7,-719.69 485.9,-724.66 500,-732.38 558.29,-764.25 542.73,-809.06 599,-844.38 623.37,-859.67 654.34,-868.6 679.72,-873.74"/>
</g>
<g id="node82" class="node">
<ellipse fill="none" stroke="black" cx="728.12" cy="-820.38" rx="53.74" ry="14.67"/>
<text text-anchor="middle" x="728.12" y="-817.25" font-family="Times,serif" font-size="10.00">ar_windows</text>
</g>
<g id="edge88" class="edge">
<path fill="none" stroke="black" d="M781.19,-823.52C836.47,-826.86 924.76,-832.19 990.49,-836.16"/>
<polygon fill="black" stroke="black" points="990.06,-839.7 1000.25,-836.81 990.48,-832.71 990.06,-839.7"/>
</g>
<g id="edge89" class="edge">
<path fill="none" stroke="black" d="M444.23,-1105.98C464.59,-1103.33 485.16,-1096.67 500,-1082.38 530.32,-1053.16 502.81,-1028.64 518,-989.38 542.97,-924.83 543.85,-898.2 599,-856.38 621.55,-839.27 651.86,-830.29 677.33,-825.58"/>
</g>
<g id="edge90" class="edge">
<path fill="none" stroke="black" d="M457.3,-827.2C525,-825.48 617.11,-823.16 674.3,-821.71"/>
</g>
<g id="edge91" class="edge">
<path fill="none" stroke="black" d="M443.16,-761.79C461.72,-764.68 481.63,-767.97 500,-771.38 565.44,-783.5 640.88,-800.35 686.24,-810.8"/>
</g>
<g id="node87" class="node">
<polygon fill="none" stroke="black" points="1766.25,-1001.75 1620.5,-1001.75 1620.5,-981 1766.25,-981 1766.25,-1001.75"/>
<text text-anchor="middle" x="1693.38" y="-988.25" font-family="Times,serif" font-size="10.00">.build/windows/bin/hi.exe</text>
</g>
<g id="edge97" class="edge">
<path fill="none" stroke="black" d="M1474.65,-991.38C1512.84,-991.38 1565.36,-991.38 1609.24,-991.38"/>
<polygon fill="black" stroke="black" points="1609.2,-994.88 1619.2,-991.38 1609.2,-987.88 1609.2,-994.88"/>
</g>
<g id="edge101" class="edge">
<path fill="none" stroke="black" d="M1145.17,-1091.01C1162.98,-1088.05 1182.12,-1084.22 1199.5,-1079.38 1271.63,-1059.27 1352.45,-1023.44 1393.37,-1004.29"/>
</g>
<g id="node90" class="node">
<polygon fill="none" stroke="black" points="1737.75,-1268.75 1649,-1268.75 1649,-1248 1737.75,-1248 1737.75,-1268.75"/>
<text text-anchor="middle" x="1693.38" y="-1255.25" font-family="Times,serif" font-size="10.00">doc/graph.svg</text>
</g>
<g id="node91" class="node">
<polygon fill="none" stroke="black" points="1512.5,-1268.75 1330,-1268.75 1330,-1248 1512.5,-1248 1512.5,-1268.75"/>
<text text-anchor="middle" x="1421.25" y="-1255.25" font-family="Times,serif" font-size="10.00">.build/pipe/doc/graph&#45;pipe&#45;2.svg</text>
</g>
<g id="edge103" class="edge">
<path fill="none" stroke="black" d="M1512.95,-1258.38C1554.48,-1258.38 1602.31,-1258.38 1638.13,-1258.38"/>
<polygon fill="black" stroke="black" points="1637.85,-1261.88 1647.85,-1258.38 1637.85,-1254.88 1637.85,-1261.88"/>
<text text-anchor="middle" x="1560.5" y="-1261.62" font-family="Times,serif" font-size="10.00"> svgtidy.svg</text>
</g>
<g id="node92" class="node">
<polygon fill="none" stroke="black" points="1168.38,-1268.75 987.38,-1268.75 987.38,-1248 1168.38,-1248 1168.38,-1268.75"/>
<text text-anchor="middle" x="1077.88" y="-1255.25" font-family="Times,serif" font-size="10.00">.build/pipe/doc/graph&#45;pipe&#45;1.dot</text>
</g>
<g id="edge104" class="edge">
<path fill="none" stroke="black" d="M1168.57,-1258.38C1214.66,-1258.38 1271.01,-1258.38 1318.7,-1258.38"/>
<polygon fill="black" stroke="black" points="1318.67,-1261.88 1328.67,-1258.38 1318.67,-1254.88 1318.67,-1261.88"/>
<text text-anchor="middle" x="1264.75" y="-1261.62" font-family="Times,serif" font-size="10.00"> render_graph.svg</text>
</g>
<g id="node93" class="node">
<polygon fill="none" stroke="black" points="763.5,-1268.75 692.75,-1268.75 692.75,-1248 763.5,-1248 763.5,-1268.75"/>
<text text-anchor="middle" x="728.12" y="-1255.25" font-family="Times,serif" font-size="10.00">build.ninja</text>
</g>
<g id="edge105" class="edge">
<path fill="none" stroke="black" d="M763.74,-1258.38C812.84,-1258.38 904.71,-1258.38 976.29,-1258.38"/>
<polygon fill="black" stroke="black" points="976.15,-1261.88 986.15,-1258.38 976.15,-1254.88 976.15,-1261.88"/>
<text text-anchor="middle" x="906.75" y="-1261.62" font-family="Times,serif" font-size="10.00"> graph.dot</text>
</g>
<g id="node94" class="node">
<ellipse fill="none" stroke="black" cx="370.12" cy="-1258.38" rx="29.88" ry="14.67"/>
<text text-anchor="middle" x="370.12" y="-1255.25" font-family="Times,serif" font-size="10.00">bang</text>
</g>
<g id="edge106" class="edge">
<path fill="none" stroke="black" d="M400.26,-1258.38C462.18,-1258.38 607.26,-1258.38 681.54,-1258.38"/>
<polygon fill="black" stroke="black" points="681.4,-1261.88 691.4,-1258.38 681.4,-1254.88 681.4,-1261.88"/>
</g>
<g id="node95" class="node">
<polygon fill="none" stroke="black" points="101.12,-1326.75 40.12,-1326.75 40.12,-1306 101.12,-1306 101.12,-1326.75"/>
<text text-anchor="middle" x="70.62" y="-1313.25" font-family="Times,serif" font-size="10.00">build.lua</text>
</g>
<g id="edge107" class="edge">
<path fill="none" stroke="black" d="M101.51,-1310.55C159.42,-1299.26 286.1,-1274.56 341.86,-1263.69"/>
</g>
<g id="node96" class="node">
<polygon fill="none" stroke="black" points="130.75,-1287.75 10.5,-1287.75 10.5,-1267 130.75,-1267 130.75,-1287.75"/>
<text text-anchor="middle" x="70.62" y="-1274.25" font-family="Times,serif" font-size="10.00">arch/linux/config.lua</text>
</g>
<g id="edge108" class="edge">
<path fill="none" stroke="black" d="M131.11,-1273.58C194.36,-1269.54 291.78,-1263.31 340.01,-1260.23"/>
</g>
<g id="node97" class="node">
<polygon fill="none" stroke="black" points="134.12,-1248.75 7.12,-1248.75 7.12,-1228 134.12,-1228 134.12,-1248.75"/>
<text text-anchor="middle" x="70.62" y="-1235.25" font-family="Times,serif" font-size="10.00">arch/macos/config.lua</text>
</g>
<g id="edge109" class="edge">
<path fill="none" stroke="black" d="M134.35,-1242.59C197.77,-1246.86 292.97,-1253.26 340.29,-1256.44"/>
</g>
<g id="node98" class="node">
<polygon fill="none" stroke="black" points="140.12,-1209.75 1.12,-1209.75 1.12,-1189 140.12,-1189 140.12,-1209.75"/>
<text text-anchor="middle" x="70.62" y="-1196.25" font-family="Times,serif" font-size="10.00">arch/windows/config.lua</text>
</g>
<g id="edge110" class="edge">
<path fill="none" stroke="black" d="M126.19,-1210.2C190.1,-1222.87 293.42,-1243.36 342.1,-1253.02"/>
</g>
</g>
</svg>
