<?xml version="1.0" encoding="UTF-8" standalone="no"?>
<!DOCTYPE svg PUBLIC "-//W3C//DTD SVG 1.1//EN"
 "http://www.w3.org/Graphics/SVG/1.1/DTD/svg11.dtd">
<!-- Generated by graphviz version 7.1.0 (0)
 -->
<!-- Title: ninja Pages: 1 -->
<svg width="1436pt" height="676pt"
 viewBox="0.00 0.00 1436.48 675.50" xmlns="http://www.w3.org/2000/svg" xmlns:xlink="http://www.w3.org/1999/xlink">
<g id="graph0" class="graph" transform="scale(1 1) rotate(0) translate(4 671.5)">
<title>ninja</title>
<polygon fill="white" stroke="none" points="-4,4 -4,-671.5 1432.48,-671.5 1432.48,4 -4,4"/>
<!-- 1 -->
<g id="node1" class="node">
<title>1</title>
<polygon fill="none" stroke="black" points="1408.98,-579 1277.98,-579 1277.98,-560 1408.98,-560 1408.98,-579"/>
<text text-anchor="middle" x="1343.48" y="-567" font-family="Times,serif" font-size="10.00">.build/linux/bin/hi&#45;repl</text>
</g>
<!-- 2 -->
<g id="node2" class="node">
<title>2</title>
<ellipse fill="none" stroke="black" cx="1167.74" cy="-569.5" rx="40.11" ry="13.37"/>
<text text-anchor="middle" x="1167.74" y="-567" font-family="Times,serif" font-size="10.00">ld_linux</text>
</g>
<!-- 2&#45;&gt;1 -->
<g id="edge1" class="edge">
<title>2&#45;&gt;1</title>
<path fill="none" stroke="black" d="M1208.16,-569.5C1225.4,-569.5 1246.23,-569.5 1266.29,-569.5"/>
<polygon fill="black" stroke="black" points="1266.14,-573 1276.14,-569.5 1266.14,-566 1266.14,-573"/>
</g>
<!-- 5 -->
<g id="node3" class="node">
<title>5</title>
<polygon fill="none" stroke="black" points="1060.5,-516 920.5,-516 920.5,-497 1060.5,-497 1060.5,-516"/>
<text text-anchor="middle" x="990.5" y="-504" font-family="Times,serif" font-size="10.00">.build/linux/bin/hi&#45;repl.o</text>
</g>
<!-- 5&#45;&gt;2 -->
<g id="edge2" class="edge">
<title>5&#45;&gt;2</title>
<path fill="none" stroke="black" d="M1058.31,-516.38C1064.83,-518.57 1071.17,-521.24 1077,-524.5 1087.15,-530.18 1085.27,-537.12 1095,-543.5 1107.08,-551.41 1121.88,-557.3 1134.89,-561.46"/>
</g>
<!-- 7 -->
<g id="node4" class="node">
<title>7</title>
<polygon fill="none" stroke="black" points="1068,-553 913,-553 913,-534 1068,-534 1068,-553"/>
<text text-anchor="middle" x="990.5" y="-541" font-family="Times,serif" font-size="10.00">.build/linux/lib/hello/hello.a</text>
</g>
<!-- 7&#45;&gt;2 -->
<g id="edge3" class="edge">
<title>7&#45;&gt;2</title>
<path fill="none" stroke="black" d="M1035.52,-553.43C1048.87,-556.54 1063.56,-560.06 1077,-563.5 1085.04,-565.56 1086.78,-567.32 1095,-568.5 1105.48,-570 1116.91,-570.62 1127.5,-570.77"/>
</g>
<!-- 63 -->
<g id="node23" class="node">
<title>63</title>
<ellipse fill="none" stroke="black" cx="1167.74" cy="-470.5" rx="40.11" ry="13.37"/>
<text text-anchor="middle" x="1167.74" y="-468" font-family="Times,serif" font-size="10.00">ld_linux</text>
</g>
<!-- 7&#45;&gt;63 -->
<g id="edge23" class="edge">
<title>7&#45;&gt;63</title>
<path fill="none" stroke="black" d="M1059.87,-533.53C1065.94,-531.12 1071.76,-528.15 1077,-524.5 1089.13,-516.04 1083.44,-505.73 1095,-496.5 1106.08,-487.66 1120.43,-481.67 1133.38,-477.68"/>
</g>
<!-- 9 -->
<g id="node5" class="node">
<title>9</title>
<polygon fill="none" stroke="black" points="1065,-479 916,-479 916,-460 1065,-460 1065,-479"/>
<text text-anchor="middle" x="990.5" y="-467" font-family="Times,serif" font-size="10.00">.build/linux/lib/utils/utils.a</text>
</g>
<!-- 9&#45;&gt;2 -->
<g id="edge4" class="edge">
<title>9&#45;&gt;2</title>
<path fill="none" stroke="black" d="M1056.73,-479.4C1063.76,-481.58 1070.66,-484.25 1077,-487.5 1110.61,-504.74 1141.1,-537.96 1156.39,-556.39"/>
</g>
<!-- 9&#45;&gt;63 -->
<g id="edge24" class="edge">
<title>9&#45;&gt;63</title>
<path fill="none" stroke="black" d="M1065.31,-469.92C1086.64,-470.04 1109.08,-470.17 1127.42,-470.28"/>
</g>
<!-- 11 -->
<g id="node6" class="node">
<title>11</title>
<polygon fill="none" stroke="black" points="1057.5,-592 923.5,-592 923.5,-573 1057.5,-573 1057.5,-592"/>
<text text-anchor="middle" x="990.5" y="-580" font-family="Times,serif" font-size="10.00">.build/arch/linux/arch.a</text>
</g>
<!-- 11&#45;&gt;2 -->
<g id="edge5" class="edge">
<title>11&#45;&gt;2</title>
<path fill="none" stroke="black" d="M1036.41,-592.49C1054.92,-595.25 1076.56,-596.71 1096,-593.5 1111.74,-590.9 1128.68,-585.26 1142.04,-580.1"/>
</g>
<!-- 11&#45;&gt;63 -->
<g id="edge25" class="edge">
<title>11&#45;&gt;63</title>
<path fill="none" stroke="black" d="M1050.64,-572.53C1059.79,-569.71 1068.89,-566.11 1077,-561.5 1112.31,-541.44 1142.99,-503.56 1157.62,-483.59"/>
</g>
<!-- 14 -->
<g id="node7" class="node">
<title>14</title>
<polygon fill="none" stroke="black" points="756.5,-453 678.5,-453 678.5,-434 756.5,-434 756.5,-453"/>
<text text-anchor="middle" x="717.5" y="-441" font-family="Times,serif" font-size="10.00">bin/hi&#45;repl.c</text>
</g>
<!-- 14&#45;&gt;5 -->
<g id="edge6" class="edge">
<title>14&#45;&gt;5</title>
<path fill="none" stroke="black" d="M740.66,-453.47C761.31,-462.36 793.17,-475.1 822,-482.5 850.01,-489.69 881.24,-494.9 909.08,-498.59"/>
<polygon fill="black" stroke="black" points="908.52,-502.05 918.88,-499.84 909.4,-495.1 908.52,-502.05"/>
<text text-anchor="middle" x="854" y="-498.5" font-family="Times,serif" font-size="10.00"> cc_linux</text>
</g>
<!-- 82 -->
<g id="node28" class="node">
<title>82</title>
<polygon fill="none" stroke="black" points="1063.5,-217 917.5,-217 917.5,-198 1063.5,-198 1063.5,-217"/>
<text text-anchor="middle" x="990.5" y="-205" font-family="Times,serif" font-size="10.00">.build/macos/bin/hi&#45;repl.o</text>
</g>
<!-- 14&#45;&gt;82 -->
<g id="edge32" class="edge">
<title>14&#45;&gt;82</title>
<path fill="none" stroke="black" d="M756.71,-440.45C772.26,-437.88 789.86,-433.15 804,-424.5 852.74,-394.69 861.93,-377.31 886,-325.5 905.03,-284.55 872.54,-257.9 904,-225.5 905.19,-224.28 906.44,-223.12 907.74,-222.04"/>
<polygon fill="black" stroke="black" points="909.39,-225.15 915.77,-216.69 905.5,-219.33 909.39,-225.15"/>
<text text-anchor="middle" x="854" y="-416.5" font-family="Times,serif" font-size="10.00"> cc_macos</text>
</g>
<!-- 154 -->
<g id="node48" class="node">
<title>154</title>
<polygon fill="none" stroke="black" points="1069.5,-442 911.5,-442 911.5,-423 1069.5,-423 1069.5,-442"/>
<text text-anchor="middle" x="990.5" y="-430" font-family="Times,serif" font-size="10.00">.build/windows/bin/hi&#45;repl.o</text>
</g>
<!-- 14&#45;&gt;154 -->
<g id="edge58" class="edge">
<title>14&#45;&gt;154</title>
<path fill="none" stroke="black" d="M756.75,-441.95C793.7,-440.45 851.02,-438.12 899.53,-436.15"/>
<polygon fill="black" stroke="black" points="899.65,-439.65 909.5,-435.75 899.37,-432.66 899.65,-439.65"/>
<text text-anchor="middle" x="854" y="-442.5" font-family="Times,serif" font-size="10.00"> cc_windows</text>
</g>
<!-- 18 -->
<g id="node8" class="node">
<title>18</title>
<polygon fill="none" stroke="black" points="795,-524 640,-524 640,-505 795,-505 795,-524"/>
<text text-anchor="middle" x="717.5" y="-512" font-family="Times,serif" font-size="10.00">.build/linux/lib/hello/hello.o</text>
</g>
<!-- 18&#45;&gt;7 -->
<g id="edge7" class="edge">
<title>18&#45;&gt;7</title>
<path fill="none" stroke="black" d="M795.43,-522.73C828.47,-526.27 867.26,-530.42 901.44,-534.08"/>
<polygon fill="black" stroke="black" points="901.02,-537.55 911.34,-535.14 901.77,-530.59 901.02,-537.55"/>
<text text-anchor="middle" x="854" y="-535.5" font-family="Times,serif" font-size="10.00"> ar_linux</text>
</g>
<!-- 21 -->
<g id="node9" class="node">
<title>21</title>
<polygon fill="none" stroke="black" points="490,-299 397,-299 397,-280 490,-280 490,-299"/>
<text text-anchor="middle" x="443.5" y="-287" font-family="Times,serif" font-size="10.00">lib/hello/hello.c</text>
</g>
<!-- 21&#45;&gt;18 -->
<g id="edge8" class="edge">
<title>21&#45;&gt;18</title>
<path fill="none" stroke="black" d="M490.28,-292.22C504.28,-294.77 519.1,-299.36 531,-307.5 598.35,-353.58 572.69,-404.4 631,-461.5 646.71,-476.88 667.64,-489.95 684.86,-499.26"/>
<polygon fill="black" stroke="black" points="683.2,-502.34 693.68,-503.86 686.43,-496.13 683.2,-502.34"/>
<text text-anchor="middle" x="581" y="-441.5" font-family="Times,serif" font-size="10.00"> cc_linux</text>
</g>
<!-- 94 -->
<g id="node32" class="node">
<title>94</title>
<polygon fill="none" stroke="black" points="798,-184 637,-184 637,-165 798,-165 798,-184"/>
<text text-anchor="middle" x="717.5" y="-172" font-family="Times,serif" font-size="10.00">.build/macos/lib/hello/hello.o</text>
</g>
<!-- 21&#45;&gt;94 -->
<g id="edge34" class="edge">
<title>21&#45;&gt;94</title>
<path fill="none" stroke="black" d="M490.2,-283.41C503.75,-280.57 518.34,-276.45 531,-270.5 582.01,-246.53 579.88,-216.25 631,-192.5 634.55,-190.85 638.25,-189.35 642.03,-187.99"/>
<polygon fill="black" stroke="black" points="642.99,-191.36 651.43,-184.96 640.84,-184.7 642.99,-191.36"/>
<text text-anchor="middle" x="581" y="-263.5" font-family="Times,serif" font-size="10.00"> cc_macos</text>
</g>
<!-- 166 -->
<g id="node52" class="node">
<title>166</title>
<polygon fill="none" stroke="black" points="804,-306 631,-306 631,-287 804,-287 804,-306"/>
<text text-anchor="middle" x="717.5" y="-294" font-family="Times,serif" font-size="10.00">.build/windows/lib/hello/hello.o</text>
</g>
<!-- 21&#45;&gt;166 -->
<g id="edge60" class="edge">
<title>21&#45;&gt;166</title>
<path fill="none" stroke="black" d="M490.33,-290.68C525.5,-291.58 575.31,-292.87 619.24,-294"/>
<polygon fill="black" stroke="black" points="618.96,-297.49 629.05,-294.25 619.14,-290.49 618.96,-297.49"/>
<text text-anchor="middle" x="581" y="-297.5" font-family="Times,serif" font-size="10.00"> cc_windows</text>
</g>
<!-- 25 -->
<g id="node10" class="node">
<title>25</title>
<ellipse fill="none" stroke="black" cx="717.5" cy="-357.5" rx="41.02" ry="13.37"/>
<text text-anchor="middle" x="717.5" y="-355" font-family="Times,serif" font-size="10.00">ar_linux</text>
</g>
<!-- 25&#45;&gt;9 -->
<g id="edge9" class="edge">
<title>25&#45;&gt;9</title>
<path fill="none" stroke="black" d="M758.25,-359.53C774.42,-362.34 792.08,-368.29 804,-380.5 827.64,-404.72 796.35,-432.42 822,-454.5 849.83,-478.46 890.75,-482.49 925.18,-480.4"/>
<polygon fill="black" stroke="black" points="925.38,-483.9 935.07,-479.6 924.82,-476.92 925.38,-483.9"/>
</g>
<!-- 28 -->
<g id="node11" class="node">
<title>28</title>
<polygon fill="none" stroke="black" points="513.5,-336 373.5,-336 373.5,-317 513.5,-317 513.5,-336"/>
<text text-anchor="middle" x="443.5" y="-324" font-family="Times,serif" font-size="10.00">.build/linux/lib/utils/fib.o</text>
</g>
<!-- 28&#45;&gt;25 -->
<g id="edge10" class="edge">
<title>28&#45;&gt;25</title>
<path fill="none" stroke="black" d="M513.84,-334.4C566.1,-340.36 635.8,-348.3 678.34,-353.15"/>
</g>
<!-- 30 -->
<g id="node12" class="node">
<title>30</title>
<polygon fill="none" stroke="black" points="518,-373 369,-373 369,-354 518,-354 518,-373"/>
<text text-anchor="middle" x="443.5" y="-361" font-family="Times,serif" font-size="10.00">.build/linux/lib/utils/utils.o</text>
</g>
<!-- 30&#45;&gt;25 -->
<g id="edge11" class="edge">
<title>30&#45;&gt;25</title>
<path fill="none" stroke="black" d="M518.47,-361.87C569.28,-360.75 634.79,-359.3 676.24,-358.39"/>
</g>
<!-- 33 -->
<g id="node13" class="node">
<title>33</title>
<polygon fill="none" stroke="black" points="110.5,-201 31.5,-201 31.5,-182 110.5,-182 110.5,-201"/>
<text text-anchor="middle" x="71" y="-189" font-family="Times,serif" font-size="10.00">lib/utils/fib.c</text>
</g>
<!-- 33&#45;&gt;28 -->
<g id="edge12" class="edge">
<title>33&#45;&gt;28</title>
<path fill="none" stroke="black" d="M110.97,-196.97C126.25,-199.07 143.94,-201.46 160,-203.5 199.51,-208.52 308.52,-197.72 338,-224.5 365.94,-249.88 329.34,-280.77 356,-307.5 358.21,-309.72 360.62,-311.71 363.18,-313.48"/>
<polygon fill="black" stroke="black" points="361.29,-316.43 371.72,-318.3 364.73,-310.33 361.29,-316.43"/>
<text text-anchor="middle" x="249" y="-227.5" font-family="Times,serif" font-size="10.00"> cc_linux</text>
</g>
<!-- 103 -->
<g id="node34" class="node">
<title>103</title>
<polygon fill="none" stroke="black" points="517,-144 370,-144 370,-125 517,-125 517,-144"/>
<text text-anchor="middle" x="443.5" y="-132" font-family="Times,serif" font-size="10.00">.build/macos/lib/utils/fib.o</text>
</g>
<!-- 33&#45;&gt;103 -->
<g id="edge38" class="edge">
<title>33&#45;&gt;103</title>
<path fill="none" stroke="black" d="M110.86,-182.42C126.13,-179.03 143.83,-175.33 160,-172.5 226.35,-160.89 302.02,-150.89 358.33,-144.06"/>
<polygon fill="black" stroke="black" points="358.67,-147.54 368.18,-142.87 357.83,-140.59 358.67,-147.54"/>
<text text-anchor="middle" x="249" y="-175.5" font-family="Times,serif" font-size="10.00"> cc_macos</text>
</g>
<!-- 175 -->
<g id="node54" class="node">
<title>175</title>
<polygon fill="none" stroke="black" points="523,-224 364,-224 364,-205 523,-205 523,-224"/>
<text text-anchor="middle" x="443.5" y="-212" font-family="Times,serif" font-size="10.00">.build/windows/lib/utils/fib.o</text>
</g>
<!-- 33&#45;&gt;175 -->
<g id="edge64" class="edge">
<title>33&#45;&gt;175</title>
<path fill="none" stroke="black" d="M110.9,-189.18C162.84,-186.64 257.63,-183.98 338,-192.5 356.3,-194.44 376.12,-198.18 393.53,-202.04"/>
<polygon fill="black" stroke="black" points="392.58,-205.41 403.1,-204.23 394.14,-198.59 392.58,-205.41"/>
<text text-anchor="middle" x="249" y="-195.5" font-family="Times,serif" font-size="10.00"> cc_windows</text>
</g>
<!-- 37 -->
<g id="node14" class="node">
<title>37</title>
<polygon fill="none" stroke="black" points="114.5,-303 27.5,-303 27.5,-284 114.5,-284 114.5,-303"/>
<text text-anchor="middle" x="71" y="-291" font-family="Times,serif" font-size="10.00">lib/utils/utils.c</text>
</g>
<!-- 37&#45;&gt;30 -->
<g id="edge13" class="edge">
<title>37&#45;&gt;30</title>
<path fill="none" stroke="black" d="M114.86,-301.6C179.64,-313.84 302.89,-337.12 378.37,-351.38"/>
<polygon fill="black" stroke="black" points="377.64,-354.81 388.12,-353.23 378.94,-347.93 377.64,-354.81"/>
<text text-anchor="middle" x="249" y="-346.5" font-family="Times,serif" font-size="10.00"> cc_linux</text>
</g>
<!-- 105 -->
<g id="node35" class="node">
<title>105</title>
<polygon fill="none" stroke="black" points="521,-185 366,-185 366,-166 521,-166 521,-185"/>
<text text-anchor="middle" x="443.5" y="-173" font-family="Times,serif" font-size="10.00">.build/macos/lib/utils/utils.o</text>
</g>
<!-- 37&#45;&gt;105 -->
<g id="edge39" class="edge">
<title>37&#45;&gt;105</title>
<path fill="none" stroke="black" d="M92.47,-283.58C109.99,-275.53 136.09,-264.55 160,-258.5 198.61,-248.72 306.09,-261.34 338,-237.5 354.27,-225.34 340.42,-208.53 356,-195.5 358.09,-193.75 360.31,-192.14 362.63,-190.67"/>
<polygon fill="black" stroke="black" points="364.11,-193.85 371.29,-186.07 360.82,-187.67 364.11,-193.85"/>
<text text-anchor="middle" x="249" y="-261.5" font-family="Times,serif" font-size="10.00"> cc_macos</text>
</g>
<!-- 177 -->
<g id="node55" class="node">
<title>177</title>
<polygon fill="none" stroke="black" points="527,-262 360,-262 360,-243 527,-243 527,-262"/>
<text text-anchor="middle" x="443.5" y="-250" font-family="Times,serif" font-size="10.00">.build/windows/lib/utils/utils.o</text>
</g>
<!-- 37&#45;&gt;177 -->
<g id="edge65" class="edge">
<title>37&#45;&gt;177</title>
<path fill="none" stroke="black" d="M114.98,-291.24C167.69,-288.16 259.67,-281.83 338,-271.5 352.28,-269.62 367.58,-267.11 381.94,-264.54"/>
<polygon fill="black" stroke="black" points="382.52,-267.99 391.73,-262.75 381.26,-261.11 382.52,-267.99"/>
<text text-anchor="middle" x="249" y="-291.5" font-family="Times,serif" font-size="10.00"> cc_windows</text>
</g>
<!-- 41 -->
<g id="node15" class="node">
<title>41</title>
<ellipse fill="none" stroke="black" cx="717.5" cy="-582.5" rx="41.02" ry="13.37"/>
<text text-anchor="middle" x="717.5" y="-580" font-family="Times,serif" font-size="10.00">ar_linux</text>
</g>
<!-- 41&#45;&gt;11 -->
<g id="edge14" class="edge">
<title>41&#45;&gt;11</title>
<path fill="none" stroke="black" d="M758.78,-582.5C799,-582.5 861.84,-582.5 911.79,-582.5"/>
<polygon fill="black" stroke="black" points="911.7,-586 921.7,-582.5 911.7,-579 911.7,-586"/>
</g>
<!-- 44 -->
<g id="node16" class="node">
<title>44</title>
<polygon fill="none" stroke="black" points="508,-629 379,-629 379,-610 508,-610 508,-629"/>
<text text-anchor="middle" x="443.5" y="-617" font-family="Times,serif" font-size="10.00">.build/arch/linux/ask.o</text>
</g>
<!-- 44&#45;&gt;41 -->
<g id="edge15" class="edge">
<title>44&#45;&gt;41</title>
<path fill="none" stroke="black" d="M508.27,-610.83C561.35,-603.61 635.09,-593.57 679.09,-587.59"/>
</g>
<!-- 46 -->
<g id="node17" class="node">
<title>46</title>
<polygon fill="none" stroke="black" points="521.5,-592 365.5,-592 365.5,-573 521.5,-573 521.5,-592"/>
<text text-anchor="middle" x="443.5" y="-580" font-family="Times,serif" font-size="10.00">.build/arch/linux/get_arch.o</text>
</g>
<!-- 46&#45;&gt;41 -->
<g id="edge16" class="edge">
<title>46&#45;&gt;41</title>
<path fill="none" stroke="black" d="M521.72,-582.5C571.98,-582.5 635.5,-582.5 676.07,-582.5"/>
</g>
<!-- 48 -->
<g id="node18" class="node">
<title>48</title>
<polygon fill="none" stroke="black" points="507.5,-555 379.5,-555 379.5,-536 507.5,-536 507.5,-555"/>
<text text-anchor="middle" x="443.5" y="-543" font-family="Times,serif" font-size="10.00">.build/arch/linux/say.o</text>
</g>
<!-- 48&#45;&gt;41 -->
<g id="edge17" class="edge">
<title>48&#45;&gt;41</title>
<path fill="none" stroke="black" d="M507.93,-554.13C560.99,-561.35 634.89,-571.4 678.99,-577.4"/>
</g>
<!-- 51 -->
<g id="node19" class="node">
<title>51</title>
<polygon fill="none" stroke="black" points="119,-629 23,-629 23,-610 119,-610 119,-629"/>
<text text-anchor="middle" x="71" y="-617" font-family="Times,serif" font-size="10.00">arch/linux/ask.c</text>
</g>
<!-- 51&#45;&gt;44 -->
<g id="edge18" class="edge">
<title>51&#45;&gt;44</title>
<path fill="none" stroke="black" d="M119.3,-619.5C182.02,-619.5 293.41,-619.5 367.61,-619.5"/>
<polygon fill="black" stroke="black" points="367.22,-623 377.22,-619.5 367.22,-616 367.22,-623"/>
<text text-anchor="middle" x="249" y="-622.5" font-family="Times,serif" font-size="10.00"> cc_linux</text>
</g>
<!-- 55 -->
<g id="node20" class="node">
<title>55</title>
<polygon fill="none" stroke="black" points="132.5,-592 9.5,-592 9.5,-573 132.5,-573 132.5,-592"/>
<text text-anchor="middle" x="71" y="-580" font-family="Times,serif" font-size="10.00">arch/linux/get_arch.c</text>
</g>
<!-- 55&#45;&gt;46 -->
<g id="edge19" class="edge">
<title>55&#45;&gt;46</title>
<path fill="none" stroke="black" d="M132.77,-582.5C192.95,-582.5 285.77,-582.5 354.11,-582.5"/>
<polygon fill="black" stroke="black" points="353.78,-586 363.78,-582.5 353.78,-579 353.78,-586"/>
<text text-anchor="middle" x="249" y="-585.5" font-family="Times,serif" font-size="10.00"> cc_linux</text>
</g>
<!-- 59 -->
<g id="node21" class="node">
<title>59</title>
<polygon fill="none" stroke="black" points="118.5,-555 23.5,-555 23.5,-536 118.5,-536 118.5,-555"/>
<text text-anchor="middle" x="71" y="-543" font-family="Times,serif" font-size="10.00">arch/linux/say.c</text>
</g>
<!-- 59&#45;&gt;48 -->
<g id="edge20" class="edge">
<title>59&#45;&gt;48</title>
<path fill="none" stroke="black" d="M118.92,-545.5C181.71,-545.5 293.75,-545.5 368.11,-545.5"/>
<polygon fill="black" stroke="black" points="367.73,-549 377.73,-545.5 367.73,-542 367.73,-549"/>
<text text-anchor="middle" x="249" y="-548.5" font-family="Times,serif" font-size="10.00"> cc_linux</text>
</g>
<!-- 62 -->
<g id="node22" class="node">
<title>62</title>
<polygon fill="none" stroke="black" points="1396.98,-480 1289.98,-480 1289.98,-461 1396.98,-461 1396.98,-480"/>
<text text-anchor="middle" x="1343.48" y="-468" font-family="Times,serif" font-size="10.00">.build/linux/bin/hi</text>
</g>
<!-- 63&#45;&gt;62 -->
<g id="edge21" class="edge">
<title>63&#45;&gt;62</title>
<path fill="none" stroke="black" d="M1208.16,-470.5C1228.9,-470.5 1254.84,-470.5 1278.38,-470.5"/>
<polygon fill="black" stroke="black" points="1278.19,-474 1288.19,-470.5 1278.19,-467 1278.19,-474"/>
</g>
<!-- 66 -->
<g id="node24" class="node">
<title>66</title>
<polygon fill="none" stroke="black" points="1048.5,-405 932.5,-405 932.5,-386 1048.5,-386 1048.5,-405"/>
<text text-anchor="middle" x="990.5" y="-393" font-family="Times,serif" font-size="10.00">.build/linux/bin/hi.o</text>
</g>
<!-- 66&#45;&gt;63 -->
<g id="edge22" class="edge">
<title>66&#45;&gt;63</title>
<path fill="none" stroke="black" d="M1048.92,-404.62C1058.48,-406.98 1068.15,-409.9 1077,-413.5 1104.86,-424.85 1133.63,-444.85 1150.85,-457.89"/>
</g>
<!-- 75 -->
<g id="node25" class="node">
<title>75</title>
<polygon fill="none" stroke="black" points="744.5,-221 690.5,-221 690.5,-202 744.5,-202 744.5,-221"/>
<text text-anchor="middle" x="717.5" y="-209" font-family="Times,serif" font-size="10.00">bin/hi.c</text>
</g>
<!-- 75&#45;&gt;66 -->
<g id="edge26" class="edge">
<title>75&#45;&gt;66</title>
<path fill="none" stroke="black" d="M744.73,-213.85C762.27,-216.24 785.45,-221.02 804,-230.5 813.53,-235.37 813.61,-239.86 822,-246.5 849.26,-268.09 866.85,-262.48 886,-291.5 907.27,-323.73 876.83,-349.06 904,-376.5 909.05,-381.61 915.16,-385.47 921.75,-388.39"/>
<polygon fill="black" stroke="black" points="920.4,-391.62 931,-391.71 922.77,-385.04 920.4,-391.62"/>
<text text-anchor="middle" x="854" y="-294.5" font-family="Times,serif" font-size="10.00"> cc_linux</text>
</g>
<!-- 139 -->
<g id="node45" class="node">
<title>139</title>
<polygon fill="none" stroke="black" points="1051.5,-143 929.5,-143 929.5,-124 1051.5,-124 1051.5,-143"/>
<text text-anchor="middle" x="990.5" y="-131" font-family="Times,serif" font-size="10.00">.build/macos/bin/hi.o</text>
</g>
<!-- 75&#45;&gt;139 -->
<g id="edge52" class="edge">
<title>75&#45;&gt;139</title>
<path fill="none" stroke="black" d="M744.87,-211.34C763.16,-209.97 787.15,-205.51 804,-192.5 817.85,-181.81 807.75,-167.65 822,-157.5 849.38,-137.99 885.76,-131.13 917.61,-129.5"/>
<polygon fill="black" stroke="black" points="917.73,-133 927.61,-129.18 917.5,-126.01 917.73,-133"/>
<text text-anchor="middle" x="854" y="-160.5" font-family="Times,serif" font-size="10.00"> cc_macos</text>
</g>
<!-- 211 -->
<g id="node65" class="node">
<title>211</title>
<polygon fill="none" stroke="black" points="1057.5,-254 923.5,-254 923.5,-235 1057.5,-235 1057.5,-254"/>
<text text-anchor="middle" x="990.5" y="-242" font-family="Times,serif" font-size="10.00">.build/windows/bin/hi.o</text>
</g>
<!-- 75&#45;&gt;211 -->
<g id="edge78" class="edge">
<title>75&#45;&gt;211</title>
<path fill="none" stroke="black" d="M744.98,-214.72C783.29,-219.39 855.75,-228.21 911.88,-235.05"/>
<polygon fill="black" stroke="black" points="911.38,-238.51 921.73,-236.25 912.23,-231.56 911.38,-238.51"/>
<text text-anchor="middle" x="854" y="-234.5" font-family="Times,serif" font-size="10.00"> cc_windows</text>
</g>
<!-- 78 -->
<g id="node26" class="node">
<title>78</title>
<polygon fill="none" stroke="black" points="1411.98,-180 1274.98,-180 1274.98,-161 1411.98,-161 1411.98,-180"/>
<text text-anchor="middle" x="1343.48" y="-168" font-family="Times,serif" font-size="10.00">.build/macos/bin/hi&#45;repl</text>
</g>
<!-- 79 -->
<g id="node27" class="node">
<title>79</title>
<ellipse fill="none" stroke="black" cx="1167.74" cy="-170.5" rx="45.01" ry="13.37"/>
<text text-anchor="middle" x="1167.74" y="-168" font-family="Times,serif" font-size="10.00">ld_macos</text>
</g>
<!-- 79&#45;&gt;78 -->
<g id="edge27" class="edge">
<title>79&#45;&gt;78</title>
<path fill="none" stroke="black" d="M1213.03,-170.5C1228.37,-170.5 1246.06,-170.5 1263.35,-170.5"/>
<polygon fill="black" stroke="black" points="1263.1,-174 1273.1,-170.5 1263.1,-167 1263.1,-174"/>
</g>
<!-- 82&#45;&gt;79 -->
<g id="edge28" class="edge">
<title>82&#45;&gt;79</title>
<path fill="none" stroke="black" d="M1038.46,-197.58C1067.25,-191.51 1103.57,-183.84 1130.21,-178.21"/>
</g>
<!-- 84 -->
<g id="node29" class="node">
<title>84</title>
<polygon fill="none" stroke="black" points="1071,-180 910,-180 910,-161 1071,-161 1071,-180"/>
<text text-anchor="middle" x="990.5" y="-168" font-family="Times,serif" font-size="10.00">.build/macos/lib/hello/hello.a</text>
</g>
<!-- 84&#45;&gt;79 -->
<g id="edge29" class="edge">
<title>84&#45;&gt;79</title>
<path fill="none" stroke="black" d="M1071.43,-170.5C1088.94,-170.5 1106.87,-170.5 1122.38,-170.5"/>
</g>
<!-- 136 -->
<g id="node44" class="node">
<title>136</title>
<ellipse fill="none" stroke="black" cx="1167.74" cy="-70.5" rx="45.01" ry="13.37"/>
<text text-anchor="middle" x="1167.74" y="-68" font-family="Times,serif" font-size="10.00">ld_macos</text>
</g>
<!-- 84&#45;&gt;136 -->
<g id="edge49" class="edge">
<title>84&#45;&gt;136</title>
<path fill="none" stroke="black" d="M1054.01,-160.58C1061.98,-158.18 1069.84,-155.2 1077,-151.5 1110.2,-134.37 1140.62,-101.9 1156.07,-83.7"/>
</g>
<!-- 86 -->
<g id="node30" class="node">
<title>86</title>
<polygon fill="none" stroke="black" points="1068,-106 913,-106 913,-87 1068,-87 1068,-106"/>
<text text-anchor="middle" x="990.5" y="-94" font-family="Times,serif" font-size="10.00">.build/macos/lib/utils/utils.a</text>
</g>
<!-- 86&#45;&gt;79 -->
<g id="edge30" class="edge">
<title>86&#45;&gt;79</title>
<path fill="none" stroke="black" d="M1062.07,-106.41C1067.35,-108.61 1072.4,-111.28 1077,-114.5 1089.42,-123.21 1083.28,-133.87 1095,-143.5 1105.49,-152.12 1119.01,-158.15 1131.48,-162.3"/>
</g>
<!-- 86&#45;&gt;136 -->
<g id="edge50" class="edge">
<title>86&#45;&gt;136</title>
<path fill="none" stroke="black" d="M1024.25,-86.61C1044.44,-81.01 1070.97,-74.53 1095,-71.5 1103.9,-70.38 1113.47,-69.81 1122.62,-69.57"/>
</g>
<!-- 88 -->
<g id="node31" class="node">
<title>88</title>
<polygon fill="none" stroke="black" points="1061,-56 920,-56 920,-37 1061,-37 1061,-56"/>
<text text-anchor="middle" x="990.5" y="-44" font-family="Times,serif" font-size="10.00">.build/arch/macos/arch.a</text>
</g>
<!-- 88&#45;&gt;79 -->
<g id="edge31" class="edge">
<title>88&#45;&gt;79</title>
<path fill="none" stroke="black" d="M1030.27,-56.44C1045.57,-61.38 1062.83,-68.3 1077,-77.5 1111.26,-99.73 1142.16,-137.35 1157.17,-157.25"/>
</g>
<!-- 88&#45;&gt;136 -->
<g id="edge51" class="edge">
<title>88&#45;&gt;136</title>
<path fill="none" stroke="black" d="M1061.46,-43.34C1073.05,-43.72 1084.9,-44.67 1096,-46.5 1111.23,-49.01 1127.58,-54.38 1140.73,-59.4"/>
</g>
<!-- 94&#45;&gt;84 -->
<g id="edge33" class="edge">
<title>94&#45;&gt;84</title>
<path fill="none" stroke="black" d="M798.34,-173.32C829.77,-172.86 866.03,-172.32 898.46,-171.84"/>
<polygon fill="black" stroke="black" points="898.3,-175.35 908.25,-171.7 898.2,-168.35 898.3,-175.35"/>
<text text-anchor="middle" x="854" y="-176.5" font-family="Times,serif" font-size="10.00"> ar_macos</text>
</g>
<!-- 100 -->
<g id="node33" class="node">
<title>100</title>
<ellipse fill="none" stroke="black" cx="717.5" cy="-133.5" rx="45.92" ry="13.37"/>
<text text-anchor="middle" x="717.5" y="-131" font-family="Times,serif" font-size="10.00">ar_macos</text>
</g>
<!-- 100&#45;&gt;86 -->
<g id="edge35" class="edge">
<title>100&#45;&gt;86</title>
<path fill="none" stroke="black" d="M756.24,-125.87C775.81,-122.1 800.12,-117.68 822,-114.5 847.72,-110.76 875.76,-107.45 901.42,-104.72"/>
<polygon fill="black" stroke="black" points="901.55,-108.23 911.13,-103.7 900.82,-101.26 901.55,-108.23"/>
</g>
<!-- 103&#45;&gt;100 -->
<g id="edge36" class="edge">
<title>103&#45;&gt;100</title>
<path fill="none" stroke="black" d="M517.39,-134.23C566.33,-134.05 629.28,-133.82 671.16,-133.67"/>
</g>
<!-- 105&#45;&gt;100 -->
<g id="edge37" class="edge">
<title>105&#45;&gt;100</title>
<path fill="none" stroke="black" d="M508.96,-165.55C560.8,-157.54 632.03,-146.54 676.12,-139.73"/>
</g>
<!-- 114 -->
<g id="node36" class="node">
<title>114</title>
<ellipse fill="none" stroke="black" cx="717.5" cy="-46.5" rx="45.92" ry="13.37"/>
<text text-anchor="middle" x="717.5" y="-44" font-family="Times,serif" font-size="10.00">ar_macos</text>
</g>
<!-- 114&#45;&gt;88 -->
<g id="edge40" class="edge">
<title>114&#45;&gt;88</title>
<path fill="none" stroke="black" d="M763.86,-46.5C803.11,-46.5 860.84,-46.5 908.08,-46.5"/>
<polygon fill="black" stroke="black" points="908.02,-50 918.02,-46.5 908.02,-43 908.02,-50"/>
</g>
<!-- 117 -->
<g id="node37" class="node">
<title>117</title>
<polygon fill="none" stroke="black" points="511.5,-93 375.5,-93 375.5,-74 511.5,-74 511.5,-93"/>
<text text-anchor="middle" x="443.5" y="-81" font-family="Times,serif" font-size="10.00">.build/arch/macos/ask.o</text>
</g>
<!-- 117&#45;&gt;114 -->
<g id="edge41" class="edge">
<title>117&#45;&gt;114</title>
<path fill="none" stroke="black" d="M511.74,-74.35C563.02,-67.38 632.01,-57.99 675.37,-52.1"/>
</g>
<!-- 119 -->
<g id="node38" class="node">
<title>119</title>
<polygon fill="none" stroke="black" points="525,-56 362,-56 362,-37 525,-37 525,-56"/>
<text text-anchor="middle" x="443.5" y="-44" font-family="Times,serif" font-size="10.00">.build/arch/macos/get_arch.o</text>
</g>
<!-- 119&#45;&gt;114 -->
<g id="edge42" class="edge">
<title>119&#45;&gt;114</title>
<path fill="none" stroke="black" d="M525.37,-46.5C573.13,-46.5 631.82,-46.5 671.46,-46.5"/>
</g>
<!-- 121 -->
<g id="node39" class="node">
<title>121</title>
<polygon fill="none" stroke="black" points="510.5,-19 376.5,-19 376.5,0 510.5,0 510.5,-19"/>
<text text-anchor="middle" x="443.5" y="-7" font-family="Times,serif" font-size="10.00">.build/arch/macos/say.o</text>
</g>
<!-- 121&#45;&gt;114 -->
<g id="edge43" class="edge">
<title>121&#45;&gt;114</title>
<path fill="none" stroke="black" d="M510.69,-18.5C562.11,-25.5 631.8,-34.98 675.45,-40.92"/>
</g>
<!-- 124 -->
<g id="node40" class="node">
<title>124</title>
<polygon fill="none" stroke="black" points="122.5,-93 19.5,-93 19.5,-74 122.5,-74 122.5,-93"/>
<text text-anchor="middle" x="71" y="-81" font-family="Times,serif" font-size="10.00">arch/macos/ask.c</text>
</g>
<!-- 124&#45;&gt;117 -->
<g id="edge44" class="edge">
<title>124&#45;&gt;117</title>
<path fill="none" stroke="black" d="M122.74,-83.5C184.91,-83.5 290.95,-83.5 363.75,-83.5"/>
<polygon fill="black" stroke="black" points="363.62,-87 373.62,-83.5 363.62,-80 363.62,-87"/>
<text text-anchor="middle" x="249" y="-86.5" font-family="Times,serif" font-size="10.00"> cc_macos</text>
</g>
<!-- 128 -->
<g id="node41" class="node">
<title>128</title>
<polygon fill="none" stroke="black" points="136,-56 6,-56 6,-37 136,-37 136,-56"/>
<text text-anchor="middle" x="71" y="-44" font-family="Times,serif" font-size="10.00">arch/macos/get_arch.c</text>
</g>
<!-- 128&#45;&gt;119 -->
<g id="edge45" class="edge">
<title>128&#45;&gt;119</title>
<path fill="none" stroke="black" d="M136.11,-46.5C195.24,-46.5 283.69,-46.5 350.37,-46.5"/>
<polygon fill="black" stroke="black" points="350.21,-50 360.21,-46.5 350.21,-43 350.21,-50"/>
<text text-anchor="middle" x="249" y="-49.5" font-family="Times,serif" font-size="10.00"> cc_macos</text>
</g>
<!-- 132 -->
<g id="node42" class="node">
<title>132</title>
<polygon fill="none" stroke="black" points="121.5,-19 20.5,-19 20.5,0 121.5,0 121.5,-19"/>
<text text-anchor="middle" x="71" y="-7" font-family="Times,serif" font-size="10.00">arch/macos/say.c</text>
</g>
<!-- 132&#45;&gt;121 -->
<g id="edge46" class="edge">
<title>132&#45;&gt;121</title>
<path fill="none" stroke="black" d="M121.97,-9.5C184.31,-9.5 291.59,-9.5 364.72,-9.5"/>
<polygon fill="black" stroke="black" points="364.64,-13 374.64,-9.5 364.64,-6 364.64,-13"/>
<text text-anchor="middle" x="249" y="-12.5" font-family="Times,serif" font-size="10.00"> cc_macos</text>
</g>
<!-- 135 -->
<g id="node43" class="node">
<title>135</title>
<polygon fill="none" stroke="black" points="1399.98,-80 1286.98,-80 1286.98,-61 1399.98,-61 1399.98,-80"/>
<text text-anchor="middle" x="1343.48" y="-68" font-family="Times,serif" font-size="10.00">.build/macos/bin/hi</text>
</g>
<!-- 136&#45;&gt;135 -->
<g id="edge47" class="edge">
<title>136&#45;&gt;135</title>
<path fill="none" stroke="black" d="M1213.03,-70.5C1231.95,-70.5 1254.44,-70.5 1275.33,-70.5"/>
<polygon fill="black" stroke="black" points="1275.23,-74 1285.23,-70.5 1275.23,-67 1275.23,-74"/>
</g>
<!-- 139&#45;&gt;136 -->
<g id="edge48" class="edge">
<title>139&#45;&gt;136</title>
<path fill="none" stroke="black" d="M1051.95,-124.6C1060.65,-122.04 1069.27,-118.74 1077,-114.5 1086.92,-109.06 1085.45,-102.57 1095,-96.5 1106.62,-89.11 1120.64,-83.43 1133.19,-79.29"/>
</g>
<!-- 150 -->
<g id="node46" class="node">
<title>150</title>
<polygon fill="none" stroke="black" points="1428.48,-367 1258.48,-367 1258.48,-348 1428.48,-348 1428.48,-367"/>
<text text-anchor="middle" x="1343.48" y="-355" font-family="Times,serif" font-size="10.00">.build/windows/bin/hi&#45;repl.exe</text>
</g>
<!-- 151 -->
<g id="node47" class="node">
<title>151</title>
<ellipse fill="none" stroke="black" cx="1167.74" cy="-357.5" rx="53.98" ry="13.37"/>
<text text-anchor="middle" x="1167.74" y="-355" font-family="Times,serif" font-size="10.00">ld_windows</text>
</g>
<!-- 151&#45;&gt;150 -->
<g id="edge53" class="edge">
<title>151&#45;&gt;150</title>
<path fill="none" stroke="black" d="M1221.81,-357.5C1229.79,-357.5 1238.22,-357.5 1246.77,-357.5"/>
<polygon fill="black" stroke="black" points="1246.53,-361 1256.53,-357.5 1246.53,-354 1246.53,-361"/>
</g>
<!-- 154&#45;&gt;151 -->
<g id="edge54" class="edge">
<title>154&#45;&gt;151</title>
<path fill="none" stroke="black" d="M1048.9,-422.57C1058.45,-420.12 1068.13,-417.13 1077,-413.5 1104.2,-402.38 1132.45,-383.28 1149.82,-370.53"/>
</g>
<!-- 156 -->
<g id="node49" class="node">
<title>156</title>
<polygon fill="none" stroke="black" points="1077,-329 904,-329 904,-310 1077,-310 1077,-329"/>
<text text-anchor="middle" x="990.5" y="-317" font-family="Times,serif" font-size="10.00">.build/windows/lib/hello/hello.a</text>
</g>
<!-- 156&#45;&gt;151 -->
<g id="edge55" class="edge">
<title>156&#45;&gt;151</title>
<path fill="none" stroke="black" d="M1037.54,-329.48C1065.02,-335.44 1099.61,-342.94 1126.08,-348.68"/>
</g>
<!-- 208 -->
<g id="node64" class="node">
<title>208</title>
<ellipse fill="none" stroke="black" cx="1167.74" cy="-282.5" rx="53.98" ry="13.37"/>
<text text-anchor="middle" x="1167.74" y="-280" font-family="Times,serif" font-size="10.00">ld_windows</text>
</g>
<!-- 156&#45;&gt;208 -->
<g id="edge75" class="edge">
<title>156&#45;&gt;208</title>
<path fill="none" stroke="black" d="M1038.46,-309.58C1065.63,-303.85 1099.5,-296.7 1125.62,-291.18"/>
</g>
<!-- 158 -->
<g id="node50" class="node">
<title>158</title>
<polygon fill="none" stroke="black" points="1074,-291 907,-291 907,-272 1074,-272 1074,-291"/>
<text text-anchor="middle" x="990.5" y="-279" font-family="Times,serif" font-size="10.00">.build/windows/lib/utils/utils.a</text>
</g>
<!-- 158&#45;&gt;151 -->
<g id="edge56" class="edge">
<title>158&#45;&gt;151</title>
<path fill="none" stroke="black" d="M1049.38,-291.49C1058.78,-293.92 1068.29,-296.9 1077,-300.5 1104.46,-311.86 1132.87,-331.48 1150.18,-344.47"/>
</g>
<!-- 158&#45;&gt;208 -->
<g id="edge76" class="edge">
<title>158&#45;&gt;208</title>
<path fill="none" stroke="black" d="M1060.61,-271.51C1072.41,-270.77 1084.55,-270.62 1096,-271.5 1104.8,-272.18 1114.16,-273.33 1123.09,-274.63"/>
</g>
<!-- 160 -->
<g id="node51" class="node">
<title>160</title>
<polygon fill="none" stroke="black" points="1067,-368 914,-368 914,-349 1067,-349 1067,-368"/>
<text text-anchor="middle" x="990.5" y="-356" font-family="Times,serif" font-size="10.00">.build/arch/windows/arch.a</text>
</g>
<!-- 160&#45;&gt;151 -->
<g id="edge57" class="edge">
<title>160&#45;&gt;151</title>
<path fill="none" stroke="black" d="M1060.61,-368.49C1072.41,-369.23 1084.55,-369.38 1096,-368.5 1104.8,-367.82 1114.16,-366.67 1123.09,-365.37"/>
</g>
<!-- 160&#45;&gt;208 -->
<g id="edge77" class="edge">
<title>160&#45;&gt;208</title>
<path fill="none" stroke="black" d="M1042.97,-348.59C1054.39,-345.64 1066.28,-341.97 1077,-337.5 1103.81,-326.31 1131.94,-307.8 1149.4,-295.39"/>
</g>
<!-- 166&#45;&gt;156 -->
<g id="edge59" class="edge">
<title>166&#45;&gt;156</title>
<path fill="none" stroke="black" d="M804.25,-303.78C832.31,-306.16 863.68,-308.82 892.51,-311.27"/>
<polygon fill="black" stroke="black" points="892.08,-314.74 902.34,-312.1 892.67,-307.77 892.08,-314.74"/>
<text text-anchor="middle" x="854" y="-313.5" font-family="Times,serif" font-size="10.00"> ar_windows</text>
</g>
<!-- 172 -->
<g id="node53" class="node">
<title>172</title>
<ellipse fill="none" stroke="black" cx="717.5" cy="-252.5" rx="54.39" ry="13.37"/>
<text text-anchor="middle" x="717.5" y="-250" font-family="Times,serif" font-size="10.00">ar_windows</text>
</g>
<!-- 172&#45;&gt;158 -->
<g id="edge61" class="edge">
<title>172&#45;&gt;158</title>
<path fill="none" stroke="black" d="M770.27,-256.01C803.41,-258.46 847.29,-262.08 886,-266.5 894.98,-267.52 904.38,-268.72 913.69,-269.98"/>
<polygon fill="black" stroke="black" points="913.1,-273.43 923.48,-271.33 914.05,-266.49 913.1,-273.43"/>
</g>
<!-- 175&#45;&gt;172 -->
<g id="edge62" class="edge">
<title>175&#45;&gt;172</title>
<path fill="none" stroke="black" d="M515.96,-224.48C564.44,-231.26 627.17,-240.02 669.45,-245.93"/>
</g>
<!-- 177&#45;&gt;172 -->
<g id="edge63" class="edge">
<title>177&#45;&gt;172</title>
<path fill="none" stroke="black" d="M527.22,-252.5C571.29,-252.5 624.24,-252.5 662.91,-252.5"/>
</g>
<!-- 186 -->
<g id="node56" class="node">
<title>186</title>
<ellipse fill="none" stroke="black" cx="717.5" cy="-402.5" rx="54.39" ry="13.37"/>
<text text-anchor="middle" x="717.5" y="-400" font-family="Times,serif" font-size="10.00">ar_windows</text>
</g>
<!-- 186&#45;&gt;160 -->
<g id="edge66" class="edge">
<title>186&#45;&gt;160</title>
<path fill="none" stroke="black" d="M758.17,-393.3C777.38,-389.04 800.82,-384.14 822,-380.5 848.06,-376.03 876.54,-371.97 902.5,-368.6"/>
<polygon fill="black" stroke="black" points="902.87,-372.08 912.35,-367.34 901.98,-365.14 902.87,-372.08"/>
</g>
<!-- 189 -->
<g id="node57" class="node">
<title>189</title>
<polygon fill="none" stroke="black" points="517.5,-410 369.5,-410 369.5,-391 517.5,-391 517.5,-410"/>
<text text-anchor="middle" x="443.5" y="-398" font-family="Times,serif" font-size="10.00">.build/arch/windows/ask.o</text>
</g>
<!-- 189&#45;&gt;186 -->
<g id="edge67" class="edge">
<title>189&#45;&gt;186</title>
<path fill="none" stroke="black" d="M517.75,-401.04C563.54,-401.38 621.48,-401.8 662.97,-402.11"/>
</g>
<!-- 191 -->
<g id="node58" class="node">
<title>191</title>
<polygon fill="none" stroke="black" points="531,-497 356,-497 356,-478 531,-478 531,-497"/>
<text text-anchor="middle" x="443.5" y="-485" font-family="Times,serif" font-size="10.00">.build/arch/windows/get_arch.o</text>
</g>
<!-- 191&#45;&gt;186 -->
<g id="edge68" class="edge">
<title>191&#45;&gt;186</title>
<path fill="none" stroke="black" d="M531.15,-489.69C559.49,-486.57 589.66,-478.72 613,-461.5 627.72,-450.64 616.84,-436.07 631,-424.5 641.21,-416.16 654.21,-410.94 666.97,-407.69"/>
</g>
<!-- 193 -->
<g id="node59" class="node">
<title>193</title>
<polygon fill="none" stroke="black" points="516.5,-460 370.5,-460 370.5,-441 516.5,-441 516.5,-460"/>
<text text-anchor="middle" x="443.5" y="-448" font-family="Times,serif" font-size="10.00">.build/arch/windows/say.o</text>
</g>
<!-- 193&#45;&gt;186 -->
<g id="edge69" class="edge">
<title>193&#45;&gt;186</title>
<path fill="none" stroke="black" d="M516.77,-455.52C547.41,-455.21 582.92,-451.51 613,-439.5 622.67,-435.64 621.73,-429.25 631,-424.5 643.55,-418.07 658.12,-413.42 671.64,-410.1"/>
</g>
<!-- 196 -->
<g id="node60" class="node">
<title>196</title>
<polygon fill="none" stroke="black" points="128.5,-410 13.5,-410 13.5,-391 128.5,-391 128.5,-410"/>
<text text-anchor="middle" x="71" y="-398" font-family="Times,serif" font-size="10.00">arch/windows/ask.c</text>
</g>
<!-- 196&#45;&gt;189 -->
<g id="edge70" class="edge">
<title>196&#45;&gt;189</title>
<path fill="none" stroke="black" d="M128.67,-400.5C189.74,-400.5 287.58,-400.5 357.78,-400.5"/>
<polygon fill="black" stroke="black" points="357.73,-404 367.73,-400.5 357.73,-397 357.73,-404"/>
<text text-anchor="middle" x="249" y="-403.5" font-family="Times,serif" font-size="10.00"> cc_windows</text>
</g>
<!-- 200 -->
<g id="node61" class="node">
<title>200</title>
<polygon fill="none" stroke="black" points="142,-497 0,-497 0,-478 142,-478 142,-497"/>
<text text-anchor="middle" x="71" y="-485" font-family="Times,serif" font-size="10.00">arch/windows/get_arch.c</text>
</g>
<!-- 200&#45;&gt;191 -->
<g id="edge71" class="edge">
<title>200&#45;&gt;191</title>
<path fill="none" stroke="black" d="M142.12,-487.5C199.32,-487.5 280.77,-487.5 344.43,-487.5"/>
<polygon fill="black" stroke="black" points="344.18,-491 354.18,-487.5 344.18,-484 344.18,-491"/>
<text text-anchor="middle" x="249" y="-490.5" font-family="Times,serif" font-size="10.00"> cc_windows</text>
</g>
<!-- 204 -->
<g id="node62" class="node">
<title>204</title>
<polygon fill="none" stroke="black" points="127.5,-460 14.5,-460 14.5,-441 127.5,-441 127.5,-460"/>
<text text-anchor="middle" x="71" y="-448" font-family="Times,serif" font-size="10.00">arch/windows/say.c</text>
</g>
<!-- 204&#45;&gt;193 -->
<g id="edge72" class="edge">
<title>204&#45;&gt;193</title>
<path fill="none" stroke="black" d="M127.87,-450.5C189.15,-450.5 288.15,-450.5 358.73,-450.5"/>
<polygon fill="black" stroke="black" points="358.73,-454 368.73,-450.5 358.73,-447 358.73,-454"/>
<text text-anchor="middle" x="249" y="-453.5" font-family="Times,serif" font-size="10.00"> cc_windows</text>
</g>
<!-- 207 -->
<g id="node63" class="node">
<title>207</title>
<polygon fill="none" stroke="black" points="1416.48,-292 1270.48,-292 1270.48,-273 1416.48,-273 1416.48,-292"/>
<text text-anchor="middle" x="1343.48" y="-280" font-family="Times,serif" font-size="10.00">.build/windows/bin/hi.exe</text>
</g>
<!-- 208&#45;&gt;207 -->
<g id="edge73" class="edge">
<title>208&#45;&gt;207</title>
<path fill="none" stroke="black" d="M1221.81,-282.5C1233.5,-282.5 1246.16,-282.5 1258.73,-282.5"/>
<polygon fill="black" stroke="black" points="1258.7,-286 1268.7,-282.5 1258.7,-279 1258.7,-286"/>
</g>
<!-- 211&#45;&gt;208 -->
<g id="edge74" class="edge">
<title>211&#45;&gt;208</title>
<path fill="none" stroke="black" d="M1039.45,-254.49C1051.7,-257.07 1064.84,-259.87 1077,-262.5 1093.22,-266.02 1111.08,-269.98 1126.56,-273.44"/>
</g>
<!-- 222 -->
<g id="node66" class="node">
<title>222</title>
<polygon fill="none" stroke="black" points="488,-666 399,-666 399,-647 488,-647 488,-666"/>
<text text-anchor="middle" x="443.5" y="-654" font-family="Times,serif" font-size="10.00">doc/graph.svg</text>
</g>
<!-- 223 -->
<g id="node67" class="node">
<title>223</title>
<polygon fill="none" stroke="black" points="106.5,-666 35.5,-666 35.5,-647 106.5,-647 106.5,-666"/>
<text text-anchor="middle" x="71" y="-654" font-family="Times,serif" font-size="10.00">build.ninja</text>
</g>
<!-- 223&#45;&gt;222 -->
<g id="edge79" class="edge">
<title>223&#45;&gt;222</title>
<path fill="none" stroke="black" d="M106.86,-656.5C171.37,-656.5 309.84,-656.5 387.25,-656.5"/>
<polygon fill="black" stroke="black" points="387.16,-660 397.16,-656.5 387.16,-653 387.16,-660"/>
<text text-anchor="middle" x="249" y="-659.5" font-family="Times,serif" font-size="10.00"> doc_graph.svg&#45;769e2bc466366e1a</text>
</g>
</g>
</svg>
