<?xml version="1.0" encoding="UTF-8" standalone="no"?>
<!DOCTYPE svg PUBLIC "-//W3C//DTD SVG 1.1//EN"
 "http://www.w3.org/Graphics/SVG/1.1/DTD/svg11.dtd">
<!-- Generated by graphviz version 7.1.0 (0)
 -->
<!-- Title: ninja Pages: 1 -->
<svg width="1443pt" height="676pt"
 viewBox="0.00 0.00 1443.48 675.50" xmlns="http://www.w3.org/2000/svg" xmlns:xlink="http://www.w3.org/1999/xlink">
<g id="graph0" class="graph" transform="scale(1 1) rotate(0) translate(4 671.5)">
<title>ninja</title>
<polygon fill="white" stroke="none" points="-4,4 -4,-671.5 1439.48,-671.5 1439.48,4 -4,4"/>
<!-- 1 -->
<g id="node1" class="node">
<title>1</title>
<polygon fill="none" stroke="black" points="1415.98,-579 1284.98,-579 1284.98,-560 1415.98,-560 1415.98,-579"/>
<text text-anchor="middle" x="1350.48" y="-567" font-family="Times,serif" font-size="10.00">.build/linux/bin/hi&#45;repl</text>
</g>
<!-- 2 -->
<g id="node2" class="node">
<title>2</title>
<ellipse fill="none" stroke="black" cx="1174.74" cy="-569.5" rx="40.11" ry="13.37"/>
<text text-anchor="middle" x="1174.74" y="-567" font-family="Times,serif" font-size="10.00">ld_linux</text>
</g>
<!-- 2&#45;&gt;1 -->
<g id="edge1" class="edge">
<title>2&#45;&gt;1</title>
<path fill="none" stroke="black" d="M1215.16,-569.5C1232.4,-569.5 1253.23,-569.5 1273.29,-569.5"/>
<polygon fill="black" stroke="black" points="1273.14,-573 1283.14,-569.5 1273.14,-566 1273.14,-573"/>
</g>
<!-- 5 -->
<g id="node3" class="node">
<title>5</title>
<polygon fill="none" stroke="black" points="1067.5,-516 927.5,-516 927.5,-497 1067.5,-497 1067.5,-516"/>
<text text-anchor="middle" x="997.5" y="-504" font-family="Times,serif" font-size="10.00">.build/linux/bin/hi&#45;repl.o</text>
</g>
<!-- 5&#45;&gt;2 -->
<g id="edge2" class="edge">
<title>5&#45;&gt;2</title>
<path fill="none" stroke="black" d="M1065.31,-516.38C1071.83,-518.57 1078.17,-521.24 1084,-524.5 1094.15,-530.18 1092.27,-537.12 1102,-543.5 1114.08,-551.41 1128.88,-557.3 1141.89,-561.46"/>
</g>
<!-- 7 -->
<g id="node4" class="node">
<title>7</title>
<polygon fill="none" stroke="black" points="1075,-553 920,-553 920,-534 1075,-534 1075,-553"/>
<text text-anchor="middle" x="997.5" y="-541" font-family="Times,serif" font-size="10.00">.build/linux/lib/hello/hello.a</text>
</g>
<!-- 7&#45;&gt;2 -->
<g id="edge3" class="edge">
<title>7&#45;&gt;2</title>
<path fill="none" stroke="black" d="M1042.52,-553.43C1055.87,-556.54 1070.56,-560.06 1084,-563.5 1092.04,-565.56 1093.78,-567.32 1102,-568.5 1112.48,-570 1123.91,-570.62 1134.5,-570.77"/>
</g>
<!-- 63 -->
<g id="node23" class="node">
<title>63</title>
<ellipse fill="none" stroke="black" cx="1174.74" cy="-470.5" rx="40.11" ry="13.37"/>
<text text-anchor="middle" x="1174.74" y="-468" font-family="Times,serif" font-size="10.00">ld_linux</text>
</g>
<!-- 7&#45;&gt;63 -->
<g id="edge23" class="edge">
<title>7&#45;&gt;63</title>
<path fill="none" stroke="black" d="M1066.87,-533.53C1072.94,-531.12 1078.76,-528.15 1084,-524.5 1096.13,-516.04 1090.44,-505.73 1102,-496.5 1113.08,-487.66 1127.43,-481.67 1140.38,-477.68"/>
</g>
<!-- 9 -->
<g id="node5" class="node">
<title>9</title>
<polygon fill="none" stroke="black" points="1072,-479 923,-479 923,-460 1072,-460 1072,-479"/>
<text text-anchor="middle" x="997.5" y="-467" font-family="Times,serif" font-size="10.00">.build/linux/lib/utils/utils.a</text>
</g>
<!-- 9&#45;&gt;2 -->
<g id="edge4" class="edge">
<title>9&#45;&gt;2</title>
<path fill="none" stroke="black" d="M1063.73,-479.4C1070.76,-481.58 1077.66,-484.25 1084,-487.5 1117.61,-504.74 1148.1,-537.96 1163.39,-556.39"/>
</g>
<!-- 9&#45;&gt;63 -->
<g id="edge24" class="edge">
<title>9&#45;&gt;63</title>
<path fill="none" stroke="black" d="M1072.31,-469.92C1093.64,-470.04 1116.08,-470.17 1134.42,-470.28"/>
</g>
<!-- 11 -->
<g id="node6" class="node">
<title>11</title>
<polygon fill="none" stroke="black" points="1064.5,-592 930.5,-592 930.5,-573 1064.5,-573 1064.5,-592"/>
<text text-anchor="middle" x="997.5" y="-580" font-family="Times,serif" font-size="10.00">.build/arch/linux/arch.a</text>
</g>
<!-- 11&#45;&gt;2 -->
<g id="edge5" class="edge">
<title>11&#45;&gt;2</title>
<path fill="none" stroke="black" d="M1043.41,-592.49C1061.92,-595.25 1083.56,-596.71 1103,-593.5 1118.74,-590.9 1135.68,-585.26 1149.04,-580.1"/>
</g>
<!-- 11&#45;&gt;63 -->
<g id="edge25" class="edge">
<title>11&#45;&gt;63</title>
<path fill="none" stroke="black" d="M1057.64,-572.53C1066.79,-569.71 1075.89,-566.11 1084,-561.5 1119.31,-541.44 1149.99,-503.56 1164.62,-483.59"/>
</g>
<!-- 14 -->
<g id="node7" class="node">
<title>14</title>
<polygon fill="none" stroke="black" points="763.5,-453 685.5,-453 685.5,-434 763.5,-434 763.5,-453"/>
<text text-anchor="middle" x="724.5" y="-441" font-family="Times,serif" font-size="10.00">bin/hi&#45;repl.c</text>
</g>
<!-- 14&#45;&gt;5 -->
<g id="edge6" class="edge">
<title>14&#45;&gt;5</title>
<path fill="none" stroke="black" d="M747.66,-453.47C768.31,-462.36 800.17,-475.1 829,-482.5 857.01,-489.69 888.24,-494.9 916.08,-498.59"/>
<polygon fill="black" stroke="black" points="915.52,-502.05 925.88,-499.84 916.4,-495.1 915.52,-502.05"/>
<text text-anchor="middle" x="861" y="-498.5" font-family="Times,serif" font-size="10.00"> cc_linux</text>
</g>
<!-- 82 -->
<g id="node28" class="node">
<title>82</title>
<polygon fill="none" stroke="black" points="1070.5,-217 924.5,-217 924.5,-198 1070.5,-198 1070.5,-217"/>
<text text-anchor="middle" x="997.5" y="-205" font-family="Times,serif" font-size="10.00">.build/macos/bin/hi&#45;repl.o</text>
</g>
<!-- 14&#45;&gt;82 -->
<g id="edge32" class="edge">
<title>14&#45;&gt;82</title>
<path fill="none" stroke="black" d="M763.71,-440.45C779.26,-437.88 796.86,-433.15 811,-424.5 859.74,-394.69 868.93,-377.31 893,-325.5 912.03,-284.55 879.54,-257.9 911,-225.5 912.19,-224.28 913.44,-223.12 914.74,-222.04"/>
<polygon fill="black" stroke="black" points="916.39,-225.15 922.77,-216.69 912.5,-219.33 916.39,-225.15"/>
<text text-anchor="middle" x="861" y="-416.5" font-family="Times,serif" font-size="10.00"> cc_macos</text>
</g>
<!-- 154 -->
<g id="node48" class="node">
<title>154</title>
<polygon fill="none" stroke="black" points="1076.5,-442 918.5,-442 918.5,-423 1076.5,-423 1076.5,-442"/>
<text text-anchor="middle" x="997.5" y="-430" font-family="Times,serif" font-size="10.00">.build/windows/bin/hi&#45;repl.o</text>
</g>
<!-- 14&#45;&gt;154 -->
<g id="edge58" class="edge">
<title>14&#45;&gt;154</title>
<path fill="none" stroke="black" d="M763.75,-441.95C800.7,-440.45 858.02,-438.12 906.53,-436.15"/>
<polygon fill="black" stroke="black" points="906.65,-439.65 916.5,-435.75 906.37,-432.66 906.65,-439.65"/>
<text text-anchor="middle" x="861" y="-442.5" font-family="Times,serif" font-size="10.00"> cc_windows</text>
</g>
<!-- 18 -->
<g id="node8" class="node">
<title>18</title>
<polygon fill="none" stroke="black" points="802,-524 647,-524 647,-505 802,-505 802,-524"/>
<text text-anchor="middle" x="724.5" y="-512" font-family="Times,serif" font-size="10.00">.build/linux/lib/hello/hello.o</text>
</g>
<!-- 18&#45;&gt;7 -->
<g id="edge7" class="edge">
<title>18&#45;&gt;7</title>
<path fill="none" stroke="black" d="M802.43,-522.73C835.47,-526.27 874.26,-530.42 908.44,-534.08"/>
<polygon fill="black" stroke="black" points="908.02,-537.55 918.34,-535.14 908.77,-530.59 908.02,-537.55"/>
<text text-anchor="middle" x="861" y="-535.5" font-family="Times,serif" font-size="10.00"> ar_linux</text>
</g>
<!-- 21 -->
<g id="node9" class="node">
<title>21</title>
<polygon fill="none" stroke="black" points="497,-299 404,-299 404,-280 497,-280 497,-299"/>
<text text-anchor="middle" x="450.5" y="-287" font-family="Times,serif" font-size="10.00">lib/hello/hello.c</text>
</g>
<!-- 21&#45;&gt;18 -->
<g id="edge8" class="edge">
<title>21&#45;&gt;18</title>
<path fill="none" stroke="black" d="M497.28,-292.22C511.28,-294.77 526.1,-299.36 538,-307.5 605.35,-353.58 579.69,-404.4 638,-461.5 653.71,-476.88 674.64,-489.95 691.86,-499.26"/>
<polygon fill="black" stroke="black" points="690.2,-502.34 700.68,-503.86 693.43,-496.13 690.2,-502.34"/>
<text text-anchor="middle" x="588" y="-441.5" font-family="Times,serif" font-size="10.00"> cc_linux</text>
</g>
<!-- 94 -->
<g id="node32" class="node">
<title>94</title>
<polygon fill="none" stroke="black" points="805,-184 644,-184 644,-165 805,-165 805,-184"/>
<text text-anchor="middle" x="724.5" y="-172" font-family="Times,serif" font-size="10.00">.build/macos/lib/hello/hello.o</text>
</g>
<!-- 21&#45;&gt;94 -->
<g id="edge34" class="edge">
<title>21&#45;&gt;94</title>
<path fill="none" stroke="black" d="M497.2,-283.41C510.75,-280.57 525.34,-276.45 538,-270.5 589.01,-246.53 586.88,-216.25 638,-192.5 641.55,-190.85 645.25,-189.35 649.03,-187.99"/>
<polygon fill="black" stroke="black" points="649.99,-191.36 658.43,-184.96 647.84,-184.7 649.99,-191.36"/>
<text text-anchor="middle" x="588" y="-263.5" font-family="Times,serif" font-size="10.00"> cc_macos</text>
</g>
<!-- 166 -->
<g id="node52" class="node">
<title>166</title>
<polygon fill="none" stroke="black" points="811,-306 638,-306 638,-287 811,-287 811,-306"/>
<text text-anchor="middle" x="724.5" y="-294" font-family="Times,serif" font-size="10.00">.build/windows/lib/hello/hello.o</text>
</g>
<!-- 21&#45;&gt;166 -->
<g id="edge60" class="edge">
<title>21&#45;&gt;166</title>
<path fill="none" stroke="black" d="M497.33,-290.68C532.5,-291.58 582.31,-292.87 626.24,-294"/>
<polygon fill="black" stroke="black" points="625.96,-297.49 636.05,-294.25 626.14,-290.49 625.96,-297.49"/>
<text text-anchor="middle" x="588" y="-297.5" font-family="Times,serif" font-size="10.00"> cc_windows</text>
</g>
<!-- 25 -->
<g id="node10" class="node">
<title>25</title>
<ellipse fill="none" stroke="black" cx="724.5" cy="-357.5" rx="41.02" ry="13.37"/>
<text text-anchor="middle" x="724.5" y="-355" font-family="Times,serif" font-size="10.00">ar_linux</text>
</g>
<!-- 25&#45;&gt;9 -->
<g id="edge9" class="edge">
<title>25&#45;&gt;9</title>
<path fill="none" stroke="black" d="M765.25,-359.53C781.42,-362.34 799.08,-368.29 811,-380.5 834.64,-404.72 803.35,-432.42 829,-454.5 856.83,-478.46 897.75,-482.49 932.18,-480.4"/>
<polygon fill="black" stroke="black" points="932.38,-483.9 942.07,-479.6 931.82,-476.92 932.38,-483.9"/>
</g>
<!-- 28 -->
<g id="node11" class="node">
<title>28</title>
<polygon fill="none" stroke="black" points="520.5,-336 380.5,-336 380.5,-317 520.5,-317 520.5,-336"/>
<text text-anchor="middle" x="450.5" y="-324" font-family="Times,serif" font-size="10.00">.build/linux/lib/utils/fib.o</text>
</g>
<!-- 28&#45;&gt;25 -->
<g id="edge10" class="edge">
<title>28&#45;&gt;25</title>
<path fill="none" stroke="black" d="M520.84,-334.4C573.1,-340.36 642.8,-348.3 685.34,-353.15"/>
</g>
<!-- 30 -->
<g id="node12" class="node">
<title>30</title>
<polygon fill="none" stroke="black" points="525,-373 376,-373 376,-354 525,-354 525,-373"/>
<text text-anchor="middle" x="450.5" y="-361" font-family="Times,serif" font-size="10.00">.build/linux/lib/utils/utils.o</text>
</g>
<!-- 30&#45;&gt;25 -->
<g id="edge11" class="edge">
<title>30&#45;&gt;25</title>
<path fill="none" stroke="black" d="M525.47,-361.87C576.28,-360.75 641.79,-359.3 683.24,-358.39"/>
</g>
<!-- 33 -->
<g id="node13" class="node">
<title>33</title>
<polygon fill="none" stroke="black" points="110.5,-201 31.5,-201 31.5,-182 110.5,-182 110.5,-201"/>
<text text-anchor="middle" x="71" y="-189" font-family="Times,serif" font-size="10.00">lib/utils/fib.c</text>
</g>
<!-- 33&#45;&gt;28 -->
<g id="edge12" class="edge">
<title>33&#45;&gt;28</title>
<path fill="none" stroke="black" d="M110.96,-197.01C126.24,-199.11 143.93,-201.49 160,-203.5 201.06,-208.63 314.31,-196.75 345,-224.5 373,-249.82 336.34,-280.77 363,-307.5 365.21,-309.72 367.62,-311.71 370.18,-313.48"/>
<polygon fill="black" stroke="black" points="368.29,-316.43 378.72,-318.3 371.73,-310.33 368.29,-316.43"/>
<text text-anchor="middle" x="252.5" y="-227.5" font-family="Times,serif" font-size="10.00"> cc_linux</text>
</g>
<!-- 103 -->
<g id="node34" class="node">
<title>103</title>
<polygon fill="none" stroke="black" points="524,-144 377,-144 377,-125 524,-125 524,-144"/>
<text text-anchor="middle" x="450.5" y="-132" font-family="Times,serif" font-size="10.00">.build/macos/lib/utils/fib.o</text>
</g>
<!-- 33&#45;&gt;103 -->
<g id="edge38" class="edge">
<title>33&#45;&gt;103</title>
<path fill="none" stroke="black" d="M110.85,-182.39C126.12,-179 143.83,-175.3 160,-172.5 228.83,-160.57 307.45,-150.47 365.38,-143.69"/>
<polygon fill="black" stroke="black" points="365.64,-147.19 375.17,-142.56 364.83,-140.23 365.64,-147.19"/>
<text text-anchor="middle" x="252.5" y="-175.5" font-family="Times,serif" font-size="10.00"> cc_macos</text>
</g>
<!-- 175 -->
<g id="node54" class="node">
<title>175</title>
<polygon fill="none" stroke="black" points="530,-224 371,-224 371,-205 530,-205 530,-224"/>
<text text-anchor="middle" x="450.5" y="-212" font-family="Times,serif" font-size="10.00">.build/windows/lib/utils/fib.o</text>
</g>
<!-- 33&#45;&gt;175 -->
<g id="edge64" class="edge">
<title>33&#45;&gt;175</title>
<path fill="none" stroke="black" d="M110.56,-189.18C163.56,-186.55 261.81,-183.68 345,-192.5 363.3,-194.44 383.12,-198.18 400.53,-202.04"/>
<polygon fill="black" stroke="black" points="399.58,-205.41 410.1,-204.23 401.14,-198.59 399.58,-205.41"/>
<text text-anchor="middle" x="252.5" y="-195.5" font-family="Times,serif" font-size="10.00"> cc_windows</text>
</g>
<!-- 37 -->
<g id="node14" class="node">
<title>37</title>
<polygon fill="none" stroke="black" points="114.5,-303 27.5,-303 27.5,-284 114.5,-284 114.5,-303"/>
<text text-anchor="middle" x="71" y="-291" font-family="Times,serif" font-size="10.00">lib/utils/utils.c</text>
</g>
<!-- 37&#45;&gt;30 -->
<g id="edge13" class="edge">
<title>37&#45;&gt;30</title>
<path fill="none" stroke="black" d="M114.94,-301.46C180.88,-313.69 307.52,-337.17 384.67,-351.48"/>
<polygon fill="black" stroke="black" points="383.72,-354.86 394.19,-353.24 385,-347.98 383.72,-354.86"/>
<text text-anchor="middle" x="252.5" y="-346.5" font-family="Times,serif" font-size="10.00"> cc_linux</text>
</g>
<!-- 105 -->
<g id="node35" class="node">
<title>105</title>
<polygon fill="none" stroke="black" points="528,-185 373,-185 373,-166 528,-166 528,-185"/>
<text text-anchor="middle" x="450.5" y="-173" font-family="Times,serif" font-size="10.00">.build/macos/lib/utils/utils.o</text>
</g>
<!-- 37&#45;&gt;105 -->
<g id="edge39" class="edge">
<title>37&#45;&gt;105</title>
<path fill="none" stroke="black" d="M92.46,-283.55C109.98,-275.49 136.08,-264.5 160,-258.5 200.13,-248.43 311.8,-262.19 345,-237.5 361.3,-225.38 347.42,-208.53 363,-195.5 365.09,-193.75 367.31,-192.14 369.63,-190.67"/>
<polygon fill="black" stroke="black" points="371.11,-193.85 378.29,-186.07 367.82,-187.67 371.11,-193.85"/>
<text text-anchor="middle" x="252.5" y="-261.5" font-family="Times,serif" font-size="10.00"> cc_macos</text>
</g>
<!-- 177 -->
<g id="node55" class="node">
<title>177</title>
<polygon fill="none" stroke="black" points="534,-262 367,-262 367,-243 534,-243 534,-262"/>
<text text-anchor="middle" x="450.5" y="-250" font-family="Times,serif" font-size="10.00">.build/windows/lib/utils/utils.o</text>
</g>
<!-- 37&#45;&gt;177 -->
<g id="edge65" class="edge">
<title>37&#45;&gt;177</title>
<path fill="none" stroke="black" d="M114.7,-291.38C168.55,-288.4 263.91,-282.11 345,-271.5 359.5,-269.6 375.04,-267.06 389.59,-264.45"/>
<polygon fill="black" stroke="black" points="389.79,-267.97 399,-262.72 388.53,-261.08 389.79,-267.97"/>
<text text-anchor="middle" x="252.5" y="-291.5" font-family="Times,serif" font-size="10.00"> cc_windows</text>
</g>
<!-- 41 -->
<g id="node15" class="node">
<title>41</title>
<ellipse fill="none" stroke="black" cx="724.5" cy="-582.5" rx="41.02" ry="13.37"/>
<text text-anchor="middle" x="724.5" y="-580" font-family="Times,serif" font-size="10.00">ar_linux</text>
</g>
<!-- 41&#45;&gt;11 -->
<g id="edge14" class="edge">
<title>41&#45;&gt;11</title>
<path fill="none" stroke="black" d="M765.78,-582.5C806,-582.5 868.84,-582.5 918.79,-582.5"/>
<polygon fill="black" stroke="black" points="918.7,-586 928.7,-582.5 918.7,-579 918.7,-586"/>
</g>
<!-- 44 -->
<g id="node16" class="node">
<title>44</title>
<polygon fill="none" stroke="black" points="515,-629 386,-629 386,-610 515,-610 515,-629"/>
<text text-anchor="middle" x="450.5" y="-617" font-family="Times,serif" font-size="10.00">.build/arch/linux/ask.o</text>
</g>
<!-- 44&#45;&gt;41 -->
<g id="edge15" class="edge">
<title>44&#45;&gt;41</title>
<path fill="none" stroke="black" d="M515.27,-610.83C568.35,-603.61 642.09,-593.57 686.09,-587.59"/>
</g>
<!-- 46 -->
<g id="node17" class="node">
<title>46</title>
<polygon fill="none" stroke="black" points="528.5,-592 372.5,-592 372.5,-573 528.5,-573 528.5,-592"/>
<text text-anchor="middle" x="450.5" y="-580" font-family="Times,serif" font-size="10.00">.build/arch/linux/get_arch.o</text>
</g>
<!-- 46&#45;&gt;41 -->
<g id="edge16" class="edge">
<title>46&#45;&gt;41</title>
<path fill="none" stroke="black" d="M528.72,-582.5C578.98,-582.5 642.5,-582.5 683.07,-582.5"/>
</g>
<!-- 48 -->
<g id="node18" class="node">
<title>48</title>
<polygon fill="none" stroke="black" points="514.5,-555 386.5,-555 386.5,-536 514.5,-536 514.5,-555"/>
<text text-anchor="middle" x="450.5" y="-543" font-family="Times,serif" font-size="10.00">.build/arch/linux/say.o</text>
</g>
<!-- 48&#45;&gt;41 -->
<g id="edge17" class="edge">
<title>48&#45;&gt;41</title>
<path fill="none" stroke="black" d="M514.93,-554.13C567.99,-561.35 641.89,-571.4 685.99,-577.4"/>
</g>
<!-- 51 -->
<g id="node19" class="node">
<title>51</title>
<polygon fill="none" stroke="black" points="119,-629 23,-629 23,-610 119,-610 119,-629"/>
<text text-anchor="middle" x="71" y="-617" font-family="Times,serif" font-size="10.00">arch/linux/ask.c</text>
</g>
<!-- 51&#45;&gt;44 -->
<g id="edge18" class="edge">
<title>51&#45;&gt;44</title>
<path fill="none" stroke="black" d="M119.43,-619.5C183.47,-619.5 298.3,-619.5 374.2,-619.5"/>
<polygon fill="black" stroke="black" points="374.06,-623 384.06,-619.5 374.06,-616 374.06,-623"/>
<text text-anchor="middle" x="252.5" y="-622.5" font-family="Times,serif" font-size="10.00"> cc_linux</text>
</g>
<!-- 55 -->
<g id="node20" class="node">
<title>55</title>
<polygon fill="none" stroke="black" points="132.5,-592 9.5,-592 9.5,-573 132.5,-573 132.5,-592"/>
<text text-anchor="middle" x="71" y="-580" font-family="Times,serif" font-size="10.00">arch/linux/get_arch.c</text>
</g>
<!-- 55&#45;&gt;46 -->
<g id="edge19" class="edge">
<title>55&#45;&gt;46</title>
<path fill="none" stroke="black" d="M132.65,-582.5C194.35,-582.5 290.62,-582.5 360.86,-582.5"/>
<polygon fill="black" stroke="black" points="360.82,-586 370.82,-582.5 360.82,-579 360.82,-586"/>
<text text-anchor="middle" x="252.5" y="-585.5" font-family="Times,serif" font-size="10.00"> cc_linux</text>
</g>
<!-- 59 -->
<g id="node21" class="node">
<title>59</title>
<polygon fill="none" stroke="black" points="118.5,-555 23.5,-555 23.5,-536 118.5,-536 118.5,-555"/>
<text text-anchor="middle" x="71" y="-543" font-family="Times,serif" font-size="10.00">arch/linux/say.c</text>
</g>
<!-- 59&#45;&gt;48 -->
<g id="edge20" class="edge">
<title>59&#45;&gt;48</title>
<path fill="none" stroke="black" d="M118.67,-545.5C182.74,-545.5 298.68,-545.5 374.88,-545.5"/>
<polygon fill="black" stroke="black" points="374.77,-549 384.77,-545.5 374.77,-542 374.77,-549"/>
<text text-anchor="middle" x="252.5" y="-548.5" font-family="Times,serif" font-size="10.00"> cc_linux</text>
</g>
<!-- 62 -->
<g id="node22" class="node">
<title>62</title>
<polygon fill="none" stroke="black" points="1403.98,-480 1296.98,-480 1296.98,-461 1403.98,-461 1403.98,-480"/>
<text text-anchor="middle" x="1350.48" y="-468" font-family="Times,serif" font-size="10.00">.build/linux/bin/hi</text>
</g>
<!-- 63&#45;&gt;62 -->
<g id="edge21" class="edge">
<title>63&#45;&gt;62</title>
<path fill="none" stroke="black" d="M1215.16,-470.5C1235.9,-470.5 1261.84,-470.5 1285.38,-470.5"/>
<polygon fill="black" stroke="black" points="1285.19,-474 1295.19,-470.5 1285.19,-467 1285.19,-474"/>
</g>
<!-- 66 -->
<g id="node24" class="node">
<title>66</title>
<polygon fill="none" stroke="black" points="1055.5,-405 939.5,-405 939.5,-386 1055.5,-386 1055.5,-405"/>
<text text-anchor="middle" x="997.5" y="-393" font-family="Times,serif" font-size="10.00">.build/linux/bin/hi.o</text>
</g>
<!-- 66&#45;&gt;63 -->
<g id="edge22" class="edge">
<title>66&#45;&gt;63</title>
<path fill="none" stroke="black" d="M1055.92,-404.62C1065.48,-406.98 1075.15,-409.9 1084,-413.5 1111.86,-424.85 1140.63,-444.85 1157.85,-457.89"/>
</g>
<!-- 75 -->
<g id="node25" class="node">
<title>75</title>
<polygon fill="none" stroke="black" points="751.5,-221 697.5,-221 697.5,-202 751.5,-202 751.5,-221"/>
<text text-anchor="middle" x="724.5" y="-209" font-family="Times,serif" font-size="10.00">bin/hi.c</text>
</g>
<!-- 75&#45;&gt;66 -->
<g id="edge26" class="edge">
<title>75&#45;&gt;66</title>
<path fill="none" stroke="black" d="M751.73,-213.85C769.27,-216.24 792.45,-221.02 811,-230.5 820.53,-235.37 820.61,-239.86 829,-246.5 856.26,-268.09 873.85,-262.48 893,-291.5 914.27,-323.73 883.83,-349.06 911,-376.5 916.05,-381.61 922.16,-385.47 928.75,-388.39"/>
<polygon fill="black" stroke="black" points="927.4,-391.62 938,-391.71 929.77,-385.04 927.4,-391.62"/>
<text text-anchor="middle" x="861" y="-294.5" font-family="Times,serif" font-size="10.00"> cc_linux</text>
</g>
<!-- 139 -->
<g id="node45" class="node">
<title>139</title>
<polygon fill="none" stroke="black" points="1058.5,-143 936.5,-143 936.5,-124 1058.5,-124 1058.5,-143"/>
<text text-anchor="middle" x="997.5" y="-131" font-family="Times,serif" font-size="10.00">.build/macos/bin/hi.o</text>
</g>
<!-- 75&#45;&gt;139 -->
<g id="edge52" class="edge">
<title>75&#45;&gt;139</title>
<path fill="none" stroke="black" d="M751.87,-211.34C770.16,-209.97 794.15,-205.51 811,-192.5 824.85,-181.81 814.75,-167.65 829,-157.5 856.38,-137.99 892.76,-131.13 924.61,-129.5"/>
<polygon fill="black" stroke="black" points="924.73,-133 934.61,-129.18 924.5,-126.01 924.73,-133"/>
<text text-anchor="middle" x="861" y="-160.5" font-family="Times,serif" font-size="10.00"> cc_macos</text>
</g>
<!-- 211 -->
<g id="node65" class="node">
<title>211</title>
<polygon fill="none" stroke="black" points="1064.5,-254 930.5,-254 930.5,-235 1064.5,-235 1064.5,-254"/>
<text text-anchor="middle" x="997.5" y="-242" font-family="Times,serif" font-size="10.00">.build/windows/bin/hi.o</text>
</g>
<!-- 75&#45;&gt;211 -->
<g id="edge78" class="edge">
<title>75&#45;&gt;211</title>
<path fill="none" stroke="black" d="M751.98,-214.72C790.29,-219.39 862.75,-228.21 918.88,-235.05"/>
<polygon fill="black" stroke="black" points="918.38,-238.51 928.73,-236.25 919.23,-231.56 918.38,-238.51"/>
<text text-anchor="middle" x="861" y="-234.5" font-family="Times,serif" font-size="10.00"> cc_windows</text>
</g>
<!-- 78 -->
<g id="node26" class="node">
<title>78</title>
<polygon fill="none" stroke="black" points="1418.98,-180 1281.98,-180 1281.98,-161 1418.98,-161 1418.98,-180"/>
<text text-anchor="middle" x="1350.48" y="-168" font-family="Times,serif" font-size="10.00">.build/macos/bin/hi&#45;repl</text>
</g>
<!-- 79 -->
<g id="node27" class="node">
<title>79</title>
<ellipse fill="none" stroke="black" cx="1174.74" cy="-170.5" rx="45.01" ry="13.37"/>
<text text-anchor="middle" x="1174.74" y="-168" font-family="Times,serif" font-size="10.00">ld_macos</text>
</g>
<!-- 79&#45;&gt;78 -->
<g id="edge27" class="edge">
<title>79&#45;&gt;78</title>
<path fill="none" stroke="black" d="M1220.03,-170.5C1235.37,-170.5 1253.06,-170.5 1270.35,-170.5"/>
<polygon fill="black" stroke="black" points="1270.1,-174 1280.1,-170.5 1270.1,-167 1270.1,-174"/>
</g>
<!-- 82&#45;&gt;79 -->
<g id="edge28" class="edge">
<title>82&#45;&gt;79</title>
<path fill="none" stroke="black" d="M1045.46,-197.58C1074.25,-191.51 1110.57,-183.84 1137.21,-178.21"/>
</g>
<!-- 84 -->
<g id="node29" class="node">
<title>84</title>
<polygon fill="none" stroke="black" points="1078,-180 917,-180 917,-161 1078,-161 1078,-180"/>
<text text-anchor="middle" x="997.5" y="-168" font-family="Times,serif" font-size="10.00">.build/macos/lib/hello/hello.a</text>
</g>
<!-- 84&#45;&gt;79 -->
<g id="edge29" class="edge">
<title>84&#45;&gt;79</title>
<path fill="none" stroke="black" d="M1078.43,-170.5C1095.94,-170.5 1113.87,-170.5 1129.38,-170.5"/>
</g>
<!-- 136 -->
<g id="node44" class="node">
<title>136</title>
<ellipse fill="none" stroke="black" cx="1174.74" cy="-70.5" rx="45.01" ry="13.37"/>
<text text-anchor="middle" x="1174.74" y="-68" font-family="Times,serif" font-size="10.00">ld_macos</text>
</g>
<!-- 84&#45;&gt;136 -->
<g id="edge49" class="edge">
<title>84&#45;&gt;136</title>
<path fill="none" stroke="black" d="M1061.01,-160.58C1068.98,-158.18 1076.84,-155.2 1084,-151.5 1117.2,-134.37 1147.62,-101.9 1163.07,-83.7"/>
</g>
<!-- 86 -->
<g id="node30" class="node">
<title>86</title>
<polygon fill="none" stroke="black" points="1075,-106 920,-106 920,-87 1075,-87 1075,-106"/>
<text text-anchor="middle" x="997.5" y="-94" font-family="Times,serif" font-size="10.00">.build/macos/lib/utils/utils.a</text>
</g>
<!-- 86&#45;&gt;79 -->
<g id="edge30" class="edge">
<title>86&#45;&gt;79</title>
<path fill="none" stroke="black" d="M1069.07,-106.41C1074.35,-108.61 1079.4,-111.28 1084,-114.5 1096.42,-123.21 1090.28,-133.87 1102,-143.5 1112.49,-152.12 1126.01,-158.15 1138.48,-162.3"/>
</g>
<!-- 86&#45;&gt;136 -->
<g id="edge50" class="edge">
<title>86&#45;&gt;136</title>
<path fill="none" stroke="black" d="M1031.25,-86.61C1051.44,-81.01 1077.97,-74.53 1102,-71.5 1110.9,-70.38 1120.47,-69.81 1129.62,-69.57"/>
</g>
<!-- 88 -->
<g id="node31" class="node">
<title>88</title>
<polygon fill="none" stroke="black" points="1068,-56 927,-56 927,-37 1068,-37 1068,-56"/>
<text text-anchor="middle" x="997.5" y="-44" font-family="Times,serif" font-size="10.00">.build/arch/macos/arch.a</text>
</g>
<!-- 88&#45;&gt;79 -->
<g id="edge31" class="edge">
<title>88&#45;&gt;79</title>
<path fill="none" stroke="black" d="M1037.27,-56.44C1052.57,-61.38 1069.83,-68.3 1084,-77.5 1118.26,-99.73 1149.16,-137.35 1164.17,-157.25"/>
</g>
<!-- 88&#45;&gt;136 -->
<g id="edge51" class="edge">
<title>88&#45;&gt;136</title>
<path fill="none" stroke="black" d="M1068.46,-43.34C1080.05,-43.72 1091.9,-44.67 1103,-46.5 1118.23,-49.01 1134.58,-54.38 1147.73,-59.4"/>
</g>
<!-- 94&#45;&gt;84 -->
<g id="edge33" class="edge">
<title>94&#45;&gt;84</title>
<path fill="none" stroke="black" d="M805.34,-173.32C836.77,-172.86 873.03,-172.32 905.46,-171.84"/>
<polygon fill="black" stroke="black" points="905.3,-175.35 915.25,-171.7 905.2,-168.35 905.3,-175.35"/>
<text text-anchor="middle" x="861" y="-176.5" font-family="Times,serif" font-size="10.00"> ar_macos</text>
</g>
<!-- 100 -->
<g id="node33" class="node">
<title>100</title>
<ellipse fill="none" stroke="black" cx="724.5" cy="-133.5" rx="45.92" ry="13.37"/>
<text text-anchor="middle" x="724.5" y="-131" font-family="Times,serif" font-size="10.00">ar_macos</text>
</g>
<!-- 100&#45;&gt;86 -->
<g id="edge35" class="edge">
<title>100&#45;&gt;86</title>
<path fill="none" stroke="black" d="M763.24,-125.87C782.81,-122.1 807.12,-117.68 829,-114.5 854.72,-110.76 882.76,-107.45 908.42,-104.72"/>
<polygon fill="black" stroke="black" points="908.55,-108.23 918.13,-103.7 907.82,-101.26 908.55,-108.23"/>
</g>
<!-- 103&#45;&gt;100 -->
<g id="edge36" class="edge">
<title>103&#45;&gt;100</title>
<path fill="none" stroke="black" d="M524.39,-134.23C573.33,-134.05 636.28,-133.82 678.16,-133.67"/>
</g>
<!-- 105&#45;&gt;100 -->
<g id="edge37" class="edge">
<title>105&#45;&gt;100</title>
<path fill="none" stroke="black" d="M515.96,-165.55C567.8,-157.54 639.03,-146.54 683.12,-139.73"/>
</g>
<!-- 114 -->
<g id="node36" class="node">
<title>114</title>
<ellipse fill="none" stroke="black" cx="724.5" cy="-46.5" rx="45.92" ry="13.37"/>
<text text-anchor="middle" x="724.5" y="-44" font-family="Times,serif" font-size="10.00">ar_macos</text>
</g>
<!-- 114&#45;&gt;88 -->
<g id="edge40" class="edge">
<title>114&#45;&gt;88</title>
<path fill="none" stroke="black" d="M770.86,-46.5C810.11,-46.5 867.84,-46.5 915.08,-46.5"/>
<polygon fill="black" stroke="black" points="915.02,-50 925.02,-46.5 915.02,-43 915.02,-50"/>
</g>
<!-- 117 -->
<g id="node37" class="node">
<title>117</title>
<polygon fill="none" stroke="black" points="518.5,-93 382.5,-93 382.5,-74 518.5,-74 518.5,-93"/>
<text text-anchor="middle" x="450.5" y="-81" font-family="Times,serif" font-size="10.00">.build/arch/macos/ask.o</text>
</g>
<!-- 117&#45;&gt;114 -->
<g id="edge41" class="edge">
<title>117&#45;&gt;114</title>
<path fill="none" stroke="black" d="M518.74,-74.35C570.02,-67.38 639.01,-57.99 682.37,-52.1"/>
</g>
<!-- 119 -->
<g id="node38" class="node">
<title>119</title>
<polygon fill="none" stroke="black" points="532,-56 369,-56 369,-37 532,-37 532,-56"/>
<text text-anchor="middle" x="450.5" y="-44" font-family="Times,serif" font-size="10.00">.build/arch/macos/get_arch.o</text>
</g>
<!-- 119&#45;&gt;114 -->
<g id="edge42" class="edge">
<title>119&#45;&gt;114</title>
<path fill="none" stroke="black" d="M532.37,-46.5C580.13,-46.5 638.82,-46.5 678.46,-46.5"/>
</g>
<!-- 121 -->
<g id="node39" class="node">
<title>121</title>
<polygon fill="none" stroke="black" points="517.5,-19 383.5,-19 383.5,0 517.5,0 517.5,-19"/>
<text text-anchor="middle" x="450.5" y="-7" font-family="Times,serif" font-size="10.00">.build/arch/macos/say.o</text>
</g>
<!-- 121&#45;&gt;114 -->
<g id="edge43" class="edge">
<title>121&#45;&gt;114</title>
<path fill="none" stroke="black" d="M517.69,-18.5C569.11,-25.5 638.8,-34.98 682.45,-40.92"/>
</g>
<!-- 124 -->
<g id="node40" class="node">
<title>124</title>
<polygon fill="none" stroke="black" points="122.5,-93 19.5,-93 19.5,-74 122.5,-74 122.5,-93"/>
<text text-anchor="middle" x="71" y="-81" font-family="Times,serif" font-size="10.00">arch/macos/ask.c</text>
</g>
<!-- 124&#45;&gt;117 -->
<g id="edge44" class="edge">
<title>124&#45;&gt;117</title>
<path fill="none" stroke="black" d="M122.91,-83.5C186.66,-83.5 296.52,-83.5 371.04,-83.5"/>
<polygon fill="black" stroke="black" points="370.72,-87 380.72,-83.5 370.72,-80 370.72,-87"/>
<text text-anchor="middle" x="252.5" y="-86.5" font-family="Times,serif" font-size="10.00"> cc_macos</text>
</g>
<!-- 128 -->
<g id="node41" class="node">
<title>128</title>
<polygon fill="none" stroke="black" points="136,-56 6,-56 6,-37 136,-37 136,-56"/>
<text text-anchor="middle" x="71" y="-44" font-family="Times,serif" font-size="10.00">arch/macos/get_arch.c</text>
</g>
<!-- 128&#45;&gt;119 -->
<g id="edge45" class="edge">
<title>128&#45;&gt;119</title>
<path fill="none" stroke="black" d="M136.47,-46.5C197.21,-46.5 288.86,-46.5 357.32,-46.5"/>
<polygon fill="black" stroke="black" points="357.01,-50 367.01,-46.5 357.01,-43 357.01,-50"/>
<text text-anchor="middle" x="252.5" y="-49.5" font-family="Times,serif" font-size="10.00"> cc_macos</text>
</g>
<!-- 132 -->
<g id="node42" class="node">
<title>132</title>
<polygon fill="none" stroke="black" points="121.5,-19 20.5,-19 20.5,0 121.5,0 121.5,-19"/>
<text text-anchor="middle" x="71" y="-7" font-family="Times,serif" font-size="10.00">arch/macos/say.c</text>
</g>
<!-- 132&#45;&gt;121 -->
<g id="edge46" class="edge">
<title>132&#45;&gt;121</title>
<path fill="none" stroke="black" d="M121.74,-9.5C185.54,-9.5 296.87,-9.5 371.87,-9.5"/>
<polygon fill="black" stroke="black" points="371.6,-13 381.6,-9.5 371.6,-6 371.6,-13"/>
<text text-anchor="middle" x="252.5" y="-12.5" font-family="Times,serif" font-size="10.00"> cc_macos</text>
</g>
<!-- 135 -->
<g id="node43" class="node">
<title>135</title>
<polygon fill="none" stroke="black" points="1406.98,-80 1293.98,-80 1293.98,-61 1406.98,-61 1406.98,-80"/>
<text text-anchor="middle" x="1350.48" y="-68" font-family="Times,serif" font-size="10.00">.build/macos/bin/hi</text>
</g>
<!-- 136&#45;&gt;135 -->
<g id="edge47" class="edge">
<title>136&#45;&gt;135</title>
<path fill="none" stroke="black" d="M1220.03,-70.5C1238.95,-70.5 1261.44,-70.5 1282.33,-70.5"/>
<polygon fill="black" stroke="black" points="1282.23,-74 1292.23,-70.5 1282.23,-67 1282.23,-74"/>
</g>
<!-- 139&#45;&gt;136 -->
<g id="edge48" class="edge">
<title>139&#45;&gt;136</title>
<path fill="none" stroke="black" d="M1058.95,-124.6C1067.65,-122.04 1076.27,-118.74 1084,-114.5 1093.92,-109.06 1092.45,-102.57 1102,-96.5 1113.62,-89.11 1127.64,-83.43 1140.19,-79.29"/>
</g>
<!-- 150 -->
<g id="node46" class="node">
<title>150</title>
<polygon fill="none" stroke="black" points="1435.48,-367 1265.48,-367 1265.48,-348 1435.48,-348 1435.48,-367"/>
<text text-anchor="middle" x="1350.48" y="-355" font-family="Times,serif" font-size="10.00">.build/windows/bin/hi&#45;repl.exe</text>
</g>
<!-- 151 -->
<g id="node47" class="node">
<title>151</title>
<ellipse fill="none" stroke="black" cx="1174.74" cy="-357.5" rx="53.98" ry="13.37"/>
<text text-anchor="middle" x="1174.74" y="-355" font-family="Times,serif" font-size="10.00">ld_windows</text>
</g>
<!-- 151&#45;&gt;150 -->
<g id="edge53" class="edge">
<title>151&#45;&gt;150</title>
<path fill="none" stroke="black" d="M1228.81,-357.5C1236.79,-357.5 1245.22,-357.5 1253.77,-357.5"/>
<polygon fill="black" stroke="black" points="1253.53,-361 1263.53,-357.5 1253.53,-354 1253.53,-361"/>
</g>
<!-- 154&#45;&gt;151 -->
<g id="edge54" class="edge">
<title>154&#45;&gt;151</title>
<path fill="none" stroke="black" d="M1055.9,-422.57C1065.45,-420.12 1075.13,-417.13 1084,-413.5 1111.2,-402.38 1139.45,-383.28 1156.82,-370.53"/>
</g>
<!-- 156 -->
<g id="node49" class="node">
<title>156</title>
<polygon fill="none" stroke="black" points="1084,-329 911,-329 911,-310 1084,-310 1084,-329"/>
<text text-anchor="middle" x="997.5" y="-317" font-family="Times,serif" font-size="10.00">.build/windows/lib/hello/hello.a</text>
</g>
<!-- 156&#45;&gt;151 -->
<g id="edge55" class="edge">
<title>156&#45;&gt;151</title>
<path fill="none" stroke="black" d="M1044.54,-329.48C1072.02,-335.44 1106.61,-342.94 1133.08,-348.68"/>
</g>
<!-- 208 -->
<g id="node64" class="node">
<title>208</title>
<ellipse fill="none" stroke="black" cx="1174.74" cy="-282.5" rx="53.98" ry="13.37"/>
<text text-anchor="middle" x="1174.74" y="-280" font-family="Times,serif" font-size="10.00">ld_windows</text>
</g>
<!-- 156&#45;&gt;208 -->
<g id="edge75" class="edge">
<title>156&#45;&gt;208</title>
<path fill="none" stroke="black" d="M1045.46,-309.58C1072.63,-303.85 1106.5,-296.7 1132.62,-291.18"/>
</g>
<!-- 158 -->
<g id="node50" class="node">
<title>158</title>
<polygon fill="none" stroke="black" points="1081,-291 914,-291 914,-272 1081,-272 1081,-291"/>
<text text-anchor="middle" x="997.5" y="-279" font-family="Times,serif" font-size="10.00">.build/windows/lib/utils/utils.a</text>
</g>
<!-- 158&#45;&gt;151 -->
<g id="edge56" class="edge">
<title>158&#45;&gt;151</title>
<path fill="none" stroke="black" d="M1056.38,-291.49C1065.78,-293.92 1075.29,-296.9 1084,-300.5 1111.46,-311.86 1139.87,-331.48 1157.18,-344.47"/>
</g>
<!-- 158&#45;&gt;208 -->
<g id="edge76" class="edge">
<title>158&#45;&gt;208</title>
<path fill="none" stroke="black" d="M1067.61,-271.51C1079.41,-270.77 1091.55,-270.62 1103,-271.5 1111.8,-272.18 1121.16,-273.33 1130.09,-274.63"/>
</g>
<!-- 160 -->
<g id="node51" class="node">
<title>160</title>
<polygon fill="none" stroke="black" points="1074,-368 921,-368 921,-349 1074,-349 1074,-368"/>
<text text-anchor="middle" x="997.5" y="-356" font-family="Times,serif" font-size="10.00">.build/arch/windows/arch.a</text>
</g>
<!-- 160&#45;&gt;151 -->
<g id="edge57" class="edge">
<title>160&#45;&gt;151</title>
<path fill="none" stroke="black" d="M1067.61,-368.49C1079.41,-369.23 1091.55,-369.38 1103,-368.5 1111.8,-367.82 1121.16,-366.67 1130.09,-365.37"/>
</g>
<!-- 160&#45;&gt;208 -->
<g id="edge77" class="edge">
<title>160&#45;&gt;208</title>
<path fill="none" stroke="black" d="M1049.97,-348.59C1061.39,-345.64 1073.28,-341.97 1084,-337.5 1110.81,-326.31 1138.94,-307.8 1156.4,-295.39"/>
</g>
<!-- 166&#45;&gt;156 -->
<g id="edge59" class="edge">
<title>166&#45;&gt;156</title>
<path fill="none" stroke="black" d="M811.25,-303.78C839.31,-306.16 870.68,-308.82 899.51,-311.27"/>
<polygon fill="black" stroke="black" points="899.08,-314.74 909.34,-312.1 899.67,-307.77 899.08,-314.74"/>
<text text-anchor="middle" x="861" y="-313.5" font-family="Times,serif" font-size="10.00"> ar_windows</text>
</g>
<!-- 172 -->
<g id="node53" class="node">
<title>172</title>
<ellipse fill="none" stroke="black" cx="724.5" cy="-252.5" rx="54.39" ry="13.37"/>
<text text-anchor="middle" x="724.5" y="-250" font-family="Times,serif" font-size="10.00">ar_windows</text>
</g>
<!-- 172&#45;&gt;158 -->
<g id="edge61" class="edge">
<title>172&#45;&gt;158</title>
<path fill="none" stroke="black" d="M777.27,-256.01C810.41,-258.46 854.29,-262.08 893,-266.5 901.98,-267.52 911.38,-268.72 920.69,-269.98"/>
<polygon fill="black" stroke="black" points="920.1,-273.43 930.48,-271.33 921.05,-266.49 920.1,-273.43"/>
</g>
<!-- 175&#45;&gt;172 -->
<g id="edge62" class="edge">
<title>175&#45;&gt;172</title>
<path fill="none" stroke="black" d="M522.96,-224.48C571.44,-231.26 634.17,-240.02 676.45,-245.93"/>
</g>
<!-- 177&#45;&gt;172 -->
<g id="edge63" class="edge">
<title>177&#45;&gt;172</title>
<path fill="none" stroke="black" d="M534.22,-252.5C578.29,-252.5 631.24,-252.5 669.91,-252.5"/>
</g>
<!-- 186 -->
<g id="node56" class="node">
<title>186</title>
<ellipse fill="none" stroke="black" cx="724.5" cy="-402.5" rx="54.39" ry="13.37"/>
<text text-anchor="middle" x="724.5" y="-400" font-family="Times,serif" font-size="10.00">ar_windows</text>
</g>
<!-- 186&#45;&gt;160 -->
<g id="edge66" class="edge">
<title>186&#45;&gt;160</title>
<path fill="none" stroke="black" d="M765.17,-393.3C784.38,-389.04 807.82,-384.14 829,-380.5 855.06,-376.03 883.54,-371.97 909.5,-368.6"/>
<polygon fill="black" stroke="black" points="909.87,-372.08 919.35,-367.34 908.98,-365.14 909.87,-372.08"/>
</g>
<!-- 189 -->
<g id="node57" class="node">
<title>189</title>
<polygon fill="none" stroke="black" points="524.5,-410 376.5,-410 376.5,-391 524.5,-391 524.5,-410"/>
<text text-anchor="middle" x="450.5" y="-398" font-family="Times,serif" font-size="10.00">.build/arch/windows/ask.o</text>
</g>
<!-- 189&#45;&gt;186 -->
<g id="edge67" class="edge">
<title>189&#45;&gt;186</title>
<path fill="none" stroke="black" d="M524.75,-401.04C570.54,-401.38 628.48,-401.8 669.97,-402.11"/>
</g>
<!-- 191 -->
<g id="node58" class="node">
<title>191</title>
<polygon fill="none" stroke="black" points="538,-497 363,-497 363,-478 538,-478 538,-497"/>
<text text-anchor="middle" x="450.5" y="-485" font-family="Times,serif" font-size="10.00">.build/arch/windows/get_arch.o</text>
</g>
<!-- 191&#45;&gt;186 -->
<g id="edge68" class="edge">
<title>191&#45;&gt;186</title>
<path fill="none" stroke="black" d="M538.15,-489.69C566.49,-486.57 596.66,-478.72 620,-461.5 634.72,-450.64 623.84,-436.07 638,-424.5 648.21,-416.16 661.21,-410.94 673.97,-407.69"/>
</g>
<!-- 193 -->
<g id="node59" class="node">
<title>193</title>
<polygon fill="none" stroke="black" points="523.5,-460 377.5,-460 377.5,-441 523.5,-441 523.5,-460"/>
<text text-anchor="middle" x="450.5" y="-448" font-family="Times,serif" font-size="10.00">.build/arch/windows/say.o</text>
</g>
<!-- 193&#45;&gt;186 -->
<g id="edge69" class="edge">
<title>193&#45;&gt;186</title>
<path fill="none" stroke="black" d="M523.77,-455.52C554.41,-455.21 589.92,-451.51 620,-439.5 629.67,-435.64 628.73,-429.25 638,-424.5 650.55,-418.07 665.12,-413.42 678.64,-410.1"/>
</g>
<!-- 196 -->
<g id="node60" class="node">
<title>196</title>
<polygon fill="none" stroke="black" points="128.5,-410 13.5,-410 13.5,-391 128.5,-391 128.5,-410"/>
<text text-anchor="middle" x="71" y="-398" font-family="Times,serif" font-size="10.00">arch/windows/ask.c</text>
</g>
<!-- 196&#45;&gt;189 -->
<g id="edge70" class="edge">
<title>196&#45;&gt;189</title>
<path fill="none" stroke="black" d="M128.92,-400.5C191.59,-400.5 292.96,-400.5 364.93,-400.5"/>
<polygon fill="black" stroke="black" points="364.7,-404 374.7,-400.5 364.7,-397 364.7,-404"/>
<text text-anchor="middle" x="252.5" y="-403.5" font-family="Times,serif" font-size="10.00"> cc_windows</text>
</g>
<!-- 200 -->
<g id="node61" class="node">
<title>200</title>
<polygon fill="none" stroke="black" points="142,-497 0,-497 0,-478 142,-478 142,-497"/>
<text text-anchor="middle" x="71" y="-485" font-family="Times,serif" font-size="10.00">arch/windows/get_arch.c</text>
</g>
<!-- 200&#45;&gt;191 -->
<g id="edge71" class="edge">
<title>200&#45;&gt;191</title>
<path fill="none" stroke="black" d="M142.12,-487.5C200.98,-487.5 285.71,-487.5 351.32,-487.5"/>
<polygon fill="black" stroke="black" points="350.99,-491 360.99,-487.5 350.99,-484 350.99,-491"/>
<text text-anchor="middle" x="252.5" y="-490.5" font-family="Times,serif" font-size="10.00"> cc_windows</text>
</g>
<!-- 204 -->
<g id="node62" class="node">
<title>204</title>
<polygon fill="none" stroke="black" points="127.5,-460 14.5,-460 14.5,-441 127.5,-441 127.5,-460"/>
<text text-anchor="middle" x="71" y="-448" font-family="Times,serif" font-size="10.00">arch/windows/say.c</text>
</g>
<!-- 204&#45;&gt;193 -->
<g id="edge72" class="edge">
<title>204&#45;&gt;193</title>
<path fill="none" stroke="black" d="M127.7,-450.5C190.49,-450.5 293.23,-450.5 365.71,-450.5"/>
<polygon fill="black" stroke="black" points="365.55,-454 375.55,-450.5 365.55,-447 365.55,-454"/>
<text text-anchor="middle" x="252.5" y="-453.5" font-family="Times,serif" font-size="10.00"> cc_windows</text>
</g>
<!-- 207 -->
<g id="node63" class="node">
<title>207</title>
<polygon fill="none" stroke="black" points="1423.48,-292 1277.48,-292 1277.48,-273 1423.48,-273 1423.48,-292"/>
<text text-anchor="middle" x="1350.48" y="-280" font-family="Times,serif" font-size="10.00">.build/windows/bin/hi.exe</text>
</g>
<!-- 208&#45;&gt;207 -->
<g id="edge73" class="edge">
<title>208&#45;&gt;207</title>
<path fill="none" stroke="black" d="M1228.81,-282.5C1240.5,-282.5 1253.16,-282.5 1265.73,-282.5"/>
<polygon fill="black" stroke="black" points="1265.7,-286 1275.7,-282.5 1265.7,-279 1265.7,-286"/>
</g>
<!-- 211&#45;&gt;208 -->
<g id="edge74" class="edge">
<title>211&#45;&gt;208</title>
<path fill="none" stroke="black" d="M1046.45,-254.49C1058.7,-257.07 1071.84,-259.87 1084,-262.5 1100.22,-266.02 1118.08,-269.98 1133.56,-273.44"/>
</g>
<!-- 222 -->
<g id="node66" class="node">
<title>222</title>
<polygon fill="none" stroke="black" points="495,-666 406,-666 406,-647 495,-647 495,-666"/>
<text text-anchor="middle" x="450.5" y="-654" font-family="Times,serif" font-size="10.00">doc/graph.svg</text>
</g>
<!-- 223 -->
<g id="node67" class="node">
<title>223</title>
<polygon fill="none" stroke="black" points="106.5,-666 35.5,-666 35.5,-647 106.5,-647 106.5,-666"/>
<text text-anchor="middle" x="71" y="-654" font-family="Times,serif" font-size="10.00">build.ninja</text>
</g>
<!-- 223&#45;&gt;222 -->
<g id="edge79" class="edge">
<title>223&#45;&gt;222</title>
<path fill="none" stroke="black" d="M106.84,-656.5C172.6,-656.5 315.48,-656.5 394.39,-656.5"/>
<polygon fill="black" stroke="black" points="394.04,-660 404.04,-656.5 394.04,-653 394.04,-660"/>
<text text-anchor="middle" x="252.5" y="-659.5" font-family="Times,serif" font-size="10.00"> embedded_rule_769e2bc466366e1a</text>
</g>
</g>
</svg>
